<svg width="24" height="24" viewBox="0 0 24 24" fill="none" xmlns="http://www.w3.org/2000/svg">
<path d="M15.2891 16.5825V19.1696C15.2891 19.5127 15.1528 19.8418 14.9102 20.0843C14.6676 20.3269 14.3386 20.4632 13.9955 20.4632H4.94054C4.59746 20.4632 4.26844 20.3269 4.02585 20.0843C3.78326 19.8418 3.64697 19.5127 3.64697 19.1696V4.94036C3.64697 4.59728 3.78326 4.26826 4.02585 4.02567C4.26844 3.78308 4.59746 3.64679 4.94054 3.64679H13.9955C14.3386 3.64679 14.6676 3.78308 14.9102 4.02567C15.1528 4.26826 15.2891 4.59728 15.2891 4.94036V7.5275" stroke="#EF151A" stroke-width="1.5" stroke-linecap="round" stroke-linejoin="round"/>
<path d="M11.4084 12.055H20.4634" stroke="#EF151A" stroke-width="1.5" stroke-linecap="round" stroke-linejoin="round"/>
<path d="M17.8762 9.46786L20.4634 12.055L17.8762 14.6421" stroke="#EF151A" stroke-width="1.5" stroke-linecap="round" stroke-linejoin="round"/>
</svg>
