<svg width="24" height="24" viewBox="0 0 24 24" fill="none" xmlns="http://www.w3.org/2000/svg">
<path d="M13.8925 13.0974C13.6779 13.1638 13.4462 13.1439 13.3078 13.1089C12.7869 12.8481 12.2174 12.7016 11.6248 12.7016C11.0353 12.7016 10.4644 12.838 9.94141 13.0974C9.10355 11.3279 7.45014 10.2075 5.62497 10.2075L5.49387 10.2091C4.11876 10.2493 3 11.5556 3 13.121V18.6201C3 19.8733 3.7227 20.9863 4.79477 21.3841L5.03583 21.4735C6.86805 22.1534 8.78745 22.5 10.7196 22.5H11.2619C14.3725 22.5 17.4442 21.5956 20.145 19.8849C20.8192 19.4579 21.1455 18.594 20.9382 17.7841C20.8411 17.405 20.7921 16.8939 20.7921 16.2647C20.7921 15.1666 20.3072 11.4256 19.3507 9.01104C18.5568 7.00689 17.4263 5.18337 15.9897 3.59083C15.1795 2.69275 14.0925 2.21375 12.9418 2.25214C12.4586 2.26824 11.991 2.45003 11.5887 2.74727L10.7153 3.39254C10.5145 3.54087 10.3445 3.74468 10.257 3.9939C10.1176 4.39051 10.1658 4.81264 10.3615 5.14233C9.95172 5.63068 9.96124 6.39751 10.3901 6.87287L11.8901 8.53564C11.9946 8.6515 12.1187 8.7434 12.2552 8.80608C12.3918 8.86877 12.5381 8.90102 12.6859 8.90099L14.582 8.9006C14.5776 9.33645 14.5096 11.1666 14.4398 11.7059L14.4399 11.7082C14.3977 12.0331 14.3538 12.381 14.3183 12.7373C14.2246 12.9364 14.064 13.0444 13.8925 13.0974ZM13.8925 13.0974C14.1885 13.5059 14.6382 14.638 14.0697 15.8982" stroke="#1B1C20" stroke-width="1.5" stroke-linecap="round" stroke-linejoin="round"/>
</svg>
