<svg width="24" height="24" viewBox="0 0 24 24" fill="none" xmlns="http://www.w3.org/2000/svg">
<path fill-rule="evenodd" clip-rule="evenodd" d="M14.2857 11.5714C14.2857 12.8338 13.2623 13.8571 11.9999 13.8571C10.7376 13.8571 9.71423 12.8338 9.71423 11.5714C9.71423 10.3091 10.7376 9.28571 11.9999 9.28571C13.2623 9.28571 14.2857 10.3091 14.2857 11.5714Z" stroke="#1B1C20" stroke-width="1.5" stroke-linecap="round" stroke-linejoin="round"/>
<path d="M14.2857 4.53571C13.8715 4.53571 13.5357 4.8715 13.5357 5.28571C13.5357 5.69993 13.8715 6.03571 14.2857 6.03571V4.53571ZM9.71429 6.03571C10.1285 6.03571 10.4643 5.69993 10.4643 5.28571C10.4643 4.8715 10.1285 4.53571 9.71429 4.53571V6.03571ZM15.0357 5.28571C15.0357 4.8715 14.6999 4.53571 14.2857 4.53571C13.8715 4.53571 13.5357 4.8715 13.5357 5.28571H15.0357ZM13.5357 6.42857C13.5357 6.84278 13.8715 7.17857 14.2857 7.17857C14.6999 7.17857 15.0357 6.84278 15.0357 6.42857H13.5357ZM13.5357 5.28571C13.5357 5.69993 13.8715 6.03571 14.2857 6.03571C14.6999 6.03571 15.0357 5.69993 15.0357 5.28571H13.5357ZM15.0357 3C15.0357 2.58579 14.6999 2.25 14.2857 2.25C13.8715 2.25 13.5357 2.58579 13.5357 3H15.0357ZM14.2857 6.03571C14.6999 6.03571 15.0357 5.69993 15.0357 5.28571C15.0357 4.8715 14.6999 4.53571 14.2857 4.53571V6.03571ZM9.71429 4.53571C9.30007 4.53571 8.96429 4.8715 8.96429 5.28571C8.96429 5.69993 9.30007 6.03571 9.71429 6.03571V4.53571ZM10.4643 5.28571C10.4643 4.8715 10.1285 4.53571 9.71429 4.53571C9.30007 4.53571 8.96429 4.8715 8.96429 5.28571H10.4643ZM8.96429 6.42857C8.96429 6.84278 9.30007 7.17857 9.71429 7.17857C10.1285 7.17857 10.4643 6.84278 10.4643 6.42857H8.96429ZM8.96429 5.28571C8.96429 5.69993 9.30007 6.03571 9.71429 6.03571C10.1285 6.03571 10.4643 5.69993 10.4643 5.28571H8.96429ZM10.4643 3C10.4643 2.58579 10.1285 2.25 9.71429 2.25C9.30007 2.25 8.96429 2.58579 8.96429 3H10.4643ZM4.69393 18.9706C4.36212 19.2186 4.29412 19.6885 4.54205 20.0204C4.78998 20.3522 5.25996 20.4202 5.59178 20.1722L4.69393 18.9706ZM18.4082 20.1722C18.74 20.4202 19.21 20.3522 19.4579 20.0204C19.7059 19.6885 19.6379 19.2186 19.3061 18.9706L18.4082 20.1722ZM14.2857 6.03571H15.4286V4.53571H14.2857V6.03571ZM15.4286 6.03571C17.5391 6.03571 19.25 7.74663 19.25 9.85714H20.75C20.75 6.9182 18.3675 4.53571 15.4286 4.53571V6.03571ZM19.25 9.85714V16.7143H20.75V9.85714H19.25ZM19.25 16.7143C19.25 18.8248 17.5391 20.5357 15.4286 20.5357V22.0357C18.3675 22.0357 20.75 19.6532 20.75 16.7143H19.25ZM15.4286 20.5357H8.57143V22.0357H15.4286V20.5357ZM8.57143 20.5357C6.46091 20.5357 4.75 18.8248 4.75 16.7143H3.25C3.25 19.6532 5.63248 22.0357 8.57143 22.0357V20.5357ZM4.75 16.7143V9.85714H3.25V16.7143H4.75ZM4.75 9.85714C4.75 7.74663 6.46091 6.03571 8.57143 6.03571V4.53571C5.63248 4.53571 3.25 6.9182 3.25 9.85714H4.75ZM8.57143 6.03571H9.71429V4.53571H8.57143V6.03571ZM13.5357 5.28571V6.42857H15.0357V5.28571H13.5357ZM15.0357 5.28571V3H13.5357V5.28571H15.0357ZM14.2857 4.53571H9.71429V6.03571H14.2857V4.53571ZM8.96429 5.28571V6.42857H10.4643V5.28571H8.96429ZM10.4643 5.28571V3H8.96429V5.28571H10.4643ZM5.59178 20.1722C9.39208 17.3327 14.6079 17.3327 18.4082 20.1722L19.3061 18.9706C14.9733 15.7332 9.02669 15.7332 4.69393 18.9706L5.59178 20.1722Z" fill="#1B1C20"/>
</svg>
