<svg width="333" height="333" viewBox="0 0 333 333" fill="none" xmlns="http://www.w3.org/2000/svg">
<g clip-path="url(#clip0_71_5851)">
<path fill-rule="evenodd" clip-rule="evenodd" d="M140.944 14.231C143.777 5.73239 151.73 0 160.688 0H172.312C181.27 0 189.223 5.73239 192.056 14.231L202.993 47.0417C210.727 49.4012 218.14 52.4908 225.156 56.2306L256.1 40.7592C264.113 36.7528 273.788 38.3233 280.124 44.6578L288.343 52.8767C294.678 59.2111 296.247 68.8883 292.241 76.9009L276.771 107.844C280.509 114.86 283.599 122.274 285.958 130.007L318.768 140.944C327.268 143.777 333 151.73 333 160.688V172.312C333 181.27 327.268 189.223 318.768 192.056L285.958 202.993C283.599 210.727 280.509 218.14 276.771 225.156L292.241 256.1C296.247 264.111 294.678 273.788 288.343 280.124L280.124 288.343C273.788 294.676 264.113 296.247 256.1 292.241L225.156 276.769C218.14 280.509 210.727 283.599 202.993 285.958L192.056 318.768C189.223 327.268 181.27 333 172.312 333H160.688C151.73 333 143.777 327.268 140.944 318.768L130.007 285.958C122.274 283.599 114.86 280.509 107.845 276.771L76.9003 292.243C68.8877 296.249 59.2105 294.678 52.876 288.343L44.657 280.124C38.3225 273.791 36.7522 264.113 40.7584 256.1L56.2304 225.156C52.4908 218.14 49.4012 210.727 47.0417 202.993L14.231 192.056C5.73239 189.223 0 181.27 0 172.312V160.688C0 151.73 5.73239 143.777 14.231 140.944L47.0417 130.007C49.4012 122.274 52.4908 114.859 56.2304 107.844L40.7586 76.8997C36.7522 68.8871 38.3227 59.2099 44.6572 52.8754L52.876 44.6563C59.2105 38.3218 68.8879 36.7515 76.9003 40.7577L107.845 56.23C114.86 52.4906 122.274 49.401 130.007 47.0417L140.944 14.231ZM166.5 249.75C212.477 249.75 249.75 212.477 249.75 166.5C249.75 120.522 212.477 83.25 166.5 83.25C120.522 83.25 83.25 120.522 83.25 166.5C83.25 212.477 120.522 249.75 166.5 249.75Z" fill="#303030"/>
</g>
<defs>
<clipPath id="clip0_71_5851">
<rect width="333" height="333" fill="white"/>
</clipPath>
</defs>
</svg>
