<svg width="106" height="104" viewBox="0 0 106 104" fill="none" xmlns="http://www.w3.org/2000/svg">
<g clip-path="url(#clip0_1_4997)">
<path fill-rule="evenodd" clip-rule="evenodd" d="M91.5968 72.8058H87.0468V60.4555H91.5968V49.8055H85.5565V86.6357H71.5493L71.6957 48.1429V47.9976C72.5155 39.8357 76.9162 37.3418 84.7191 37.3418H105.595L105.677 86.6357H91.5968V72.8058Z" fill="#DD0333"/>
<path fill-rule="evenodd" clip-rule="evenodd" d="M93.1866 71.2306H88.6337V62.031H93.1866V48.2274H83.9695V85.0604H73.1362L73.2738 48.2274V48.1518C74.0088 40.827 77.7331 38.9174 84.7162 38.9174H104.005L104.07 85.0604H93.1866V71.2306Z" fill="#DD0333"/>
<path fill-rule="evenodd" clip-rule="evenodd" d="M93.1866 71.2306H88.6337V62.031H93.1866V48.2274H83.9695V85.0604H73.1362L73.2738 48.2274V48.1518C74.0088 40.827 77.7331 38.9174 84.7162 38.9174H104.005L104.07 85.0604H93.1866V71.2306Z" fill="white"/>
<path fill-rule="evenodd" clip-rule="evenodd" d="M102.497 83.4848L102.436 40.4926H84.7308C78.3245 40.4926 75.4991 42.0185 74.8695 48.3085L74.7378 83.479H82.3797V46.6517H94.7735V63.6091H90.2236V69.6521H94.7735V83.4848H102.497Z" fill="#DD0333"/>
<path fill-rule="evenodd" clip-rule="evenodd" d="M0.330531 64.9404C0.330531 63.9405 0.353954 62.9435 0.353954 61.9436C0.353954 60.9438 0.353954 59.9497 0.330531 58.9498H0.271973V48.1458C0.271973 42.2366 4.04899 37.3912 10.2884 37.3912H23.9676C30.3563 37.3912 34.2915 41.786 34.3676 47.9801V57.3889H20.2726V49.8665H14.4021V74.0963H20.2726V65.109H34.3676V75.8636C34.3676 82.0693 30.3476 86.5194 23.9676 86.5194H10.2884C4.13975 86.5194 0.333459 81.7699 0.271973 75.9217V64.9404H0.330531Z" fill="#DD0333"/>
<path fill-rule="evenodd" clip-rule="evenodd" d="M1.89695 66.5157C1.91745 64.9927 1.94087 63.4696 1.94087 61.9436C1.94087 60.4176 1.91745 58.8974 1.89695 57.3743H1.86182V48.1457C1.86182 43.1114 4.93613 38.9549 10.2884 38.9549H23.9705C29.4809 38.9549 32.7133 42.6551 32.7777 47.9859V55.7931H21.8624V48.2969H12.8122V75.6775H21.8624V66.6843H32.7719V75.8548C32.7719 81.1885 29.4575 84.9352 23.9618 84.9352H10.2884C5.01811 84.9352 1.9233 80.8804 1.86182 75.8926V66.5157H1.89695Z" fill="#DD0333"/>
<path fill-rule="evenodd" clip-rule="evenodd" d="M1.89695 66.5157C1.91745 64.9927 1.94087 63.4696 1.94087 61.9436C1.94087 60.4176 1.91745 58.8974 1.89695 57.3743H1.86182V48.1457C1.86182 43.1114 4.93613 38.9549 10.2884 38.9549H23.9705C29.4809 38.9549 32.7133 42.6551 32.7777 47.9859V55.7931H21.8624V48.2969H12.8122V75.6775H21.8624V66.6843H32.7719V75.8548C32.7719 81.1885 29.4575 84.9352 23.9618 84.9352H10.2884C5.01811 84.9352 1.9233 80.8804 1.86182 75.8926V66.5157H1.89695Z" fill="white"/>
<path fill-rule="evenodd" clip-rule="evenodd" d="M31.1908 75.8549V68.2598H23.4493V77.2501H11.2253V46.7302H23.4493V54.2352H31.1908V48.0063C31.1381 43.5475 28.6142 40.5333 23.9705 40.5333H10.2913C5.81742 40.5333 3.44873 43.998 3.44873 48.1487V55.7961H3.46337C3.48679 57.854 3.52193 59.8974 3.52778 61.9436C3.53364 63.9899 3.49265 66.0275 3.46337 68.0941H3.44873V75.8752C3.49265 79.9794 5.87598 83.3598 10.2913 83.3598H23.9705C28.6171 83.3598 31.1908 80.2846 31.1908 75.8549Z" fill="#DD0333"/>
<path fill-rule="evenodd" clip-rule="evenodd" d="M66.7154 77.4391C66.9262 77.6629 67.1282 77.9012 67.3302 78.1599C69.2627 80.6568 69.7897 83.8134 69.7897 86.8799V103.523H56.0138V86.8886C56.0138 86.1736 56.0636 85.4353 56.0138 84.7173C55.997 84.4731 55.9458 84.2324 55.8616 84.0023C55.7181 83.6739 54.7548 83.6128 54.4913 83.5983L51.499 83.421L51.5107 71.8409L54.0843 71.3497C54.4357 71.2828 55.721 71.0038 55.9758 70.7131C56.0127 70.5757 56.0294 70.4338 56.0256 70.2916V54.1307H69.8014V70.5038C69.8014 73.3465 68.5834 75.6544 66.7271 77.4391M36.0747 54.1307H49.8359V103.523H36.0747V54.1307Z" fill="#DD0333"/>
<path fill-rule="evenodd" clip-rule="evenodd" d="M64.2842 77.4013C64.9607 77.8855 65.5624 78.4652 66.0702 79.122C67.7743 81.3194 68.2018 84.1854 68.2018 86.8886V101.948H57.6027V86.8886C57.6027 84.2319 58.0068 82.238 54.5694 82.0258L53.0732 81.9357V73.1372L54.3556 72.8902C55.2047 72.7274 56.5223 72.428 57.1284 71.7624C57.4626 71.3448 57.6267 70.8178 57.5881 70.2858V55.7061H68.1988V70.5038C68.1988 73.5151 66.5504 75.7939 64.2813 77.4013M37.6606 55.7061H48.2568V101.948H37.6606V55.7061Z" fill="white"/>
<path fill-rule="evenodd" clip-rule="evenodd" d="M59.1906 86.8887C59.1906 84.5023 59.7088 80.7499 54.664 80.4505V74.4395C57.2435 73.9454 59.1818 73.0385 59.1818 70.2859V57.2845H66.6012V70.5039C66.6012 74.3029 63.3073 76.3812 61.2021 77.3433C63.603 78.7588 66.6012 80.0494 66.6012 86.8887V100.37H59.1906V86.8887ZM39.2485 57.2845H46.6708V100.37H39.2485V57.2845Z" fill="#DD0333"/>
<path fill-rule="evenodd" clip-rule="evenodd" d="M59.252 20.6198L80.7283 20.5791L63.3277 33.0748L70.0033 53.3342L52.6554 40.7745L35.3075 53.3342L41.9802 33.0748L24.5825 20.5791L46.0588 20.6198L52.6554 0.337219L59.252 20.6198Z" fill="#DD0333"/>
<path fill-rule="evenodd" clip-rule="evenodd" d="M58.4061 21.7767L77.1213 21.7418L61.9576 32.633L67.7783 50.288L52.6556 39.3416L37.5329 50.288L43.3507 32.633L28.187 21.7418L46.9052 21.7767L52.6556 4.09845L58.4061 21.7767Z" fill="white"/>
<path fill-rule="evenodd" clip-rule="evenodd" d="M52.6559 7.86267L57.5601 22.9366L73.5173 22.9046L60.5905 32.1913L65.5475 47.2478L52.6559 37.9116L39.7613 47.2478L44.7212 32.1913L31.7944 22.9046L47.7516 22.9366L52.6559 7.86267Z" fill="#DD0333"/>
</g>
<defs>
<clipPath id="clip0_1_4997">
<rect width="105.405" height="103.186" fill="white" transform="translate(0.271973 0.337219)"/>
</clipPath>
</defs>
</svg>
