<svg width="20" height="20" viewBox="0 0 20 20" fill="none" xmlns="http://www.w3.org/2000/svg">
<path fill-rule="evenodd" clip-rule="evenodd" d="M8.42657 1.66699C7.81293 1.66699 7.31547 2.16445 7.31547 2.7781C7.31547 3.08493 7.06673 3.33366 6.75991 3.33366H6.66732H4.16732C3.70708 3.33366 3.33398 3.70676 3.33398 4.16699C3.33398 4.62723 3.70708 5.00033 4.16732 5.00033H6.66732H6.75991H13.2401H13.2414H13.334H15.834C16.2942 5.00033 16.6673 4.62723 16.6673 4.16699C16.6673 3.70676 16.2942 3.33366 15.834 3.33366H13.2407C12.9342 3.33329 12.6858 3.08471 12.6858 2.7781C12.6858 2.16445 12.1884 1.66699 11.5747 1.66699H8.42657Z" fill="#66747A"/>
<path fill-rule="evenodd" clip-rule="evenodd" d="M5.0013 6.66699C4.76826 6.66699 4.54587 6.76458 4.38807 6.93607C4.23028 7.10756 4.15149 7.33729 4.17085 7.56953L4.81315 15.2772C4.95712 17.0048 6.40134 18.3337 8.13497 18.3337H11.8676C13.6013 18.3337 15.0455 17.0048 15.1895 15.2772L15.8317 7.56953C15.8511 7.33729 15.7723 7.10756 15.6146 6.93607C15.4567 6.76458 15.2344 6.66699 15.0013 6.66699H5.0013Z" fill="#66747A"/>
</svg>
