<svg width="403" height="272" viewBox="0 0 403 272" fill="none" xmlns="http://www.w3.org/2000/svg">
<g filter="url(#filter0_d_350_16940)">
<path d="M109.015 126.866C111.176 123.574 112.395 119.938 113.268 116.143C114.027 112.92 114.533 109.673 114.717 106.381C114.809 104.849 114.142 104.117 112.602 104.323C110.257 104.62 108.05 105.375 105.843 106.152C105.084 106.427 104.694 106.907 104.579 107.661C104.372 109.01 104.096 110.336 104.027 111.685C103.843 115.389 103.705 122.796 103.751 122.796C103.751 125.037 103.751 127.277 103.751 129.495C103.751 130.341 103.843 130.387 104.671 130.135C106.533 129.587 107.958 128.489 109.015 126.866Z" fill="#4D8AEE"/>
</g>
<g filter="url(#filter1_d_350_16940)">
<path d="M102.534 107.891C102.442 106.931 101.96 106.314 100.994 106.062C100.557 105.948 100.143 105.719 99.7066 105.605C97.9365 105.148 96.1664 104.668 94.3503 104.325C93.04 104.073 92.2124 104.85 92.2813 106.062C92.5342 110.383 93.2239 114.636 94.4423 118.797C95.4078 122.043 96.6262 125.153 98.7641 127.851C99.8905 129.268 101.431 129.84 103.201 130.343C103.224 129.771 103.27 129.382 103.27 128.971C103.247 124.238 103.27 119.483 103.155 114.75C103.086 112.464 102.741 110.177 102.511 107.891H102.534Z" fill="#4D8AEE"/>
</g>
<g filter="url(#filter2_d_350_16940)">
<path d="M109.774 126.935C109.659 127.118 109.659 127.392 109.613 127.598C109.843 127.598 110.119 127.666 110.326 127.598C111.039 127.278 111.774 127.003 112.395 126.569C117.039 123.277 120.625 119.047 123.222 113.972C124.096 112.257 124.878 110.474 124.993 108.53C125.199 105.192 124.602 101.923 123.705 98.6991C123.636 98.4247 123.475 98.1961 123.268 97.7617C123.016 98.2418 122.855 98.5162 122.717 98.7906C121.498 101.031 119.912 103.02 117.659 104.232C116.349 104.941 115.843 105.809 115.866 107.227C115.866 110.176 115.268 113.057 114.464 115.892C113.36 119.756 111.751 123.414 109.797 126.912L109.774 126.935Z" fill="#4D8AEE"/>
</g>
<g filter="url(#filter3_d_350_16940)">
<path d="M92.9731 125.313C94.1455 126.273 95.318 127.256 96.8352 127.645C97.0191 127.691 97.249 127.622 97.4559 127.599C97.4099 127.416 97.4099 127.21 97.3409 127.028C96.7202 125.793 96.0306 124.604 95.4559 123.347C92.9961 118.065 91.226 112.601 91.18 106.68C91.18 105.696 90.7892 104.988 89.9157 104.553C87.5019 103.342 85.8467 101.352 84.4904 99.089C84.2835 98.7232 84.0996 98.3574 83.8927 97.9688C83.8237 97.9688 83.7317 97.9688 83.6628 97.9688C83.5478 98.2888 83.3639 98.6089 83.295 98.9519C82.9271 100.735 82.5134 102.518 82.2605 104.325C81.8927 106.862 81.9156 109.4 82.9271 111.847C85.134 117.174 88.5363 121.609 92.9961 125.267L92.9731 125.313Z" fill="#4D8AEE"/>
</g>
<g filter="url(#filter4_d_350_16940)">
<path d="M104.027 103.637C104.027 104.918 104.786 105.42 105.981 105.078C107.958 104.529 109.958 103.98 111.981 103.546C112.831 103.363 113.452 102.974 113.889 102.265C115.153 100.185 115.843 97.9215 116.05 95.498C116.096 94.9493 115.889 94.6292 115.429 94.332C112.786 92.5715 109.866 91.8399 106.717 91.9771C104.717 92.0686 104.464 91.9314 104.05 94.4463C104.027 94.6521 104.004 94.8578 104.004 95.0636C104.004 96.4582 104.004 97.8529 104.004 99.2704H104.05C104.05 100.734 104.05 102.197 104.05 103.683L104.027 103.637Z" fill="#4D8AEE"/>
</g>
<path d="M94.9036 103.5C97.0185 104.003 99.1335 104.552 101.225 105.123C102.26 105.398 102.95 104.895 102.973 103.82C103.019 101.214 103.156 98.5846 103.133 95.9782C103.133 94.9265 102.858 93.8748 102.651 92.846C102.536 92.2973 102.099 92.0229 101.547 92.0229C100.145 92.0229 98.7427 91.9772 97.3634 92.1144C95.3174 92.343 93.4323 93.1204 91.7082 94.2635C91.2024 94.6064 90.9266 94.9951 91.0415 95.6353C91.3174 98.013 91.9611 100.276 93.2484 102.311C93.6392 102.929 94.168 103.294 94.9266 103.477L94.9036 103.5Z" fill="#4D8AEE"/>
<g filter="url(#filter5_d_350_16940)">
<path d="M104.007 89.7369C104.007 90.6742 104.191 90.8343 105.134 90.8571C106.329 90.88 107.548 90.9029 108.743 90.88C111.111 90.88 113.249 91.543 115.249 92.8005C115.456 92.9377 115.731 92.9834 115.961 93.052C116.03 92.8005 116.191 92.5261 116.145 92.2975C115.915 90.4227 115.709 88.548 115.387 86.6732C115.295 86.1702 114.927 85.6215 114.536 85.2557C112.352 83.1752 109.686 82.1692 106.674 81.9863C106.283 81.9863 105.892 82.0092 105.525 82.0549C104.444 82.1692 104.214 82.3979 104.03 83.4496C104.007 83.6553 103.984 83.8611 103.984 84.0669C103.984 85.9645 103.984 87.8621 103.984 89.7369H104.007Z" fill="#4D8AEE"/>
</g>
<path d="M102.926 83.0371C102.834 82.4656 102.489 82.1912 101.914 82.1226C98.5577 81.6654 95.6382 82.7628 93.0405 84.7518C92.5347 85.1405 92.052 85.6892 91.8451 86.2608C91.1554 88.2499 90.8336 90.3304 90.9255 92.4566C90.9255 92.6624 91.0635 92.8682 91.1324 93.0739C91.3393 93.0054 91.5462 92.9596 91.7301 92.8453C93.1554 91.9079 94.6727 91.2221 96.3738 91.0391C97.5003 90.9248 98.6267 90.8791 99.7761 90.8105C99.7761 90.8105 99.7761 90.8105 99.7761 90.8334C100.604 90.8334 101.408 90.8334 102.236 90.8334C102.673 90.8334 102.972 90.6505 103.017 90.1704C103.27 87.7926 103.362 85.392 102.949 83.0143L102.926 83.0371Z" fill="#4D8AEE"/>
<g filter="url(#filter6_d_350_16940)">
<path d="M104.004 75.2194C104.004 76.6598 104.004 78.1001 104.004 79.5405C104.004 80.0892 104.303 80.4322 104.831 80.5465C105.153 80.6151 105.498 80.6608 105.843 80.6836C108.923 80.9809 111.866 81.7811 114.533 83.3586C114.717 83.4729 114.923 83.5644 115.314 83.7701C115.314 83.29 115.36 82.9699 115.314 82.6727C114.74 80.1807 114.165 77.6657 113.567 75.1737C113.291 74.0534 112.648 73.1846 111.613 72.7045C110.257 72.0872 108.877 71.5385 107.498 70.9669C106.969 70.7611 106.556 70.8983 106.257 71.3327C105.544 72.3844 104.877 73.4361 104.211 74.5107C104.096 74.6936 104.05 74.9451 104.05 75.1508L104.004 75.2194Z" fill="#4D8AEE"/>
</g>
<g filter="url(#filter7_d_350_16940)">
<path d="M102.902 74.6232C102.235 73.5029 101.499 72.4055 100.764 71.331C100.488 70.9423 100.097 70.828 99.6143 71.0109C98.6258 71.3767 97.5913 71.7196 96.6258 72.1083C94.8327 72.8399 93.6143 74.0516 93.2235 76.0179C92.8097 78.1441 92.235 80.2475 91.7752 82.3509C91.6833 82.7395 91.7752 83.1739 91.7752 83.6541C91.9592 83.6541 92.0281 83.6541 92.0971 83.6083C92.258 83.5397 92.4189 83.4483 92.5798 83.3568C94.5569 82.2137 96.6488 81.4135 98.9247 81.0477C99.9592 80.8877 100.994 80.7505 102.028 80.5676C102.879 80.4075 103.086 80.1103 103.086 79.2644C103.086 78.0526 103.086 76.8181 103.086 75.6063C103.086 75.2634 103.086 74.8747 102.925 74.6232H102.902Z" fill="#4D8AEE"/>
</g>
<g filter="url(#filter8_d_350_16940)">
<path d="M115.134 104.208C116.03 103.865 117.019 103.591 117.801 103.065C120.099 101.464 121.594 99.178 122.582 96.6174C123.065 95.4056 122.881 94.171 122.122 93.0507C120.812 91.1531 119.203 89.5299 117.433 88.0666C117.249 87.9066 116.973 87.8151 116.605 87.6094C116.674 88.0209 116.697 88.2495 116.766 88.4782C117.456 91.176 117.824 93.8967 117.617 96.6631C117.41 99.338 116.628 101.762 114.605 103.659C114.49 103.773 114.421 103.888 114.191 104.208C114.651 104.208 114.927 104.276 115.157 104.208H115.134Z" fill="#4D8AEE"/>
</g>
<g filter="url(#filter9_d_350_16940)">
<path d="M92.5564 103.729C90.7403 102.106 89.8668 100.002 89.5679 97.6702C89.1541 94.5609 89.522 91.4972 90.3036 88.4793C90.3725 88.2278 90.3955 87.9763 90.4185 87.7477L90.2576 87.6562C89.9817 87.8392 89.6829 87.9763 89.453 88.205C88.0047 89.7139 86.4875 91.1771 85.1312 92.7775C84.0507 94.0579 83.9357 95.6125 84.6714 97.0986C85.2461 98.2646 85.8898 99.4306 86.6484 100.482C87.7748 102.06 89.1771 103.386 91.0852 104.026C91.5909 104.209 92.1426 104.438 92.7863 104.072C92.6714 103.912 92.6254 103.797 92.5335 103.729H92.5564Z" fill="#4D8AEE"/>
</g>
<g filter="url(#filter10_d_350_16940)">
<path d="M114.558 73.7324C115.248 77.1847 115.915 80.637 116.719 84.0665C116.949 85.0267 117.524 85.9412 118.121 86.7185C118.903 87.7474 119.846 88.6848 120.788 89.5993C122.236 91.0168 123.34 92.64 123.869 94.6291C123.915 94.8349 124.007 95.0406 124.144 95.3836C124.926 94.4234 125.202 93.4402 125.271 92.4343L125.731 87.7017C125.823 87.1758 125.915 86.65 125.984 86.1241C126.42 82.5575 126.466 78.968 126.259 75.3785C126.144 73.4352 125.984 71.5147 125.8 69.5714C125.731 68.7254 125.455 68.5654 124.673 68.8398L116.167 72.0406C116.03 72.0406 115.915 72.0406 115.754 72.0863C114.857 72.2235 114.374 72.8179 114.558 73.7096V73.7324Z" fill="#4D8AEE"/>
</g>
<g filter="url(#filter11_d_350_16940)">
<path d="M82.5821 68.9314C82.5821 68.9314 82.5362 68.9314 82.5132 68.9086H82.4442V68.8857C81.5477 68.5428 81.3638 68.8857 81.2028 70.2346C80.7661 74.2128 80.6051 78.1909 80.835 82.1919C80.927 83.7923 81.2028 85.9414 81.3867 87.7019L81.8005 92.0687C81.8005 92.1144 81.8005 92.1373 81.8005 92.183C81.8005 93.3033 82.0764 94.355 82.858 95.3152C82.973 95.1781 83.0419 95.1323 83.0649 95.0638C83.1339 94.858 83.2028 94.6294 83.2718 94.4236C83.7086 93.0061 84.3293 91.7029 85.3867 90.6055C86.2833 89.6681 87.1799 88.7536 88.0534 87.8162C89.4327 86.353 90.4442 84.7068 90.7431 82.672C90.812 82.2148 90.927 81.7347 91.0189 81.2774C91.5247 78.8311 92.0534 76.3848 92.5132 73.9156C92.7201 72.7953 92.2373 72.2008 91.0879 72.0865C91.0419 72.0865 90.9959 72.0865 90.95 72.0865L82.6051 68.9543L82.5821 68.9314Z" fill="#4D8AEE"/>
</g>
<g filter="url(#filter12_d_350_16940)">
<path d="M318.124 82.0262C318.124 82.0262 317.987 81.9805 317.918 81.9805C317.827 82.1862 317.735 82.4148 317.598 82.6206C316.912 83.8322 316.272 85.0896 315.495 86.2326C314.695 87.4214 313.712 88.473 312.249 88.8388C310.26 89.3646 308.317 89.2045 306.42 88.4273C306.26 88.3587 306.077 88.313 305.734 88.2215C308.066 92.4737 309.232 96.9087 310.1 101.664C310.603 101.321 310.969 101.138 311.266 100.864C312.729 99.5377 313.758 97.8917 314.604 96.1314C316.432 92.3365 317.301 88.2901 317.872 84.1523C317.964 83.4436 318.032 82.7349 318.124 82.0262Z" fill="#4D8AEE"/>
</g>
<g filter="url(#filter13_d_350_16940)">
<path d="M283.517 88.2201C283.288 88.2659 283.22 88.2659 283.128 88.3116C281.78 88.906 280.385 89.1574 278.922 89.0889C277.345 88.9974 275.768 88.7231 274.762 87.3514C273.711 85.934 272.796 84.4024 271.836 82.9164C271.653 82.6421 271.585 82.2991 271.448 82.002C271.402 82.002 271.333 82.0248 271.288 82.0477C271.288 82.162 271.265 82.2763 271.288 82.3677C271.836 85.7969 272.202 89.226 273.368 92.5409C274.213 95.0099 275.219 97.3645 276.797 99.422C277.254 100.039 277.825 100.588 278.419 101.091C279.082 101.685 279.311 101.571 279.471 100.725C279.471 100.657 279.471 100.588 279.494 100.519C280.111 97.1131 280.98 93.7982 282.42 90.6434C282.763 89.8661 283.128 89.0889 283.54 88.243L283.517 88.2201Z" fill="#4D8AEE"/>
</g>
<g filter="url(#filter14_d_350_16940)">
<path d="M272.794 105.389C273.274 104.954 273.639 104.383 274.165 103.971C275.011 103.308 275.925 102.714 276.84 102.074C275.925 100.954 275.011 99.8333 274.074 98.7132C273.685 98.2559 273.274 98.2559 273.159 98.736C272.656 100.816 272.199 102.897 271.765 104.977C271.719 105.183 271.902 105.571 272.085 105.64C272.268 105.709 272.634 105.549 272.794 105.389Z" fill="#4D8AEE"/>
</g>
<g filter="url(#filter15_d_350_16940)">
<path d="M315.223 98.7366C314.286 99.8568 313.371 100.977 312.457 102.097C313.371 102.737 314.286 103.332 315.132 103.995C315.634 104.406 316.023 104.955 316.503 105.412C316.686 105.572 317.052 105.732 317.212 105.663C317.395 105.595 317.577 105.206 317.532 105.001C317.097 102.92 316.64 100.84 316.137 98.7595C316.023 98.2794 315.589 98.2794 315.223 98.7366Z" fill="#4D8AEE"/>
</g>
<defs>
<filter id="filter0_d_350_16940" x="88.8422" y="89.3891" width="40.7844" height="55.78" filterUnits="userSpaceOnUse" color-interpolation-filters="sRGB">
<feFlood flood-opacity="0" result="BackgroundImageFix"/>
<feColorMatrix in="SourceAlpha" type="matrix" values="0 0 0 0 0 0 0 0 0 0 0 0 0 0 0 0 0 0 127 0" result="hardAlpha"/>
<feOffset/>
<feGaussianBlur stdDeviation="7.45"/>
<feComposite in2="hardAlpha" operator="out"/>
<feColorMatrix type="matrix" values="0 0 0 0 0.266667 0 0 0 0 0.458824 0 0 0 0 0.952941 0 0 0 0.4 0"/>
<feBlend mode="normal" in2="BackgroundImageFix" result="effect1_dropShadow_350_16940"/>
<feBlend mode="normal" in="SourceGraphic" in2="effect1_dropShadow_350_16940" result="shape"/>
</filter>
<filter id="filter1_d_350_16940" x="77.3773" y="89.3773" width="40.7922" height="55.8654" filterUnits="userSpaceOnUse" color-interpolation-filters="sRGB">
<feFlood flood-opacity="0" result="BackgroundImageFix"/>
<feColorMatrix in="SourceAlpha" type="matrix" values="0 0 0 0 0 0 0 0 0 0 0 0 0 0 0 0 0 0 127 0" result="hardAlpha"/>
<feOffset/>
<feGaussianBlur stdDeviation="7.45"/>
<feComposite in2="hardAlpha" operator="out"/>
<feColorMatrix type="matrix" values="0 0 0 0 0.266667 0 0 0 0 0.458824 0 0 0 0 0.952941 0 0 0 0.4 0"/>
<feBlend mode="normal" in2="BackgroundImageFix" result="effect1_dropShadow_350_16940"/>
<feBlend mode="normal" in="SourceGraphic" in2="effect1_dropShadow_350_16940" result="shape"/>
</filter>
<filter id="filter2_d_350_16940" x="94.7133" y="82.8617" width="45.2219" height="59.6667" filterUnits="userSpaceOnUse" color-interpolation-filters="sRGB">
<feFlood flood-opacity="0" result="BackgroundImageFix"/>
<feColorMatrix in="SourceAlpha" type="matrix" values="0 0 0 0 0 0 0 0 0 0 0 0 0 0 0 0 0 0 127 0" result="hardAlpha"/>
<feOffset/>
<feGaussianBlur stdDeviation="7.45"/>
<feComposite in2="hardAlpha" operator="out"/>
<feColorMatrix type="matrix" values="0 0 0 0 0.266667 0 0 0 0 0.458824 0 0 0 0 0.952941 0 0 0 0.4 0"/>
<feBlend mode="normal" in2="BackgroundImageFix" result="effect1_dropShadow_350_16940"/>
<feBlend mode="normal" in="SourceGraphic" in2="effect1_dropShadow_350_16940" result="shape"/>
</filter>
<filter id="filter3_d_350_16940" x="67.143" y="83.0688" width="45.2141" height="59.4914" filterUnits="userSpaceOnUse" color-interpolation-filters="sRGB">
<feFlood flood-opacity="0" result="BackgroundImageFix"/>
<feColorMatrix in="SourceAlpha" type="matrix" values="0 0 0 0 0 0 0 0 0 0 0 0 0 0 0 0 0 0 127 0" result="hardAlpha"/>
<feOffset/>
<feGaussianBlur stdDeviation="7.45"/>
<feComposite in2="hardAlpha" operator="out"/>
<feColorMatrix type="matrix" values="0 0 0 0 0.266667 0 0 0 0 0.458824 0 0 0 0 0.952941 0 0 0 0.4 0"/>
<feBlend mode="normal" in2="BackgroundImageFix" result="effect1_dropShadow_350_16940"/>
<feBlend mode="normal" in="SourceGraphic" in2="effect1_dropShadow_350_16940" result="shape"/>
</filter>
<filter id="filter4_d_350_16940" x="89.1039" y="77.0609" width="41.8508" height="43.0217" filterUnits="userSpaceOnUse" color-interpolation-filters="sRGB">
<feFlood flood-opacity="0" result="BackgroundImageFix"/>
<feColorMatrix in="SourceAlpha" type="matrix" values="0 0 0 0 0 0 0 0 0 0 0 0 0 0 0 0 0 0 127 0" result="hardAlpha"/>
<feOffset/>
<feGaussianBlur stdDeviation="7.45"/>
<feComposite in2="hardAlpha" operator="out"/>
<feColorMatrix type="matrix" values="0 0 0 0 0.266667 0 0 0 0 0.458824 0 0 0 0 0.952941 0 0 0 0.4 0"/>
<feBlend mode="normal" in2="BackgroundImageFix" result="effect1_dropShadow_350_16940"/>
<feBlend mode="normal" in="SourceGraphic" in2="effect1_dropShadow_350_16940" result="shape"/>
</filter>
<filter id="filter5_d_350_16940" x="89.0844" y="67.0863" width="41.968" height="40.8654" filterUnits="userSpaceOnUse" color-interpolation-filters="sRGB">
<feFlood flood-opacity="0" result="BackgroundImageFix"/>
<feColorMatrix in="SourceAlpha" type="matrix" values="0 0 0 0 0 0 0 0 0 0 0 0 0 0 0 0 0 0 127 0" result="hardAlpha"/>
<feOffset/>
<feGaussianBlur stdDeviation="7.45"/>
<feComposite in2="hardAlpha" operator="out"/>
<feColorMatrix type="matrix" values="0 0 0 0 0.266667 0 0 0 0 0.458824 0 0 0 0 0.952941 0 0 0 0.4 0"/>
<feBlend mode="normal" in2="BackgroundImageFix" result="effect1_dropShadow_350_16940"/>
<feBlend mode="normal" in="SourceGraphic" in2="effect1_dropShadow_350_16940" result="shape"/>
</filter>
<filter id="filter6_d_350_16940" x="89.1039" y="55.973" width="41.132" height="42.697" filterUnits="userSpaceOnUse" color-interpolation-filters="sRGB">
<feFlood flood-opacity="0" result="BackgroundImageFix"/>
<feColorMatrix in="SourceAlpha" type="matrix" values="0 0 0 0 0 0 0 0 0 0 0 0 0 0 0 0 0 0 127 0" result="hardAlpha"/>
<feOffset/>
<feGaussianBlur stdDeviation="7.45"/>
<feComposite in2="hardAlpha" operator="out"/>
<feColorMatrix type="matrix" values="0 0 0 0 0.266667 0 0 0 0 0.458824 0 0 0 0 0.952941 0 0 0 0.4 0"/>
<feBlend mode="normal" in2="BackgroundImageFix" result="effect1_dropShadow_350_16940"/>
<feBlend mode="normal" in="SourceGraphic" in2="effect1_dropShadow_350_16940" result="shape"/>
</filter>
<filter id="filter7_d_350_16940" x="76.8344" y="56.0258" width="41.1516" height="42.5285" filterUnits="userSpaceOnUse" color-interpolation-filters="sRGB">
<feFlood flood-opacity="0" result="BackgroundImageFix"/>
<feColorMatrix in="SourceAlpha" type="matrix" values="0 0 0 0 0 0 0 0 0 0 0 0 0 0 0 0 0 0 127 0" result="hardAlpha"/>
<feOffset/>
<feGaussianBlur stdDeviation="7.45"/>
<feComposite in2="hardAlpha" operator="out"/>
<feColorMatrix type="matrix" values="0 0 0 0 0.266667 0 0 0 0 0.458824 0 0 0 0 0.952941 0 0 0 0.4 0"/>
<feBlend mode="normal" in2="BackgroundImageFix" result="effect1_dropShadow_350_16940"/>
<feBlend mode="normal" in="SourceGraphic" in2="effect1_dropShadow_350_16940" result="shape"/>
</filter>
<filter id="filter8_d_350_16940" x="99.2914" y="72.7094" width="38.4562" height="46.4289" filterUnits="userSpaceOnUse" color-interpolation-filters="sRGB">
<feFlood flood-opacity="0" result="BackgroundImageFix"/>
<feColorMatrix in="SourceAlpha" type="matrix" values="0 0 0 0 0 0 0 0 0 0 0 0 0 0 0 0 0 0 127 0" result="hardAlpha"/>
<feOffset/>
<feGaussianBlur stdDeviation="7.45"/>
<feComposite in2="hardAlpha" operator="out"/>
<feColorMatrix type="matrix" values="0 0 0 0 0.266667 0 0 0 0 0.458824 0 0 0 0 0.952941 0 0 0 0.4 0"/>
<feBlend mode="normal" in2="BackgroundImageFix" result="effect1_dropShadow_350_16940"/>
<feBlend mode="normal" in="SourceGraphic" in2="effect1_dropShadow_350_16940" result="shape"/>
</filter>
<filter id="filter9_d_350_16940" x="69.3031" y="72.7563" width="38.382" height="46.4104" filterUnits="userSpaceOnUse" color-interpolation-filters="sRGB">
<feFlood flood-opacity="0" result="BackgroundImageFix"/>
<feColorMatrix in="SourceAlpha" type="matrix" values="0 0 0 0 0 0 0 0 0 0 0 0 0 0 0 0 0 0 127 0" result="hardAlpha"/>
<feOffset/>
<feGaussianBlur stdDeviation="7.45"/>
<feComposite in2="hardAlpha" operator="out"/>
<feColorMatrix type="matrix" values="0 0 0 0 0.266667 0 0 0 0 0.458824 0 0 0 0 0.952941 0 0 0 0.4 0"/>
<feBlend mode="normal" in2="BackgroundImageFix" result="effect1_dropShadow_350_16940"/>
<feBlend mode="normal" in="SourceGraphic" in2="effect1_dropShadow_350_16940" result="shape"/>
</filter>
<filter id="filter10_d_350_16940" x="99.6195" y="53.8168" width="41.6594" height="56.467" filterUnits="userSpaceOnUse" color-interpolation-filters="sRGB">
<feFlood flood-opacity="0" result="BackgroundImageFix"/>
<feColorMatrix in="SourceAlpha" type="matrix" values="0 0 0 0 0 0 0 0 0 0 0 0 0 0 0 0 0 0 127 0" result="hardAlpha"/>
<feOffset/>
<feGaussianBlur stdDeviation="7.45"/>
<feComposite in2="hardAlpha" operator="out"/>
<feColorMatrix type="matrix" values="0 0 0 0 0.266667 0 0 0 0 0.458824 0 0 0 0 0.952941 0 0 0 0.4 0"/>
<feBlend mode="normal" in2="BackgroundImageFix" result="effect1_dropShadow_350_16940"/>
<feBlend mode="normal" in="SourceGraphic" in2="effect1_dropShadow_350_16940" result="shape"/>
</filter>
<filter id="filter11_d_350_16940" x="65.8305" y="53.8617" width="41.6281" height="56.3537" filterUnits="userSpaceOnUse" color-interpolation-filters="sRGB">
<feFlood flood-opacity="0" result="BackgroundImageFix"/>
<feColorMatrix in="SourceAlpha" type="matrix" values="0 0 0 0 0 0 0 0 0 0 0 0 0 0 0 0 0 0 127 0" result="hardAlpha"/>
<feOffset/>
<feGaussianBlur stdDeviation="7.45"/>
<feComposite in2="hardAlpha" operator="out"/>
<feColorMatrix type="matrix" values="0 0 0 0 0.266667 0 0 0 0 0.458824 0 0 0 0 0.952941 0 0 0 0.4 0"/>
<feBlend mode="normal" in2="BackgroundImageFix" result="effect1_dropShadow_350_16940"/>
<feBlend mode="normal" in="SourceGraphic" in2="effect1_dropShadow_350_16940" result="shape"/>
</filter>
<filter id="filter12_d_350_16940" x="290.834" y="67.0805" width="42.1906" height="49.4831" filterUnits="userSpaceOnUse" color-interpolation-filters="sRGB">
<feFlood flood-opacity="0" result="BackgroundImageFix"/>
<feColorMatrix in="SourceAlpha" type="matrix" values="0 0 0 0 0 0 0 0 0 0 0 0 0 0 0 0 0 0 127 0" result="hardAlpha"/>
<feOffset/>
<feGaussianBlur stdDeviation="7.45"/>
<feComposite in2="hardAlpha" operator="out"/>
<feColorMatrix type="matrix" values="0 0 0 0 0.266667 0 0 0 0 0.458824 0 0 0 0 0.952941 0 0 0 0.4 0"/>
<feBlend mode="normal" in2="BackgroundImageFix" result="effect1_dropShadow_350_16940"/>
<feBlend mode="normal" in="SourceGraphic" in2="effect1_dropShadow_350_16940" result="shape"/>
</filter>
<filter id="filter13_d_350_16940" x="256.377" y="67.102" width="42.0617" height="49.2609" filterUnits="userSpaceOnUse" color-interpolation-filters="sRGB">
<feFlood flood-opacity="0" result="BackgroundImageFix"/>
<feColorMatrix in="SourceAlpha" type="matrix" values="0 0 0 0 0 0 0 0 0 0 0 0 0 0 0 0 0 0 127 0" result="hardAlpha"/>
<feOffset/>
<feGaussianBlur stdDeviation="7.45"/>
<feComposite in2="hardAlpha" operator="out"/>
<feColorMatrix type="matrix" values="0 0 0 0 0.266667 0 0 0 0 0.458824 0 0 0 0 0.952941 0 0 0 0.4 0"/>
<feBlend mode="normal" in2="BackgroundImageFix" result="effect1_dropShadow_350_16940"/>
<feBlend mode="normal" in="SourceGraphic" in2="effect1_dropShadow_350_16940" result="shape"/>
</filter>
<filter id="filter14_d_350_16940" x="256.858" y="83.473" width="34.882" height="37.0832" filterUnits="userSpaceOnUse" color-interpolation-filters="sRGB">
<feFlood flood-opacity="0" result="BackgroundImageFix"/>
<feColorMatrix in="SourceAlpha" type="matrix" values="0 0 0 0 0 0 0 0 0 0 0 0 0 0 0 0 0 0 127 0" result="hardAlpha"/>
<feOffset/>
<feGaussianBlur stdDeviation="7.45"/>
<feComposite in2="hardAlpha" operator="out"/>
<feColorMatrix type="matrix" values="0 0 0 0 0.266667 0 0 0 0 0.458824 0 0 0 0 0.952941 0 0 0 0.4 0"/>
<feBlend mode="normal" in2="BackgroundImageFix" result="effect1_dropShadow_350_16940"/>
<feBlend mode="normal" in="SourceGraphic" in2="effect1_dropShadow_350_16940" result="shape"/>
</filter>
<filter id="filter15_d_350_16940" x="297.557" y="83.4965" width="34.882" height="37.0832" filterUnits="userSpaceOnUse" color-interpolation-filters="sRGB">
<feFlood flood-opacity="0" result="BackgroundImageFix"/>
<feColorMatrix in="SourceAlpha" type="matrix" values="0 0 0 0 0 0 0 0 0 0 0 0 0 0 0 0 0 0 127 0" result="hardAlpha"/>
<feOffset/>
<feGaussianBlur stdDeviation="7.45"/>
<feComposite in2="hardAlpha" operator="out"/>
<feColorMatrix type="matrix" values="0 0 0 0 0.266667 0 0 0 0 0.458824 0 0 0 0 0.952941 0 0 0 0.4 0"/>
<feBlend mode="normal" in2="BackgroundImageFix" result="effect1_dropShadow_350_16940"/>
<feBlend mode="normal" in="SourceGraphic" in2="effect1_dropShadow_350_16940" result="shape"/>
</filter>
</defs>
</svg>
