<svg width="403" height="272" viewBox="0 0 403 272" fill="none" xmlns="http://www.w3.org/2000/svg">
<path d="M64.7638 95.84C64.7638 96.343 64.8788 96.846 64.9478 97.4862C65.1087 97.3033 65.1547 97.2575 65.2006 97.1889C66.0512 95.7714 66.7638 94.2625 67.7524 92.9593C69.8443 90.1243 71.3845 87.0378 72.488 83.7227C73.1087 81.8479 73.7524 79.9503 74.3271 78.0527C75.4765 74.2803 76.1891 70.4165 76.511 66.4841C76.6489 64.9065 75.7064 64.152 74.1891 64.6779C70.0742 66.1411 66.0742 66.2097 63.0627 72.6799C61.7524 75.4692 61.4995 76.9096 61.3156 79.9503C61.2236 81.5279 61.7064 84.2714 63.0627 85.9633C64.9248 88.2724 64.6949 92.845 64.7638 95.8629V95.84Z" fill="#4D8AEE"/>
<path d="M130.513 66.462C130.835 70.3944 131.571 74.2354 132.697 78.0306C133.272 79.9283 133.893 81.8259 134.536 83.7006C135.64 87.0158 137.18 90.1251 139.272 92.9373C140.26 94.2633 140.973 95.7494 141.824 97.1669C141.87 97.2355 141.916 97.2812 142.077 97.4641C142.146 96.8239 142.237 96.321 142.26 95.818C142.329 92.8229 142.1 88.2275 143.962 85.9183C145.318 84.2493 145.801 81.4829 145.709 79.9054C145.525 76.8646 145.272 75.4243 143.962 72.635C140.95 66.1648 136.95 66.0962 132.835 64.633C131.341 64.1071 130.398 64.8616 130.513 66.4391V66.462Z" fill="#4D8AEE"/>
</svg>
