<svg width="403" height="272" viewBox="0 0 403 272" fill="none" xmlns="http://www.w3.org/2000/svg">
<path d="M99.9843 131.783C98.674 130.708 95.2027 129.108 93.9384 127.965C90.582 124.924 88.9039 123.986 86.4441 120.168C85.8694 119.3 85.3407 118.408 84.7889 117.539C84.72 117.539 84.651 117.562 84.582 117.585C84.628 118.019 84.651 118.454 84.72 118.888C85.3866 123.003 86.4901 127.004 87.7544 130.96C90.674 140.059 93.0418 149.319 95.1797 158.647C95.5475 160.224 95.8694 161.802 96.1912 163.402C96.3751 163.242 96.4441 163.059 96.4671 162.876C96.743 161.184 97.7315 157.846 97.9843 156.132C99.2717 150.233 99.3407 149.273 99.9613 144.357C100.536 139.51 100.651 138.664 100.651 135.921C100.651 133.383 100.674 132.354 99.9613 131.76L99.9843 131.783Z" fill="#4D8AEE"/>
<path d="M75.8441 161.457C75.8441 161.617 80.2119 178.398 80.2579 178.535C80.3958 177.461 79.1314 161.182 79.2234 156.358C79.3613 149.637 80.1889 143.921 80.8096 137.199C80.9245 136.033 81.0855 134.867 81.2004 133.701C81.4303 131.163 81.7751 128.626 81.8211 126.065C81.8901 122.796 81.7291 119.526 81.6372 116.257C81.6142 115.045 81.4993 113.833 81.4073 112.645H81.1774C81.1314 112.827 81.0855 112.987 81.0395 113.148C80.6257 114.908 80.3039 116.691 79.8211 118.429C78.1199 124.373 76.028 131.324 75.4993 137.428C75.1544 141.475 74.1429 146.322 74.3268 149.888C74.5567 154.118 75.1314 156.701 75.8441 161.434V161.457Z" fill="#4D8AEE"/>
<path d="M131.455 161.457C132.144 156.725 132.742 154.141 132.972 149.912C133.156 146.322 132.167 141.475 131.799 137.451C131.271 131.347 129.179 124.397 127.478 118.452C126.972 116.715 126.65 114.931 126.259 113.171C126.213 113.011 126.167 112.828 126.121 112.668H125.891C125.822 113.88 125.708 115.069 125.662 116.28C125.57 119.55 125.409 122.819 125.478 126.088C125.524 128.626 125.868 131.164 126.098 133.725C126.213 134.891 126.374 136.057 126.489 137.223C127.11 143.922 127.937 149.637 128.075 156.382C128.167 161.206 126.88 177.484 127.041 178.559C127.087 178.399 131.432 161.64 131.455 161.48V161.457Z" fill="#4D8AEE"/>
<path d="M112.073 158.647C114.211 149.341 116.579 140.082 119.498 130.96C120.763 127.004 121.866 122.98 122.533 118.888C122.602 118.454 122.625 118.019 122.671 117.585C122.602 117.585 122.533 117.562 122.464 117.539C121.912 118.408 121.383 119.3 120.809 120.168C118.326 123.964 116.648 124.924 113.314 127.965C112.05 129.108 108.602 130.708 107.268 131.783C106.533 132.377 106.579 133.406 106.579 135.944C106.579 138.687 106.694 139.533 107.268 144.38C107.889 149.296 107.958 150.279 109.245 156.155C109.475 157.846 110.464 161.207 110.763 162.899C110.786 163.082 110.855 163.265 111.038 163.425C111.383 161.847 111.705 160.247 112.05 158.669L112.073 158.647Z" fill="#4D8AEE"/>
<path d="M274.577 133.578C274.509 131.337 274.189 129.12 272.84 127.131C272.2 126.216 271.4 125.439 270.234 125.096C268.84 124.662 268.017 125.005 267.811 126.308C267.445 128.594 267.125 130.903 266.988 133.212C266.805 136.069 266.668 138.95 266.737 141.808C266.828 146.22 266.92 150.632 267.377 155.021C267.925 160.371 268.863 165.697 269.64 171.047C269.708 171.595 269.846 172.121 269.96 172.67L271.148 179.3C271.148 179.437 271.148 179.551 271.148 179.688C271.103 182.386 270.783 185.106 270.714 187.804C270.668 189.153 270.874 190.501 271.057 191.85C271.126 192.422 271.423 192.97 271.606 193.542C271.674 193.542 271.766 193.542 271.834 193.519C271.903 193.405 271.971 193.291 272.017 193.176C273.046 190.844 273.96 188.467 275.149 186.204C277.458 181.791 278.601 177.151 278.806 172.281C278.966 168.441 279.126 164.623 279.309 160.782C279.378 159.616 279.583 158.45 279.675 157.284C279.881 154.335 280.132 151.386 280.223 148.414C280.292 146.723 280.155 145.008 279.995 143.316C279.926 142.425 279.561 142.196 278.601 142.471C278.006 142.653 277.412 142.836 276.818 143.065C275.789 143.408 273.297 144.048 273.274 142.516C274.029 139.59 274.646 136.641 274.532 133.6L274.577 133.578Z" fill="#4D8AEE"/>
<path d="M278.214 192.948C278.534 192.696 278.74 192.559 278.969 192.376C279.586 191.873 280.157 191.302 280.82 190.844C281.46 190.41 281.575 190.159 281.14 189.519C279.997 187.781 279.06 185.929 278.534 183.918C278.511 183.826 278.443 183.735 278.283 183.438C277.574 184.763 276.934 185.952 276.317 187.141C276.066 187.621 276.203 188.033 276.454 188.49C276.957 189.427 277.346 190.41 277.757 191.37C277.94 191.827 278.054 192.33 278.214 192.925V192.948Z" fill="#4D8AEE"/>
<path d="M285.278 111.767C284.981 110.669 284.387 110.327 283.061 110.509C280.295 110.852 277.986 111.995 276.043 113.596C273.117 116.019 271.357 119.037 270.031 122.26C269.665 123.197 269.848 123.586 270.923 124.089C272.66 124.912 273.78 126.146 274.329 127.747C275.129 130.147 275.586 132.593 275.472 135.062C275.38 136.868 275.106 138.674 274.9 140.457C274.694 141.715 275.38 142.195 276.797 141.806C280.409 140.823 283.838 139.497 286.97 137.645C289.827 135.954 292.273 133.965 293.736 131.199C294.513 129.736 294.467 128.547 293.37 127.129C289.69 122.397 286.855 117.299 285.301 111.767H285.278Z" fill="#4D8AEE"/>
<path d="M291.676 137.394C291.676 137.394 291.676 137.189 291.676 137.074C291.608 136.48 290.922 136.228 290.51 136.64C289.367 137.783 287.836 138.4 286.327 138.995C283.813 139.955 282.647 141.784 282.304 144.024C281.893 146.607 281.641 149.213 281.39 151.82C281.093 154.906 280.841 157.992 280.613 161.101C280.43 163.799 280.178 166.519 280.201 169.217C280.201 169.468 280.201 169.72 280.201 169.971L279.104 180.853C278.875 181.539 278.784 182.248 278.944 182.979C279.47 185.654 280.841 188.009 282.761 190.089C283.356 190.752 283.721 191.392 283.698 192.215C283.698 192.786 283.744 193.381 283.767 193.952L283.836 200.125C283.973 200.148 284.11 200.171 284.247 200.193C284.521 199.736 284.75 199.279 285.047 198.822C287.584 192.924 288.042 189.723 289.39 184.602C290.533 180.19 291.516 175.023 291.699 171.709C292.042 165.696 292.088 157.489 292.431 151.477C292.476 150.631 291.699 140.229 291.676 139.383V137.371V137.394Z" fill="#4D8AEE"/>
<path d="M308.503 190.843C309.165 191.3 309.737 191.872 310.354 192.375C310.56 192.558 310.788 192.695 311.108 192.946C311.291 192.352 311.383 191.849 311.566 191.392C311.977 190.409 312.366 189.449 312.869 188.511C313.12 188.031 313.257 187.643 313.006 187.162C312.366 185.974 311.749 184.785 311.04 183.459C310.88 183.756 310.811 183.848 310.788 183.939C310.286 185.951 309.348 187.78 308.183 189.54C307.748 190.18 307.885 190.432 308.503 190.866V190.843Z" fill="#4D8AEE"/>
<path d="M302.331 137.669C305.439 139.498 308.868 140.847 312.503 141.83C313.92 142.218 314.606 141.738 314.4 140.481C314.194 138.675 313.92 136.892 313.829 135.086C313.714 132.617 314.149 130.17 314.972 127.77C315.52 126.17 316.64 124.935 318.377 124.112C319.452 123.609 319.635 123.221 319.269 122.283C317.966 119.06 316.183 116.042 313.257 113.619C311.291 111.996 309.005 110.876 306.239 110.533C304.914 110.373 304.342 110.693 304.022 111.79C302.468 117.323 299.633 122.421 295.953 127.153C294.856 128.57 294.81 129.782 295.587 131.222C297.05 133.988 299.496 136 302.353 137.669H302.331Z" fill="#4D8AEE"/>
<path d="M305.048 200.215C305.185 200.192 305.322 200.17 305.459 200.147L305.528 193.974C305.551 193.403 305.619 192.808 305.596 192.237C305.596 191.414 305.916 190.774 306.533 190.111C308.454 188.03 309.848 185.676 310.351 183.001C310.488 182.269 310.397 181.561 310.191 180.875L309.094 169.993C309.094 169.719 309.094 169.49 309.094 169.239C309.117 166.541 308.865 163.821 308.682 161.123C308.476 158.037 308.202 154.928 307.905 151.841C307.654 149.235 307.402 146.629 306.991 144.046C306.625 141.783 305.482 139.977 302.967 139.016C301.459 138.445 299.927 137.828 298.784 136.662C298.35 136.227 297.664 136.502 297.618 137.096C297.618 137.21 297.618 137.302 297.618 137.416V139.428C297.618 140.274 296.818 150.676 296.887 151.521C297.23 157.534 297.298 165.741 297.618 171.753C297.801 175.068 298.761 180.235 299.927 184.647C301.253 189.768 301.71 192.968 304.27 198.867C304.568 199.324 304.796 199.781 305.07 200.238L305.048 200.215Z" fill="#4D8AEE"/>
<path d="M312.432 143.042C311.837 142.836 311.243 142.63 310.649 142.447C309.712 142.173 309.346 142.401 309.254 143.293C309.094 144.985 308.98 146.699 309.026 148.391C309.14 151.34 309.369 154.312 309.574 157.261C309.666 158.427 309.872 159.593 309.94 160.759C310.123 164.577 310.283 168.417 310.443 172.258C310.649 177.127 311.792 181.768 314.1 186.18C315.289 188.443 316.181 190.821 317.232 193.153C317.278 193.267 317.346 193.381 317.415 193.496C317.484 193.496 317.575 193.496 317.644 193.519C317.826 192.947 318.124 192.398 318.192 191.827C318.375 190.478 318.558 189.129 318.535 187.78C318.467 185.083 318.146 182.362 318.101 179.665C318.101 179.528 318.101 179.413 318.101 179.276L319.289 172.646C319.404 172.098 319.541 171.572 319.609 171.023C320.387 165.697 321.324 160.37 321.873 154.998C322.33 150.609 322.421 146.196 322.513 141.784C322.581 138.927 322.467 136.046 322.261 133.188C322.101 130.879 321.781 128.571 321.438 126.284C321.232 124.981 320.41 124.638 319.015 125.073C317.849 125.439 317.026 126.193 316.409 127.107C315.061 129.096 314.741 131.291 314.672 133.554C314.58 136.595 315.198 139.544 315.929 142.47C315.906 144.002 313.415 143.362 312.386 143.019L312.432 143.042Z" fill="#4D8AEE"/>
</svg>
