<svg width="403" height="272" viewBox="0 0 403 272" fill="none" xmlns="http://www.w3.org/2000/svg">
<path d="M291.996 48.4196C291.242 46.5907 290.053 45.1962 287.905 44.8761C285.276 44.4875 282.624 44.2589 279.995 44.7161C277.847 45.1047 275.767 45.7448 273.641 46.2706C273.641 46.3621 273.641 46.4764 273.641 46.5678C276.749 47.5051 277.984 49.9513 278.715 52.786C278.99 53.8605 279.195 54.9807 279.447 56.0551C279.973 58.3641 280.453 60.6959 281.778 62.6848C283.904 65.9082 286.122 69.063 288.362 72.195C290.373 75.0069 292.476 77.7502 293.505 81.1108C293.734 81.8195 293.871 82.551 294.077 83.4197C294.145 82.2538 294.237 81.2479 294.237 80.2649C294.168 72.7437 294.054 65.2453 294.031 57.724C294.031 54.4549 293.208 51.3915 291.973 48.4196H291.996Z" fill="#4D8AEE"/>
<path d="M302.603 44.6936C300.637 44.8994 298.946 45.4938 297.917 47.3226C296.751 49.4487 295.928 51.7577 295.677 54.1124C295.288 57.7244 295.174 61.3593 295.128 64.9942C295.037 70.2065 295.105 75.4188 295.128 80.6311C295.128 81.4541 295.22 82.2999 295.243 83.1229C296.02 78.8251 298.557 75.4874 301.049 72.1268C302.603 70.0236 304.135 67.9432 305.643 65.8172C307.221 63.5768 308.615 61.2678 309.301 58.5702C309.804 56.5128 310.238 54.4324 310.764 52.3749C311.312 50.3174 312.227 48.4657 314.124 47.2998C314.627 47.0026 315.176 46.7968 315.701 46.5454C315.701 46.4768 315.701 46.4082 315.701 46.3396C314.055 45.8824 312.432 45.3566 310.764 44.968C308.066 44.3279 305.323 44.4193 302.58 44.6936H302.603Z" fill="#4D8AEE"/>
<path d="M295.197 119.037C295.197 120.752 295.129 122.466 295.129 124.181C295.129 124.386 295.243 124.592 295.312 124.798C295.518 124.684 295.769 124.592 295.883 124.409C296.569 123.403 297.255 122.398 297.849 121.369C299.632 118.26 300.569 114.808 301.712 111.424C302.489 109.092 303.244 106.715 304.638 104.657C305.415 103.469 306.238 102.303 307.724 101.891C308.753 101.594 308.776 101.571 308.707 100.474C308.41 96.3131 307.267 92.381 304.775 89.0433C302.878 86.5058 300.615 84.2654 298.512 81.8879C298.329 81.6821 298.078 81.5678 297.826 81.4306C297.415 81.2249 297.003 81.2935 296.866 81.7507C296.363 83.3281 295.632 84.8826 295.449 86.5058C295.175 88.8833 295.289 91.2837 295.289 93.6841C295.289 98.2106 295.289 102.737 295.289 107.264H295.243C295.243 111.196 295.243 115.128 295.243 119.06L295.197 119.037Z" fill="#4D8AEE"/>
<path d="M294.167 89.5462C294.167 89.5462 294.076 86.963 293.87 85.7285C293.641 84.4483 293.07 83.2138 292.613 81.9793C292.338 81.2477 291.95 81.1334 291.287 81.5449C291.013 81.7049 290.784 81.9335 290.555 82.1622C289.664 83.1452 288.772 84.1282 287.904 85.1112C286.944 86.1857 285.984 87.2602 285.069 88.3575C283.789 89.8892 282.989 91.6723 282.235 93.5012C281.252 95.8787 280.772 98.3477 280.635 100.885C280.612 101.411 280.795 101.685 281.32 101.8C282.349 102.005 283.126 102.6 283.789 103.4C285.595 105.526 286.464 108.109 287.355 110.67C288.224 113.207 289.047 115.745 289.984 118.237C290.83 120.454 291.973 122.558 293.459 124.432C293.573 124.592 293.801 124.661 293.984 124.798C294.076 124.592 294.213 124.409 294.213 124.204C294.213 123.723 294.144 123.243 294.144 122.763C294.144 111.676 294.144 100.611 294.144 89.5234L294.167 89.5462Z" fill="#4D8AEE"/>
<path d="M319.22 68.7662L319.106 66.1372C319.106 65.9772 319.06 65.7943 318.992 65.5657C318.809 64.9484 318.603 64.354 318.397 63.7368C317.254 60.582 315.288 58.0216 312.545 56.0784C311.357 55.2554 310.808 55.5068 310.534 56.9014C310.145 59.0046 309.574 61.0621 308.499 62.8909C307.562 64.4912 306.442 66 305.39 67.5546L303.882 70.0236C302.19 72.6297 300.476 75.213 298.784 77.8192C298.213 78.7107 298.19 79.6252 298.853 80.4939C300.796 83.1458 303.105 85.4547 305.939 87.1693C308.065 88.4495 310.237 88.4038 312.408 87.3293C314.74 86.1634 316.203 84.1745 317.346 81.9113C318.923 78.8022 319.38 75.4416 319.403 71.4867C319.38 70.9152 319.312 69.8178 319.243 68.7434L319.22 68.7662Z" fill="#4D8AEE"/>
<path d="M290.077 81.156C291.289 79.6472 291.38 79.0299 290.352 77.4068C288.797 74.9607 287.151 72.5603 285.574 70.137L284.34 68.0338H284.248C284.18 67.8738 284.088 67.6909 283.951 67.508C283.151 66.3878 282.305 65.3133 281.574 64.1474C280.111 61.8385 279.242 59.3009 278.785 56.6262C278.602 55.6203 278.076 55.3688 277.185 55.8946C276.819 56.1004 276.453 56.3747 276.111 56.6262C273.253 58.9123 271.424 61.8842 270.419 65.3819C270.327 65.6791 270.282 65.9077 270.282 66.1135L270.167 68.7882C270.099 69.8398 270.03 70.8914 269.984 71.943C270.03 72.9489 270.076 73.9319 270.144 74.9378C270.442 78.4584 271.562 81.6818 273.665 84.5166C274.968 86.254 276.659 87.4428 278.785 87.9914C280.842 88.5172 282.648 87.7857 284.34 86.6655C286.58 85.1567 288.409 83.2135 290.1 81.1331L290.077 81.156Z" fill="#4D8AEE"/>
<g filter="url(#filter0_d_350_16940)">
<path d="M318.124 82.0262C318.124 82.0262 317.987 81.9805 317.918 81.9805C317.827 82.1862 317.735 82.4148 317.598 82.6206C316.912 83.8322 316.272 85.0896 315.495 86.2326C314.695 87.4214 313.712 88.473 312.249 88.8388C310.26 89.3646 308.317 89.2045 306.42 88.4273C306.26 88.3587 306.077 88.313 305.734 88.2215C308.066 92.4737 309.232 96.9087 310.1 101.664C310.603 101.321 310.969 101.138 311.266 100.864C312.729 99.5377 313.758 97.8917 314.604 96.1314C316.432 92.3365 317.301 88.2901 317.872 84.1523C317.964 83.4436 318.032 82.7349 318.124 82.0262Z" fill="#4D8AEE"/>
</g>
<g filter="url(#filter1_d_350_16940)">
<path d="M283.517 88.2201C283.288 88.2659 283.22 88.2659 283.128 88.3116C281.78 88.906 280.385 89.1574 278.922 89.0889C277.345 88.9974 275.768 88.7231 274.762 87.3514C273.711 85.934 272.796 84.4024 271.836 82.9164C271.653 82.6421 271.585 82.2991 271.448 82.002C271.402 82.002 271.333 82.0248 271.288 82.0477C271.288 82.162 271.265 82.2763 271.288 82.3677C271.836 85.7969 272.202 89.226 273.368 92.5409C274.213 95.0099 275.219 97.3645 276.797 99.422C277.254 100.039 277.825 100.588 278.419 101.091C279.082 101.685 279.311 101.571 279.471 100.725C279.471 100.657 279.471 100.588 279.494 100.519C280.111 97.1131 280.98 93.7982 282.42 90.6434C282.763 89.8661 283.128 89.0889 283.54 88.243L283.517 88.2201Z" fill="#4D8AEE"/>
</g>
<defs>
<filter id="filter0_d_350_16940" x="290.834" y="67.0805" width="42.1906" height="49.4831" filterUnits="userSpaceOnUse" color-interpolation-filters="sRGB">
<feFlood flood-opacity="0" result="BackgroundImageFix"/>
<feColorMatrix in="SourceAlpha" type="matrix" values="0 0 0 0 0 0 0 0 0 0 0 0 0 0 0 0 0 0 127 0" result="hardAlpha"/>
<feOffset/>
<feGaussianBlur stdDeviation="7.45"/>
<feComposite in2="hardAlpha" operator="out"/>
<feColorMatrix type="matrix" values="0 0 0 0 0.266667 0 0 0 0 0.458824 0 0 0 0 0.952941 0 0 0 0.4 0"/>
<feBlend mode="normal" in2="BackgroundImageFix" result="effect1_dropShadow_350_16940"/>
<feBlend mode="normal" in="SourceGraphic" in2="effect1_dropShadow_350_16940" result="shape"/>
</filter>
<filter id="filter1_d_350_16940" x="256.377" y="67.102" width="42.0617" height="49.2609" filterUnits="userSpaceOnUse" color-interpolation-filters="sRGB">
<feFlood flood-opacity="0" result="BackgroundImageFix"/>
<feColorMatrix in="SourceAlpha" type="matrix" values="0 0 0 0 0 0 0 0 0 0 0 0 0 0 0 0 0 0 127 0" result="hardAlpha"/>
<feOffset/>
<feGaussianBlur stdDeviation="7.45"/>
<feComposite in2="hardAlpha" operator="out"/>
<feColorMatrix type="matrix" values="0 0 0 0 0.266667 0 0 0 0 0.458824 0 0 0 0 0.952941 0 0 0 0.4 0"/>
<feBlend mode="normal" in2="BackgroundImageFix" result="effect1_dropShadow_350_16940"/>
<feBlend mode="normal" in="SourceGraphic" in2="effect1_dropShadow_350_16940" result="shape"/>
</filter>
</defs>
</svg>
