<svg width="403" height="272" viewBox="0 0 403 272" fill="none" xmlns="http://www.w3.org/2000/svg">
<path d="M91.6389 203.366C91.6159 203.229 91.5239 198.954 91.409 198.633C91.294 198.976 90.6274 201.423 90.5814 201.606C90.4205 202.337 90.2596 203.046 90.0986 203.778C89.2251 207.641 88.3285 211.482 87.5009 215.346C87.0642 217.404 86.5354 219.439 86.3285 221.519C86.0067 224.811 85.8228 228.127 85.7308 231.442C85.6389 234.894 85.9837 238.301 86.9262 241.639C87.363 243.193 87.7998 244.748 88.2366 246.303C88.1216 246.257 88.0757 246.211 88.0297 246.12C87.6619 245.091 87.2481 244.062 86.9032 242.987C85.294 237.843 84.8343 232.539 84.7653 227.189C84.6963 221.291 84.4205 215.415 83.9837 209.539C83.7768 206.795 83.6619 204.052 83.6389 201.286C83.6159 198.062 84.0527 194.861 84.6044 191.66C84.7883 190.586 84.9262 189.488 85.1101 188.322C84.9262 188.391 84.8573 188.391 84.8343 188.437C84.6274 188.734 84.3975 189.008 84.1906 189.305C80.4205 194.564 78.2366 200.485 77.455 206.887C76.9262 211.185 76.7653 216.901 77.455 221.199C78.4435 227.372 78.6963 230.413 80.6734 236.334C81.432 238.552 83.386 242.324 84.8803 244.176C86.3055 245.937 87.7078 247.697 89.1331 249.458C89.317 249.663 89.5239 249.869 89.8458 250.189C89.9147 249.778 90.0067 249.549 89.9837 249.321C89.6389 247.24 89.455 245.091 88.8343 243.079C88.0757 240.701 87.9837 237.249 88.4894 234.78C89.7308 228.652 91.5929 226.115 92.9032 220.01C93.478 217.312 93.6159 213.563 93.0182 210.774C92.4435 208.122 92.1216 205.927 91.6159 203.275L91.6389 203.366Z" fill="#4D8AEE"/>
<path d="M118.143 249.549C119.568 247.789 120.971 246.029 122.396 244.268C123.89 242.393 125.844 238.644 126.603 236.426C128.603 230.505 128.856 227.464 129.821 221.291C130.511 216.993 130.35 211.277 129.821 206.979C129.04 200.577 126.856 194.656 123.085 189.397C122.879 189.1 122.672 188.803 122.442 188.528C122.442 188.506 122.373 188.506 122.166 188.414C122.35 189.603 122.488 190.677 122.672 191.752C123.223 194.93 123.66 198.131 123.637 201.377C123.637 204.121 123.499 206.887 123.292 209.631C122.856 215.507 122.557 221.382 122.511 227.281C122.465 232.608 121.982 237.935 120.373 243.079C120.051 244.131 119.637 245.16 119.246 246.211C119.223 246.28 119.177 246.349 119.04 246.394C119.476 244.84 119.913 243.285 120.35 241.73C121.315 238.392 121.637 234.986 121.545 231.533C121.453 228.218 121.269 224.903 120.948 221.611C120.741 219.53 120.212 217.473 119.775 215.438C118.925 211.574 118.051 207.733 117.177 203.869C117.017 203.138 116.856 202.429 116.695 201.697C116.649 201.515 115.982 199.068 115.867 198.725C115.752 199.045 115.66 203.321 115.637 203.458C115.131 206.11 114.81 208.328 114.235 210.957C113.637 213.746 113.775 217.496 114.35 220.193C115.637 226.321 117.522 228.836 118.764 234.963C119.269 237.409 119.177 240.862 118.419 243.262C117.798 245.274 117.614 247.423 117.269 249.504C117.223 249.71 117.338 249.961 117.407 250.373C117.729 250.03 117.936 249.847 118.12 249.641L118.143 249.549Z" fill="#4D8AEE"/>
<path d="M275.332 189.426C275.081 189.426 274.761 189.746 274.647 190.02C273.938 191.346 272.818 192.786 272.155 194.135C270.578 197.404 269.686 198.867 268.52 202.937C267.858 205.223 267.057 207.395 266.829 209.521C266.692 210.847 266.715 213.567 266.829 214.619C267.057 217.133 268.84 218.482 271.241 219.122C273.069 219.602 274.304 218.871 274.441 217.065C274.601 214.939 274.555 212.79 274.761 210.664C275.104 207.143 275.492 203.645 275.972 200.148C276.315 197.656 276.795 195.187 276.795 192.649C276.795 191.689 276.521 190.82 276.064 190.02C275.927 189.769 275.584 189.449 275.355 189.449L275.332 189.426Z" fill="#4D8AEE"/>
<path d="M282.646 199.28C282.646 198.092 282.692 196.08 282.76 194.891C282.806 194.045 282.806 193.199 282.76 192.353C282.76 191.851 282.372 191.622 281.823 191.851C281.206 192.102 280.543 192.376 280.063 192.765C278.783 193.794 278.097 195.165 277.708 196.583C276.657 200.423 276.177 204.333 275.834 208.265C275.765 210.368 275.605 212.494 275.605 214.597C275.605 216.838 275.925 219.055 276.726 221.227C277.343 222.896 278.326 224.382 280.132 225.388C280.909 225.822 281.64 225.799 282.303 225.296C282.692 224.999 283.675 223.719 283.903 223.353C285.023 221.41 285.503 219.787 285.641 218.324C285.983 215.169 285.641 212.22 284.68 209.133C283.446 205.133 282.623 203.784 282.646 199.28Z" fill="#4D8AEE"/>
<path d="M277.938 224.998C276.933 224.106 276.361 222.963 275.95 221.729C275.858 221.409 275.767 221.226 275.31 221.272C274.601 221.34 273.87 221.34 273.161 221.226C272.361 221.112 271.607 220.837 270.669 220.586C271.035 222.163 271.355 223.581 271.698 225.021C272.041 226.484 272.384 227.947 272.704 229.41C273.024 230.85 273.321 232.291 273.595 233.754C273.87 235.194 274.098 236.634 274.35 238.097C274.167 238.029 274.144 237.96 274.121 237.869C272.978 232.245 271.607 226.667 269.938 221.135C269.526 219.786 268.223 218.597 267.172 217.408C267.172 219.603 267.995 221.683 268.612 223.604C270.372 228.999 271.652 234.508 272.932 240.018C273.504 242.464 273.732 244.864 273.252 247.333C273.001 248.659 272.887 250.008 272.727 251.357C272.704 251.608 272.772 251.86 272.772 252.088H272.978C273.024 251.837 273.092 251.585 273.138 251.311C273.412 249.802 273.915 248.385 274.99 247.196C276.475 245.573 278.944 245.093 280.704 246.099C280.979 246.259 281.253 246.465 281.664 246.762C281.573 246.327 281.55 246.03 281.459 245.756C281.23 245.001 280.956 244.27 280.727 243.515C280.247 241.847 280.179 239.172 280.544 237.434C281.276 234.074 281.596 231.719 282.35 228.359C282.579 227.353 282.807 226.324 283.059 225.181C281.002 226.85 279.813 226.781 277.893 225.067L277.938 224.998Z" fill="#4D8AEE"/>
<path d="M314.558 210.64C314.764 212.766 314.718 214.915 314.878 217.041C315.016 218.824 316.273 219.579 318.079 219.099C320.479 218.459 322.262 217.133 322.491 214.595C322.582 213.544 322.628 210.823 322.491 209.497C322.262 207.371 321.439 205.199 320.799 202.913C319.633 198.867 318.742 197.381 317.164 194.112C316.524 192.763 315.381 191.323 314.673 189.997C314.536 189.745 314.216 189.425 313.987 189.402C313.758 189.402 313.416 189.722 313.278 189.974C312.798 190.774 312.547 191.643 312.547 192.603C312.547 195.14 313.027 197.609 313.37 200.101C313.85 203.599 314.261 207.12 314.581 210.617L314.558 210.64Z" fill="#4D8AEE"/>
<path d="M307.014 225.296C307.654 225.822 308.408 225.822 309.186 225.388C310.991 224.382 311.974 222.896 312.592 221.227C313.392 219.055 313.712 216.838 313.712 214.597C313.712 212.494 313.574 210.368 313.483 208.265C313.14 204.333 312.66 200.401 311.609 196.583C311.22 195.165 310.534 193.794 309.254 192.765C308.774 192.376 308.111 192.125 307.494 191.851C306.945 191.622 306.557 191.851 306.557 192.353C306.511 193.199 306.511 194.045 306.557 194.891C306.625 196.08 306.671 198.092 306.671 199.28C306.671 203.784 305.871 205.133 304.637 209.133C303.677 212.22 303.334 215.192 303.677 218.324C303.837 219.764 304.317 221.41 305.414 223.353C305.642 223.742 306.625 224.999 307.014 225.296Z" fill="#4D8AEE"/>
<path d="M308.709 237.389C309.074 239.127 309.006 241.825 308.526 243.471C308.297 244.225 308.023 244.956 307.794 245.711C307.703 245.985 307.68 246.26 307.589 246.717C308.023 246.42 308.274 246.214 308.549 246.054C310.286 245.048 312.778 245.528 314.263 247.151C315.338 248.34 315.841 249.757 316.115 251.266C316.161 251.518 316.229 251.792 316.275 252.043C316.344 252.043 316.412 252.043 316.481 252.043C316.481 251.792 316.572 251.54 316.526 251.312C316.366 249.963 316.252 248.614 316.001 247.288C315.521 244.819 315.749 242.419 316.321 239.973C317.601 234.463 318.904 228.954 320.641 223.559C321.258 221.638 322.104 219.558 322.081 217.363C321.03 218.552 319.704 219.741 319.315 221.09C317.646 226.599 316.275 232.177 315.132 237.824C315.132 237.915 315.086 238.007 314.903 238.052C315.155 236.612 315.383 235.149 315.658 233.709C315.932 232.269 316.252 230.806 316.549 229.365C316.869 227.902 317.212 226.439 317.555 224.976C317.875 223.536 318.218 222.118 318.584 220.541C317.646 220.792 316.869 221.067 316.092 221.181C315.383 221.295 314.652 221.295 313.943 221.227C313.486 221.181 313.395 221.387 313.303 221.684C312.915 222.918 312.32 224.039 311.315 224.953C309.394 226.691 308.206 226.736 306.148 225.067C306.4 226.21 306.628 227.239 306.857 228.245C307.611 231.606 307.931 233.96 308.663 237.321L308.709 237.389Z" fill="#4D8AEE"/>
</svg>
