<svg width="403" height="272" viewBox="0 0 403 272" fill="none" xmlns="http://www.w3.org/2000/svg">
<path d="M111.384 71.127C113.867 71.5157 116.304 71.3099 118.603 70.4183C121.683 69.2065 124.304 67.2632 126.695 65.0226C127.132 64.6111 127.269 64.0852 127.086 63.5365C126.81 62.7135 126.557 61.8447 126.143 61.0902C124.327 57.9123 122.58 54.6886 121.269 51.2592C120.626 49.5444 118.12 47.4868 116.212 48.0583C113.637 48.8357 111.086 49.7502 108.557 50.6876C106.097 51.6021 104.787 53.4997 104.603 56.0375C104.419 58.4152 104.327 60.8158 104.419 63.2165C104.58 66.8059 107.591 70.5326 111.384 71.1499V71.127Z" fill="#4D8AEE"/>
<path d="M102.121 56.0379C101.937 53.4773 100.626 51.6025 98.1667 50.688C95.638 49.7506 93.0862 48.8361 90.5115 48.0588C88.5805 47.4643 86.0977 49.5449 85.454 51.2596C84.1437 54.689 82.3736 57.8898 80.5805 61.0906C80.1437 61.8451 79.9138 62.7139 79.638 63.537C79.454 64.0857 79.592 64.6115 80.0288 65.0231C82.4196 67.2636 85.0403 69.2298 88.1207 70.4187C90.4426 71.3332 92.8563 71.539 95.3391 71.1274C99.1322 70.533 102.144 66.7835 102.305 63.194C102.397 60.8163 102.305 58.4157 102.121 56.0151V56.0379Z" fill="#4D8AEE"/>
</svg>
