<svg width="403" height="272" viewBox="0 0 403 272" fill="none" xmlns="http://www.w3.org/2000/svg">
<path d="M97.1081 34.9801C96.5334 34.7972 95.9816 34.4771 95.246 34.1113L94.7403 35.5974C94.6253 36.8777 94.4874 38.1581 94.4414 39.4384C94.4414 39.8271 94.5793 40.2386 94.7632 40.5815C95.8667 42.5935 97.2 44.4682 98.8092 46.0915C99.6828 46.9603 100.694 47.6919 101.729 48.4006C102.326 48.8122 102.625 48.6293 102.648 47.9205C102.671 47.0289 102.694 46.1144 102.579 45.2227C102.28 42.845 101.43 40.6501 100.556 38.4324C99.8897 36.7406 98.8782 35.5517 97.1311 34.9801H97.1081Z" fill="#4D8AEE"/>
<path d="M104.418 47.9206C104.418 48.5837 104.671 48.7437 105.223 48.4236C105.958 48.0121 106.763 47.6006 107.338 46.9833C108.694 45.4972 109.958 43.9425 111.2 42.365C112.119 41.1761 112.855 39.8729 112.602 38.2496C112.441 37.2894 112.395 36.3063 112.257 35.2089L111.682 34.2715C110.625 34.6373 109.682 35.0488 108.763 35.5518C108.257 35.8262 107.659 36.1462 107.429 36.6035C106.142 39.027 105.085 41.5648 104.625 44.2854C104.418 45.4743 104.418 46.7089 104.418 47.9206Z" fill="#4D8AEE"/>
<path d="M100.582 37.1528C101.755 39.8278 102.697 42.5713 102.95 45.5206C102.95 45.7493 103.019 45.9779 103.134 46.1608C103.226 46.3208 103.387 46.4351 103.525 46.5723C103.663 46.4351 103.847 46.3208 103.916 46.1608C104.031 45.8636 104.1 45.5435 104.123 45.2463C104.375 42.7085 105.134 40.3079 106.123 37.9759C106.306 37.5415 106.49 37.0842 106.651 36.627H100.398C100.467 36.8099 100.513 36.9928 100.582 37.1757V37.1528Z" fill="#4D8AEE"/>
<path d="M112.811 41.3576C111.937 43.3696 110.443 44.9242 108.971 46.5018C108.213 47.3249 107.431 48.1022 106.673 48.9024C106.558 49.0167 106.558 49.2225 106.512 49.3825C106.673 49.4282 106.857 49.5426 106.994 49.5197C107.408 49.4511 107.845 49.3597 108.259 49.2453C110.144 48.7652 112.029 48.2851 113.914 47.805C114.811 47.5763 115.684 47.3477 116.581 47.0962C116.581 47.0962 116.581 47.0962 116.627 47.0962C117.822 46.7533 119.845 47.5992 120.903 48.2622C121.5 46.7533 124.397 45.8616 124.397 45.8616L121.477 44.5813C120.811 44.3069 120.305 44.1012 119.799 43.8726C117.822 42.958 115.845 42.0435 113.891 41.1061C113.454 40.9004 113.04 40.8318 112.811 41.3576Z" fill="#4D8AEE"/>
<path d="M85.7989 48.2404C86.8794 47.5545 88.8794 46.7314 90.0748 47.0744C90.0748 47.0744 90.0748 47.0744 90.1208 47.0744C90.9943 47.3259 91.8909 47.5545 92.7874 47.7831C94.6725 48.2861 96.5576 48.7434 98.4426 49.2235C98.8564 49.3378 99.2702 49.4292 99.707 49.4978C99.8679 49.4978 100.029 49.4064 100.19 49.3607C100.144 49.2006 100.144 48.9948 100.029 48.8805C99.2702 48.0803 98.4886 47.2801 97.73 46.4799C96.2817 44.9024 94.7874 43.3477 93.8909 41.3358C93.661 40.7871 93.2472 40.8785 92.8104 41.0843C90.8334 41.9988 88.8794 42.9362 86.9024 43.8507C86.3966 44.0793 85.8679 44.2851 85.2242 44.5594L82.3047 45.8398C82.3047 45.8398 85.2012 46.7086 85.7989 48.2404Z" fill="#4D8AEE"/>
<path d="M299.31 44.5778L302.556 43.8006C304.568 43.8691 306.602 43.8463 308.637 43.8691C308.728 43.8691 308.842 43.8234 309.117 43.7548C308.819 43.5719 308.659 43.4805 308.499 43.3891C307.265 42.6575 306.008 41.9488 304.796 41.1715C303.242 40.2114 302.51 38.7483 302.419 36.9423C302.35 35.3648 302.19 33.8103 302.122 32.2329C302.03 29.8782 301.345 27.7064 300.156 25.6718C300.042 25.4889 299.904 25.3517 299.767 25.1917C299.699 25.2146 299.607 25.2374 299.539 25.2603C299.813 28.3465 300.065 31.4556 300.339 34.5647C300.293 34.3818 300.225 34.1761 300.202 33.9932C299.79 31.0213 299.402 28.0265 298.967 25.0545C298.922 24.7345 298.693 24.3001 298.419 24.1401C296.156 22.8142 293.847 22.7913 291.492 23.9344C290.784 24.2773 290.578 24.7345 290.532 25.4889C290.372 28.8495 289.915 32.1643 289.046 35.4334C288.955 35.7763 288.795 36.0964 288.681 36.4393C289.481 31.6842 290.007 26.0376 289.572 25.1917C289.389 25.4432 289.184 25.6718 289.046 25.9004C288.155 27.4092 287.584 29.0552 287.424 30.8155C287.218 33.033 287.103 35.2734 286.875 37.5138C286.715 38.9997 286.166 40.3714 284.84 41.2173C283.697 41.9488 282.509 42.6346 281.32 43.3433C281.114 43.4576 280.886 43.5719 280.543 43.7548C280.817 43.8234 280.932 43.892 281.069 43.892C283.217 43.8691 285.366 43.8234 287.515 43.7777L290.327 44.6235C293.207 46.8868 294.373 49.9044 294.716 53.5165C295.218 51.6876 295.561 50.0873 296.133 48.5556C296.727 46.9554 297.893 45.7666 299.333 44.6007L299.31 44.5778Z" fill="#4D8AEE"/>
</svg>
