<svg width="403" height="272" viewBox="0 0 403 272" fill="none" xmlns="http://www.w3.org/2000/svg">
<path d="M91.6389 203.366C91.6159 203.229 91.5239 198.954 91.409 198.633C91.294 198.976 90.6274 201.423 90.5814 201.606C90.4205 202.337 90.2596 203.046 90.0986 203.778C89.2251 207.641 88.3285 211.482 87.5009 215.346C87.0642 217.404 86.5354 219.439 86.3285 221.519C86.0067 224.811 85.8228 228.127 85.7308 231.442C85.6389 234.894 85.9837 238.301 86.9262 241.639C87.363 243.193 87.7998 244.748 88.2366 246.303C88.1216 246.257 88.0757 246.211 88.0297 246.12C87.6619 245.091 87.2481 244.062 86.9032 242.987C85.294 237.843 84.8343 232.539 84.7653 227.189C84.6963 221.291 84.4205 215.415 83.9837 209.539C83.7768 206.795 83.6619 204.052 83.6389 201.286C83.6159 198.062 84.0527 194.861 84.6044 191.66C84.7883 190.586 84.9262 189.488 85.1101 188.322C84.9262 188.391 84.8573 188.391 84.8343 188.437C84.6274 188.734 84.3975 189.008 84.1906 189.305C80.4205 194.564 78.2366 200.485 77.455 206.887C76.9262 211.185 76.7653 216.901 77.455 221.199C78.4435 227.372 78.6963 230.413 80.6734 236.334C81.432 238.552 83.386 242.324 84.8803 244.176C86.3055 245.937 87.7078 247.697 89.1331 249.458C89.317 249.663 89.5239 249.869 89.8458 250.189C89.9147 249.778 90.0067 249.549 89.9837 249.321C89.6389 247.24 89.455 245.091 88.8343 243.079C88.0757 240.701 87.9837 237.249 88.4894 234.78C89.7308 228.652 91.5929 226.115 92.9032 220.01C93.478 217.312 93.6159 213.563 93.0182 210.774C92.4435 208.122 92.1216 205.927 91.6159 203.275L91.6389 203.366Z" fill="#4D8AEE"/>
<path d="M88.6952 182.355C88.3734 182.973 88.0056 183.59 87.7987 184.253C87.0631 186.585 86.3274 188.894 85.7297 191.249C84.9711 194.107 84.4884 197.033 84.5573 200.006C84.6263 203.206 84.6952 206.407 84.8332 209.608C84.9481 212.283 85.178 214.958 85.3849 217.656C85.3849 217.953 85.5228 218.227 85.5918 218.525C85.6608 218.525 85.7297 218.525 85.7757 218.525C85.8677 218.227 85.9826 217.953 86.0286 217.656C86.8792 213.723 87.7067 209.791 88.6033 205.881C89.0401 203.915 89.5918 201.949 90.0975 199.983C90.3734 198.885 90.7182 197.811 90.8792 196.691C91.2929 193.673 91.0401 190.655 90.7182 187.637C90.5343 185.899 90.0975 184.184 89.7527 182.47C89.7067 182.241 89.4769 181.99 89.27 181.921C89.132 181.875 88.8332 182.15 88.7412 182.333L88.6952 182.355Z" fill="#4D8AEE"/>
<path d="M93.7529 158.212C93.7069 158.417 93.661 158.646 93.638 158.852C93.4311 161.138 93.2702 163.447 93.0403 165.734C92.8564 167.471 92.7184 169.209 92.3736 170.901C91.7759 173.896 91.0403 176.845 90.3966 179.817C90.3276 180.114 90.3046 180.457 90.3966 180.755C91.7529 184.916 91.9828 189.214 91.9368 193.535C91.9368 194.358 91.8908 195.158 91.8679 195.981C91.9368 195.981 91.9828 195.981 92.0518 195.981C94.5575 190.174 95.8679 184.093 96.1667 177.805C96.4885 171.152 95.8679 164.59 94.0288 158.166H93.7529V158.212Z" fill="#4D8AEE"/>
<path d="M92.1206 158.143C92.1665 155.308 92.0746 152.473 91.4539 149.73C90.4654 145.432 89.27 141.202 88.2125 136.927C86.7872 131.188 85.4309 125.427 84.0286 119.688C83.8677 118.979 83.6608 118.293 83.4309 117.607C83.3849 117.447 83.155 117.356 83.0171 117.219C82.9252 117.379 82.7872 117.539 82.7413 117.699C82.6953 117.836 82.6953 118.019 82.6953 118.179C82.6953 119.962 82.7183 121.746 82.6953 123.529C82.6493 125.724 82.6033 127.919 82.4424 130.091C82.2585 132.423 81.8677 134.755 81.6608 137.087C81.224 141.659 80.7872 146.209 80.4654 150.781C80.2585 153.845 80.0516 156.909 80.1436 159.972C80.3045 165.368 80.6953 170.741 80.9711 176.136C81.1091 178.857 81.201 181.601 81.27 184.321C81.316 186.585 81.293 188.825 81.316 191.249C81.5229 191.02 81.6608 190.906 81.7527 190.769C83.247 188.574 84.8102 186.402 86.2355 184.138C87.5688 182.012 88.7872 179.817 89.5458 177.394C90.9481 172.936 91.4309 168.294 91.9137 163.676C92.0976 161.847 92.1206 159.972 92.1435 158.12L92.1206 158.143Z" fill="#4D8AEE"/>
<path d="M99.9843 131.783C98.674 130.708 95.2027 129.108 93.9384 127.965C90.582 124.924 88.9039 123.986 86.4441 120.168C85.8694 119.3 85.3407 118.408 84.7889 117.539C84.72 117.539 84.651 117.562 84.582 117.585C84.628 118.019 84.651 118.454 84.72 118.888C85.3866 123.003 86.4901 127.004 87.7544 130.96C90.674 140.059 93.0418 149.319 95.1797 158.647C95.5475 160.224 95.8694 161.802 96.1912 163.402C96.3751 163.242 96.4441 163.059 96.4671 162.876C96.743 161.184 97.7315 157.846 97.9843 156.132C99.2717 150.233 99.3407 149.273 99.9613 144.357C100.536 139.51 100.651 138.664 100.651 135.921C100.651 133.383 100.674 132.354 99.9613 131.76L99.9843 131.783Z" fill="#4D8AEE"/>
<path d="M75.8441 161.457C75.8441 161.617 80.2119 178.398 80.2579 178.535C80.3958 177.461 79.1314 161.182 79.2234 156.358C79.3613 149.637 80.1889 143.921 80.8096 137.199C80.9245 136.033 81.0855 134.867 81.2004 133.701C81.4303 131.163 81.7751 128.626 81.8211 126.065C81.8901 122.796 81.7291 119.526 81.6372 116.257C81.6142 115.045 81.4993 113.833 81.4073 112.645H81.1774C81.1314 112.827 81.0855 112.987 81.0395 113.148C80.6257 114.908 80.3039 116.691 79.8211 118.429C78.1199 124.373 76.028 131.324 75.4993 137.428C75.1544 141.475 74.1429 146.322 74.3268 149.888C74.5567 154.118 75.1314 156.701 75.8441 161.434V161.457Z" fill="#4D8AEE"/>
<path d="M118.58 182.354C118.465 182.171 118.166 181.897 118.052 181.943C117.845 182.011 117.615 182.285 117.569 182.491C117.201 184.206 116.787 185.921 116.603 187.658C116.281 190.653 116.029 193.694 116.442 196.712C116.603 197.832 116.948 198.907 117.224 200.004C117.707 201.97 118.258 203.914 118.718 205.903C119.592 209.812 120.419 213.745 121.293 217.677C121.362 217.974 121.477 218.249 121.546 218.546C121.615 218.546 121.684 218.546 121.73 218.546C121.799 218.249 121.914 217.974 121.937 217.677C122.121 215.002 122.35 212.327 122.488 209.63C122.626 206.429 122.695 203.228 122.764 200.027C122.833 197.055 122.327 194.128 121.592 191.271C120.971 188.916 120.235 186.584 119.523 184.275C119.316 183.612 118.971 182.994 118.626 182.377L118.58 182.354Z" fill="#4D8AEE"/>
<path d="M126.007 191.249C126.007 188.825 126.007 186.585 126.053 184.321C126.122 181.601 126.214 178.857 126.352 176.136C126.628 170.741 127.019 165.368 127.18 159.972C127.272 156.909 127.065 153.822 126.858 150.781C126.536 146.209 126.099 141.636 125.663 137.087C125.433 134.755 125.065 132.423 124.881 130.091C124.697 127.919 124.674 125.724 124.628 123.529C124.582 121.746 124.628 119.962 124.628 118.179C124.628 118.019 124.628 117.859 124.582 117.699C124.513 117.516 124.398 117.379 124.306 117.219C124.168 117.333 123.938 117.447 123.892 117.607C123.663 118.293 123.479 118.979 123.295 119.688C121.892 125.427 120.536 131.188 119.111 136.927C118.053 141.202 116.858 145.454 115.869 149.73C115.226 152.496 115.157 155.331 115.203 158.143C115.226 159.995 115.249 161.847 115.433 163.699C115.915 168.317 116.398 172.959 117.8 177.417C118.559 179.817 119.778 182.035 121.111 184.161C122.536 186.402 124.099 188.574 125.594 190.792C125.686 190.929 125.823 191.043 126.03 191.272L126.007 191.249Z" fill="#4D8AEE"/>
<path d="M115.407 195.98C115.384 195.157 115.338 194.357 115.338 193.534C115.315 189.213 115.545 184.915 116.879 180.754C116.971 180.479 116.948 180.114 116.879 179.816C116.212 176.844 115.476 173.872 114.902 170.9C114.557 169.208 114.419 167.47 114.235 165.733C114.005 163.447 113.844 161.137 113.637 158.851C113.637 158.645 113.568 158.417 113.522 158.211C113.43 158.211 113.338 158.211 113.246 158.211C111.407 164.635 110.787 171.174 111.108 177.85C111.407 184.16 112.718 190.219 115.223 196.026C115.292 196.026 115.338 196.026 115.407 196.026V195.98Z" fill="#4D8AEE"/>
<path d="M118.143 249.549C119.568 247.789 120.971 246.029 122.396 244.268C123.89 242.393 125.844 238.644 126.603 236.426C128.603 230.505 128.856 227.464 129.821 221.291C130.511 216.993 130.35 211.277 129.821 206.979C129.04 200.577 126.856 194.656 123.085 189.397C122.879 189.1 122.672 188.803 122.442 188.528C122.442 188.506 122.373 188.506 122.166 188.414C122.35 189.603 122.488 190.677 122.672 191.752C123.223 194.93 123.66 198.131 123.637 201.377C123.637 204.121 123.499 206.887 123.292 209.631C122.856 215.507 122.557 221.382 122.511 227.281C122.465 232.608 121.982 237.935 120.373 243.079C120.051 244.131 119.637 245.16 119.246 246.211C119.223 246.28 119.177 246.349 119.04 246.394C119.476 244.84 119.913 243.285 120.35 241.73C121.315 238.392 121.637 234.986 121.545 231.533C121.453 228.218 121.269 224.903 120.948 221.611C120.741 219.53 120.212 217.473 119.775 215.438C118.925 211.574 118.051 207.733 117.177 203.869C117.017 203.138 116.856 202.429 116.695 201.697C116.649 201.515 115.982 199.068 115.867 198.725C115.752 199.045 115.66 203.321 115.637 203.458C115.131 206.11 114.81 208.328 114.235 210.957C113.637 213.746 113.775 217.496 114.35 220.193C115.637 226.321 117.522 228.836 118.764 234.963C119.269 237.409 119.177 240.862 118.419 243.262C117.798 245.274 117.614 247.423 117.269 249.504C117.223 249.71 117.338 249.961 117.407 250.373C117.729 250.03 117.936 249.847 118.12 249.641L118.143 249.549Z" fill="#4D8AEE"/>
<path d="M131.455 161.457C132.144 156.725 132.742 154.141 132.972 149.912C133.156 146.322 132.167 141.475 131.799 137.451C131.271 131.347 129.179 124.397 127.478 118.452C126.972 116.715 126.65 114.931 126.259 113.171C126.213 113.011 126.167 112.828 126.121 112.668H125.891C125.822 113.88 125.708 115.069 125.662 116.28C125.57 119.55 125.409 122.819 125.478 126.088C125.524 128.626 125.868 131.164 126.098 133.725C126.213 134.891 126.374 136.057 126.489 137.223C127.11 143.922 127.937 149.637 128.075 156.382C128.167 161.206 126.88 177.484 127.041 178.559C127.087 178.399 131.432 161.64 131.455 161.48V161.457Z" fill="#4D8AEE"/>
<path d="M112.073 158.647C114.211 149.341 116.579 140.082 119.498 130.96C120.763 127.004 121.866 122.98 122.533 118.888C122.602 118.454 122.625 118.019 122.671 117.585C122.602 117.585 122.533 117.562 122.464 117.539C121.912 118.408 121.383 119.3 120.809 120.168C118.326 123.964 116.648 124.924 113.314 127.965C112.05 129.108 108.602 130.708 107.268 131.783C106.533 132.377 106.579 133.406 106.579 135.944C106.579 138.687 106.694 139.533 107.268 144.38C107.889 149.296 107.958 150.279 109.245 156.155C109.475 157.846 110.464 161.207 110.763 162.899C110.786 163.082 110.855 163.265 111.038 163.425C111.383 161.847 111.705 160.247 112.05 158.669L112.073 158.647Z" fill="#4D8AEE"/>
<path d="M274.577 133.578C274.509 131.337 274.189 129.12 272.84 127.131C272.2 126.216 271.4 125.439 270.234 125.096C268.84 124.662 268.017 125.005 267.811 126.308C267.445 128.594 267.125 130.903 266.988 133.212C266.805 136.069 266.668 138.95 266.737 141.808C266.828 146.22 266.92 150.632 267.377 155.021C267.925 160.371 268.863 165.697 269.64 171.047C269.708 171.595 269.846 172.121 269.96 172.67L271.148 179.3C271.148 179.437 271.148 179.551 271.148 179.688C271.103 182.386 270.783 185.106 270.714 187.804C270.668 189.153 270.874 190.501 271.057 191.85C271.126 192.422 271.423 192.97 271.606 193.542C271.674 193.542 271.766 193.542 271.834 193.519C271.903 193.405 271.971 193.291 272.017 193.176C273.046 190.844 273.96 188.467 275.149 186.204C277.458 181.791 278.601 177.151 278.806 172.281C278.966 168.441 279.126 164.623 279.309 160.782C279.378 159.616 279.583 158.45 279.675 157.284C279.881 154.335 280.132 151.386 280.223 148.414C280.292 146.723 280.155 145.008 279.995 143.316C279.926 142.425 279.561 142.196 278.601 142.471C278.006 142.653 277.412 142.836 276.818 143.065C275.789 143.408 273.297 144.048 273.274 142.516C274.029 139.59 274.646 136.641 274.532 133.6L274.577 133.578Z" fill="#4D8AEE"/>
<path d="M278.214 192.948C278.534 192.696 278.74 192.559 278.969 192.376C279.586 191.873 280.157 191.302 280.82 190.844C281.46 190.41 281.575 190.159 281.14 189.519C279.997 187.781 279.06 185.929 278.534 183.918C278.511 183.826 278.443 183.735 278.283 183.438C277.574 184.763 276.934 185.952 276.317 187.141C276.066 187.621 276.203 188.033 276.454 188.49C276.957 189.427 277.346 190.41 277.757 191.37C277.94 191.827 278.054 192.33 278.214 192.925V192.948Z" fill="#4D8AEE"/>
<path d="M275.332 189.426C275.081 189.426 274.761 189.746 274.647 190.02C273.938 191.346 272.818 192.786 272.155 194.135C270.578 197.404 269.686 198.867 268.52 202.937C267.858 205.223 267.057 207.395 266.829 209.521C266.692 210.847 266.715 213.567 266.829 214.619C267.057 217.133 268.84 218.482 271.241 219.122C273.069 219.602 274.304 218.871 274.441 217.065C274.601 214.939 274.555 212.79 274.761 210.664C275.104 207.143 275.492 203.645 275.972 200.148C276.315 197.656 276.795 195.187 276.795 192.649C276.795 191.689 276.521 190.82 276.064 190.02C275.927 189.769 275.584 189.449 275.355 189.449L275.332 189.426Z" fill="#4D8AEE"/>
<path d="M291.676 137.394C291.676 137.394 291.676 137.189 291.676 137.074C291.608 136.48 290.922 136.228 290.51 136.64C289.367 137.783 287.836 138.4 286.327 138.995C283.813 139.955 282.647 141.784 282.304 144.024C281.893 146.607 281.641 149.213 281.39 151.82C281.093 154.906 280.841 157.992 280.613 161.101C280.43 163.799 280.178 166.519 280.201 169.217C280.201 169.468 280.201 169.72 280.201 169.971L279.104 180.853C278.875 181.539 278.784 182.248 278.944 182.979C279.47 185.654 280.841 188.009 282.761 190.089C283.356 190.752 283.721 191.392 283.698 192.215C283.698 192.786 283.744 193.381 283.767 193.952L283.836 200.125C283.973 200.148 284.11 200.171 284.247 200.193C284.521 199.736 284.75 199.279 285.047 198.822C287.584 192.924 288.042 189.723 289.39 184.602C290.533 180.19 291.516 175.023 291.699 171.709C292.042 165.696 292.088 157.489 292.431 151.477C292.476 150.631 291.699 140.229 291.676 139.383V137.371V137.394Z" fill="#4D8AEE"/>
<path d="M282.646 199.28C282.646 198.092 282.692 196.08 282.76 194.891C282.806 194.045 282.806 193.199 282.76 192.353C282.76 191.851 282.372 191.622 281.823 191.851C281.206 192.102 280.543 192.376 280.063 192.765C278.783 193.794 278.097 195.165 277.708 196.583C276.657 200.423 276.177 204.333 275.834 208.265C275.765 210.368 275.605 212.494 275.605 214.597C275.605 216.838 275.925 219.055 276.726 221.227C277.343 222.896 278.326 224.382 280.132 225.388C280.909 225.822 281.64 225.799 282.303 225.296C282.692 224.999 283.675 223.719 283.903 223.353C285.023 221.41 285.503 219.787 285.641 218.324C285.983 215.169 285.641 212.22 284.68 209.133C283.446 205.133 282.623 203.784 282.646 199.28Z" fill="#4D8AEE"/>
<path d="M277.938 224.998C276.933 224.106 276.361 222.963 275.95 221.729C275.858 221.409 275.767 221.226 275.31 221.272C274.601 221.34 273.87 221.34 273.161 221.226C272.361 221.112 271.607 220.837 270.669 220.586C271.035 222.163 271.355 223.581 271.698 225.021C272.041 226.484 272.384 227.947 272.704 229.41C273.024 230.85 273.321 232.291 273.595 233.754C273.87 235.194 274.098 236.634 274.35 238.097C274.167 238.029 274.144 237.96 274.121 237.869C272.978 232.245 271.607 226.667 269.938 221.135C269.526 219.786 268.223 218.597 267.172 217.408C267.172 219.603 267.995 221.683 268.612 223.604C270.372 228.999 271.652 234.508 272.932 240.018C273.504 242.464 273.732 244.864 273.252 247.333C273.001 248.659 272.887 250.008 272.727 251.357C272.704 251.608 272.772 251.86 272.772 252.088H272.978C273.024 251.837 273.092 251.585 273.138 251.311C273.412 249.802 273.915 248.385 274.99 247.196C276.475 245.573 278.944 245.093 280.704 246.099C280.979 246.259 281.253 246.465 281.664 246.762C281.573 246.327 281.55 246.03 281.459 245.756C281.23 245.001 280.956 244.27 280.727 243.515C280.247 241.847 280.179 239.172 280.544 237.434C281.276 234.074 281.596 231.719 282.35 228.359C282.579 227.353 282.807 226.324 283.059 225.181C281.002 226.85 279.813 226.781 277.893 225.067L277.938 224.998Z" fill="#4D8AEE"/>
<path d="M308.503 190.843C309.165 191.3 309.737 191.872 310.354 192.375C310.56 192.558 310.788 192.695 311.108 192.946C311.291 192.352 311.383 191.849 311.566 191.392C311.977 190.409 312.366 189.449 312.869 188.511C313.12 188.031 313.257 187.643 313.006 187.162C312.366 185.974 311.749 184.785 311.04 183.459C310.88 183.756 310.811 183.848 310.788 183.939C310.286 185.951 309.348 187.78 308.183 189.54C307.748 190.18 307.885 190.432 308.503 190.866V190.843Z" fill="#4D8AEE"/>
<path d="M314.558 210.64C314.764 212.766 314.718 214.915 314.878 217.041C315.016 218.824 316.273 219.579 318.079 219.099C320.479 218.459 322.262 217.133 322.491 214.595C322.582 213.544 322.628 210.823 322.491 209.497C322.262 207.371 321.439 205.199 320.799 202.913C319.633 198.867 318.742 197.381 317.164 194.112C316.524 192.763 315.381 191.323 314.673 189.997C314.536 189.745 314.216 189.425 313.987 189.402C313.758 189.402 313.416 189.722 313.278 189.974C312.798 190.774 312.547 191.643 312.547 192.603C312.547 195.14 313.027 197.609 313.37 200.101C313.85 203.599 314.261 207.12 314.581 210.617L314.558 210.64Z" fill="#4D8AEE"/>
<path d="M307.014 225.296C307.654 225.822 308.408 225.822 309.186 225.388C310.991 224.382 311.974 222.896 312.592 221.227C313.392 219.055 313.712 216.838 313.712 214.597C313.712 212.494 313.574 210.368 313.483 208.265C313.14 204.333 312.66 200.401 311.609 196.583C311.22 195.165 310.534 193.794 309.254 192.765C308.774 192.376 308.111 192.125 307.494 191.851C306.945 191.622 306.557 191.851 306.557 192.353C306.511 193.199 306.511 194.045 306.557 194.891C306.625 196.08 306.671 198.092 306.671 199.28C306.671 203.784 305.871 205.133 304.637 209.133C303.677 212.22 303.334 215.192 303.677 218.324C303.837 219.764 304.317 221.41 305.414 223.353C305.642 223.742 306.625 224.999 307.014 225.296Z" fill="#4D8AEE"/>
<path d="M308.709 237.389C309.074 239.127 309.006 241.825 308.526 243.471C308.297 244.225 308.023 244.956 307.794 245.711C307.703 245.985 307.68 246.26 307.589 246.717C308.023 246.42 308.274 246.214 308.549 246.054C310.286 245.048 312.778 245.528 314.263 247.151C315.338 248.34 315.841 249.757 316.115 251.266C316.161 251.518 316.229 251.792 316.275 252.043C316.344 252.043 316.412 252.043 316.481 252.043C316.481 251.792 316.572 251.54 316.526 251.312C316.366 249.963 316.252 248.614 316.001 247.288C315.521 244.819 315.749 242.419 316.321 239.973C317.601 234.463 318.904 228.954 320.641 223.559C321.258 221.638 322.104 219.558 322.081 217.363C321.03 218.552 319.704 219.741 319.315 221.09C317.646 226.599 316.275 232.177 315.132 237.824C315.132 237.915 315.086 238.007 314.903 238.052C315.155 236.612 315.383 235.149 315.658 233.709C315.932 232.269 316.252 230.806 316.549 229.365C316.869 227.902 317.212 226.439 317.555 224.976C317.875 223.536 318.218 222.118 318.584 220.541C317.646 220.792 316.869 221.067 316.092 221.181C315.383 221.295 314.652 221.295 313.943 221.227C313.486 221.181 313.395 221.387 313.303 221.684C312.915 222.918 312.32 224.039 311.315 224.953C309.394 226.691 308.206 226.736 306.148 225.067C306.4 226.21 306.628 227.239 306.857 228.245C307.611 231.606 307.931 233.96 308.663 237.321L308.709 237.389Z" fill="#4D8AEE"/>
<path d="M305.048 200.215C305.185 200.192 305.322 200.17 305.459 200.147L305.528 193.974C305.551 193.403 305.619 192.808 305.596 192.237C305.596 191.414 305.916 190.774 306.533 190.111C308.454 188.03 309.848 185.676 310.351 183.001C310.488 182.269 310.397 181.561 310.191 180.875L309.094 169.993C309.094 169.719 309.094 169.49 309.094 169.239C309.117 166.541 308.865 163.821 308.682 161.123C308.476 158.037 308.202 154.928 307.905 151.841C307.654 149.235 307.402 146.629 306.991 144.046C306.625 141.783 305.482 139.977 302.967 139.016C301.459 138.445 299.927 137.828 298.784 136.662C298.35 136.227 297.664 136.502 297.618 137.096C297.618 137.21 297.618 137.302 297.618 137.416V139.428C297.618 140.274 296.818 150.676 296.887 151.521C297.23 157.534 297.298 165.741 297.618 171.753C297.801 175.068 298.761 180.235 299.927 184.647C301.253 189.768 301.71 192.968 304.27 198.867C304.568 199.324 304.796 199.781 305.07 200.238L305.048 200.215Z" fill="#4D8AEE"/>
<path d="M312.432 143.042C311.837 142.836 311.243 142.63 310.649 142.447C309.712 142.173 309.346 142.401 309.254 143.293C309.094 144.985 308.98 146.699 309.026 148.391C309.14 151.34 309.369 154.312 309.574 157.261C309.666 158.427 309.872 159.593 309.94 160.759C310.123 164.577 310.283 168.417 310.443 172.258C310.649 177.127 311.792 181.768 314.1 186.18C315.289 188.443 316.181 190.821 317.232 193.153C317.278 193.267 317.346 193.381 317.415 193.496C317.484 193.496 317.575 193.496 317.644 193.519C317.826 192.947 318.124 192.398 318.192 191.827C318.375 190.478 318.558 189.129 318.535 187.78C318.467 185.083 318.146 182.362 318.101 179.665C318.101 179.528 318.101 179.413 318.101 179.276L319.289 172.646C319.404 172.098 319.541 171.572 319.609 171.023C320.387 165.697 321.324 160.37 321.873 154.998C322.33 150.609 322.421 146.196 322.513 141.784C322.581 138.927 322.467 136.046 322.261 133.188C322.101 130.879 321.781 128.571 321.438 126.284C321.232 124.981 320.41 124.638 319.015 125.073C317.849 125.439 317.026 126.193 316.409 127.107C315.061 129.096 314.741 131.291 314.672 133.554C314.58 136.595 315.198 139.544 315.929 142.47C315.906 144.002 313.415 143.362 312.386 143.019L312.432 143.042Z" fill="#4D8AEE"/>
</svg>
