<svg width="403" height="150" viewBox="0 0 403 150" fill="none" xmlns="http://www.w3.org/2000/svg">
<rect width="403" height="150" rx="14" fill="white"/>
<rect x="0.5" y="0.5" width="402" height="149" rx="13.5" stroke="#1B1C20" stroke-opacity="0.11"/>
<path d="M210.627 54.6425H215.802C216.488 54.6425 217.146 54.915 217.631 55.4002C218.116 55.8854 218.389 56.5435 218.389 57.2296V75.3396C218.389 76.0258 218.116 76.6838 217.631 77.169C217.146 77.6542 216.488 77.9268 215.802 77.9268H187.343C186.657 77.9268 185.999 77.6542 185.514 77.169C185.028 76.6838 184.756 76.0258 184.756 75.3396V57.2296C184.756 56.5435 185.028 55.8854 185.514 55.4002C185.999 54.915 186.657 54.6425 187.343 54.6425H192.517" stroke="#EBEEF7" stroke-width="2" stroke-linecap="round" stroke-linejoin="round"/>
<path d="M201.666 44.2939V62.4039" stroke="#EBEEF7" stroke-width="2" stroke-linecap="round" stroke-linejoin="round"/>
<path d="M196.541 57.2305L201.715 62.4048L206.89 57.2305" stroke="#EBEEF7" stroke-width="2" stroke-linecap="round" stroke-linejoin="round"/>
<path opacity="0.6" d="M122.431 108.21C121.731 108.21 121.122 108.107 120.604 107.902C120.086 107.697 119.652 107.431 119.302 107.104C118.957 106.773 118.693 106.42 118.511 106.047L119.785 105.221C119.897 105.496 120.065 105.755 120.289 105.998C120.518 106.241 120.812 106.439 121.171 106.593C121.535 106.742 121.976 106.817 122.494 106.817C123.012 106.817 123.439 106.74 123.775 106.586C124.111 106.427 124.361 106.217 124.524 105.956C124.692 105.69 124.776 105.391 124.776 105.06C124.776 104.673 124.673 104.374 124.468 104.164C124.267 103.949 123.999 103.8 123.663 103.716C123.327 103.627 122.963 103.576 122.571 103.562C122.244 103.553 122.009 103.546 121.864 103.541C121.719 103.532 121.621 103.527 121.57 103.527C121.523 103.527 121.479 103.527 121.437 103.527V102.141C121.488 102.141 121.577 102.141 121.703 102.141C121.834 102.141 121.969 102.141 122.109 102.141C122.249 102.136 122.363 102.132 122.452 102.127C123.031 102.099 123.497 101.957 123.852 101.7C124.211 101.443 124.391 101.079 124.391 100.608C124.391 100.137 124.216 99.7657 123.866 99.495C123.521 99.2243 123.066 99.089 122.501 99.089C121.964 99.089 121.502 99.2127 121.115 99.46C120.728 99.7027 120.429 100.004 120.219 100.363L119.141 99.348C119.477 98.8813 119.937 98.4917 120.52 98.179C121.103 97.8663 121.778 97.71 122.543 97.71C122.977 97.71 123.397 97.7683 123.803 97.885C124.209 97.997 124.573 98.1697 124.895 98.403C125.217 98.6363 125.471 98.9327 125.658 99.292C125.849 99.6467 125.945 100.069 125.945 100.559C125.945 101.049 125.845 101.492 125.644 101.889C125.448 102.286 125.184 102.601 124.853 102.834C125.315 103.007 125.677 103.28 125.938 103.653C126.199 104.022 126.33 104.493 126.33 105.067C126.33 105.711 126.16 106.269 125.819 106.74C125.483 107.207 125.021 107.568 124.433 107.825C123.85 108.082 123.182 108.21 122.431 108.21ZM129.961 108.21C129.401 108.21 128.932 108.107 128.554 107.902C128.176 107.692 127.889 107.417 127.693 107.076C127.501 106.731 127.406 106.353 127.406 105.942C127.406 105.559 127.473 105.223 127.609 104.934C127.744 104.645 127.945 104.4 128.211 104.199C128.477 103.994 128.803 103.828 129.191 103.702C129.527 103.604 129.907 103.518 130.332 103.443C130.756 103.368 131.202 103.298 131.669 103.233C132.14 103.168 132.607 103.102 133.069 103.037L132.537 103.331C132.546 102.738 132.42 102.3 132.159 102.015C131.902 101.726 131.459 101.581 130.829 101.581C130.432 101.581 130.068 101.674 129.737 101.861C129.405 102.043 129.174 102.346 129.044 102.771L127.679 102.351C127.865 101.702 128.22 101.187 128.743 100.804C129.27 100.421 129.97 100.23 130.843 100.23C131.519 100.23 132.107 100.347 132.607 100.58C133.111 100.809 133.479 101.173 133.713 101.672C133.834 101.919 133.909 102.181 133.937 102.456C133.965 102.731 133.979 103.028 133.979 103.345V108H132.684V106.271L132.936 106.495C132.623 107.074 132.224 107.505 131.739 107.79C131.258 108.07 130.665 108.21 129.961 108.21ZM130.22 107.013C130.635 107.013 130.992 106.941 131.291 106.796C131.589 106.647 131.83 106.458 132.012 106.229C132.194 106 132.313 105.762 132.369 105.515C132.448 105.291 132.492 105.039 132.502 104.759C132.516 104.479 132.523 104.255 132.523 104.087L132.999 104.262C132.537 104.332 132.117 104.395 131.739 104.451C131.361 104.507 131.018 104.563 130.71 104.619C130.406 104.67 130.136 104.733 129.898 104.808C129.697 104.878 129.517 104.962 129.359 105.06C129.205 105.158 129.081 105.277 128.988 105.417C128.899 105.557 128.855 105.727 128.855 105.928C128.855 106.124 128.904 106.306 129.002 106.474C129.1 106.637 129.249 106.768 129.45 106.866C129.65 106.964 129.907 107.013 130.22 107.013ZM135.796 108V100.44H141.116V101.819H137.259V108H135.796ZM145.99 108.21C145.267 108.21 144.66 108.035 144.17 107.685C143.68 107.33 143.309 106.852 143.057 106.25C142.805 105.648 142.679 104.969 142.679 104.213C142.679 103.457 142.803 102.778 143.05 102.176C143.302 101.574 143.671 101.1 144.156 100.755C144.646 100.405 145.248 100.23 145.962 100.23C146.671 100.23 147.283 100.405 147.796 100.755C148.314 101.1 148.713 101.574 148.993 102.176C149.273 102.773 149.413 103.452 149.413 104.213C149.413 104.969 149.273 105.65 148.993 106.257C148.718 106.859 148.323 107.335 147.81 107.685C147.301 108.035 146.695 108.21 145.99 108.21ZM142.434 111.36V100.44H143.736V105.879H143.904V111.36H142.434ZM145.787 106.887C146.254 106.887 146.639 106.768 146.942 106.53C147.25 106.292 147.479 105.972 147.628 105.571C147.782 105.165 147.859 104.712 147.859 104.213C147.859 103.718 147.782 103.27 147.628 102.869C147.479 102.468 147.248 102.148 146.935 101.91C146.622 101.672 146.223 101.553 145.738 101.553C145.281 101.553 144.903 101.665 144.604 101.889C144.31 102.113 144.091 102.426 143.946 102.827C143.806 103.228 143.736 103.69 143.736 104.213C143.736 104.736 143.806 105.198 143.946 105.599C144.086 106 144.308 106.315 144.611 106.544C144.914 106.773 145.306 106.887 145.787 106.887ZM151.707 111.36L153.17 107.377L153.191 108.553L149.894 100.44H151.42L153.884 106.705H153.436L155.788 100.44H157.272L153.1 111.36H151.707ZM161.064 108.21C160.331 108.21 159.673 108.054 159.09 107.741C158.511 107.428 158.054 106.997 157.718 106.446L158.88 105.683C159.15 106.047 159.463 106.329 159.818 106.53C160.177 106.731 160.581 106.831 161.029 106.831C161.495 106.831 161.864 106.726 162.135 106.516C162.41 106.301 162.548 106.014 162.548 105.655C162.548 105.37 162.468 105.16 162.31 105.025C162.156 104.885 161.941 104.794 161.666 104.752C161.395 104.71 161.087 104.689 160.742 104.689H160.07V103.513H160.742C161.199 103.513 161.575 103.45 161.869 103.324C162.167 103.193 162.317 102.948 162.317 102.589C162.317 102.239 162.188 101.987 161.932 101.833C161.68 101.679 161.379 101.602 161.029 101.602C160.637 101.602 160.256 101.686 159.888 101.854C159.519 102.017 159.197 102.22 158.922 102.463L158.068 101.462C158.469 101.075 158.926 100.774 159.44 100.559C159.958 100.34 160.513 100.23 161.106 100.23C161.591 100.23 162.039 100.316 162.45 100.489C162.865 100.657 163.196 100.907 163.444 101.238C163.696 101.569 163.822 101.978 163.822 102.463C163.822 102.841 163.738 103.186 163.57 103.499C163.402 103.812 163.145 104.096 162.8 104.353L162.758 103.856C163.042 103.945 163.28 104.087 163.472 104.283C163.663 104.479 163.805 104.71 163.899 104.976C163.997 105.237 164.046 105.515 164.046 105.809C164.046 106.318 163.91 106.752 163.64 107.111C163.374 107.47 163.014 107.743 162.562 107.93C162.109 108.117 161.61 108.21 161.064 108.21ZM171.957 100.44V108H170.55V102.743L166.77 108H165.58V100.44H166.987V105.592L170.774 100.44H171.957ZM175.867 108V101.756H173.284V100.44H179.913V101.756H177.33V108H175.867ZM184.595 108.21C183.843 108.21 183.183 108.047 182.614 107.72C182.049 107.389 181.608 106.929 181.291 106.341C180.978 105.748 180.822 105.062 180.822 104.283C180.822 103.457 180.976 102.741 181.284 102.134C181.596 101.527 182.03 101.058 182.586 100.727C183.141 100.396 183.787 100.23 184.525 100.23C185.295 100.23 185.95 100.41 186.492 100.769C187.033 101.124 187.437 101.63 187.703 102.288C187.973 102.946 188.081 103.728 188.025 104.633H186.562V104.101C186.552 103.224 186.384 102.575 186.058 102.155C185.736 101.735 185.243 101.525 184.581 101.525C183.848 101.525 183.297 101.756 182.929 102.218C182.56 102.68 182.376 103.347 182.376 104.22C182.376 105.051 182.56 105.695 182.929 106.152C183.297 106.605 183.829 106.831 184.525 106.831C184.982 106.831 185.376 106.728 185.708 106.523C186.044 106.313 186.305 106.014 186.492 105.627L187.927 106.082C187.633 106.759 187.187 107.284 186.59 107.657C185.992 108.026 185.327 108.21 184.595 108.21ZM181.9 104.633V103.492H187.297V104.633H181.9ZM198.768 100.44V108H197.361V102.743L193.581 108H192.391V100.44H193.798V105.592L197.585 100.44H198.768ZM203.419 108.21C202.686 108.21 202.028 108.054 201.445 107.741C200.866 107.428 200.409 106.997 200.073 106.446L201.235 105.683C201.506 106.047 201.818 106.329 202.173 106.53C202.532 106.731 202.936 106.831 203.384 106.831C203.851 106.831 204.219 106.726 204.49 106.516C204.765 106.301 204.903 106.014 204.903 105.655C204.903 105.37 204.824 105.16 204.665 105.025C204.511 104.885 204.296 104.794 204.021 104.752C203.75 104.71 203.442 104.689 203.097 104.689H202.425V103.513H203.097C203.554 103.513 203.93 103.45 204.224 103.324C204.523 103.193 204.672 102.948 204.672 102.589C204.672 102.239 204.544 101.987 204.287 101.833C204.035 101.679 203.734 101.602 203.384 101.602C202.992 101.602 202.612 101.686 202.243 101.854C201.874 102.017 201.552 102.22 201.277 102.463L200.423 101.462C200.824 101.075 201.282 100.774 201.795 100.559C202.313 100.34 202.868 100.23 203.461 100.23C203.946 100.23 204.394 100.316 204.805 100.489C205.22 100.657 205.552 100.907 205.799 101.238C206.051 101.569 206.177 101.978 206.177 102.463C206.177 102.841 206.093 103.186 205.925 103.499C205.757 103.812 205.5 104.096 205.155 104.353L205.113 103.856C205.398 103.945 205.636 104.087 205.827 104.283C206.018 104.479 206.161 104.71 206.254 104.976C206.352 105.237 206.401 105.515 206.401 105.809C206.401 106.318 206.266 106.752 205.995 107.111C205.729 107.47 205.37 107.743 204.917 107.93C204.464 108.117 203.965 108.21 203.419 108.21ZM211.226 108.21C210.47 108.21 209.814 108.04 209.259 107.699C208.704 107.358 208.274 106.889 207.971 106.292C207.672 105.69 207.523 104.997 207.523 104.213C207.523 103.424 207.677 102.731 207.985 102.134C208.293 101.532 208.725 101.065 209.28 100.734C209.835 100.398 210.484 100.23 211.226 100.23C211.982 100.23 212.638 100.4 213.193 100.741C213.748 101.082 214.178 101.551 214.481 102.148C214.784 102.745 214.936 103.434 214.936 104.213C214.936 105.002 214.782 105.697 214.474 106.299C214.171 106.896 213.741 107.365 213.186 107.706C212.631 108.042 211.977 108.21 211.226 108.21ZM211.226 106.831C211.949 106.831 212.488 106.588 212.843 106.103C213.202 105.613 213.382 104.983 213.382 104.213C213.382 103.424 213.2 102.794 212.836 102.323C212.477 101.847 211.94 101.609 211.226 101.609C210.736 101.609 210.332 101.721 210.015 101.945C209.698 102.164 209.462 102.47 209.308 102.862C209.154 103.249 209.077 103.7 209.077 104.213C209.077 105.006 209.259 105.641 209.623 106.117C209.987 106.593 210.521 106.831 211.226 106.831ZM219.582 108.217C218.863 108.212 218.252 108.056 217.748 107.748C217.244 107.44 216.85 106.997 216.565 106.418C216.285 105.835 216.122 105.132 216.075 104.311C216.052 103.914 216.054 103.476 216.082 102.995C216.11 102.51 216.161 102.041 216.236 101.588C216.315 101.135 216.416 100.757 216.537 100.454C216.672 100.118 216.857 99.81 217.09 99.53C217.323 99.2453 217.58 99.0073 217.86 98.816C218.159 98.6107 218.49 98.452 218.854 98.34C219.218 98.2233 219.598 98.1323 219.995 98.067C220.396 98.0017 220.8 97.9457 221.206 97.899C221.617 97.8477 222.016 97.7847 222.403 97.71L222.543 99.019C222.286 99.0797 221.983 99.1287 221.633 99.166C221.288 99.2033 220.928 99.2453 220.555 99.292C220.186 99.3387 219.834 99.404 219.498 99.488C219.162 99.572 218.87 99.691 218.623 99.845C218.273 100.06 218.005 100.372 217.818 100.783C217.636 101.194 217.526 101.639 217.489 102.12C217.778 101.681 218.147 101.366 218.595 101.175C219.043 100.979 219.507 100.881 219.988 100.881C220.66 100.881 221.239 101.04 221.724 101.357C222.214 101.674 222.59 102.106 222.851 102.652C223.112 103.198 223.243 103.816 223.243 104.507C223.243 105.254 223.089 105.907 222.781 106.467C222.478 107.022 222.051 107.456 221.5 107.769C220.949 108.077 220.31 108.226 219.582 108.217ZM219.659 106.838C220.331 106.838 220.837 106.63 221.178 106.215C221.523 105.8 221.696 105.247 221.696 104.556C221.696 103.847 221.519 103.289 221.164 102.883C220.809 102.477 220.308 102.274 219.659 102.274C219.001 102.274 218.497 102.477 218.147 102.883C217.802 103.289 217.629 103.847 217.629 104.556C217.629 105.275 217.804 105.835 218.154 106.236C218.504 106.637 219.006 106.838 219.659 106.838ZM228.336 108.21C227.612 108.21 227.006 108.035 226.516 107.685C226.026 107.33 225.655 106.852 225.403 106.25C225.151 105.648 225.025 104.969 225.025 104.213C225.025 103.457 225.148 102.778 225.396 102.176C225.648 101.574 226.016 101.1 226.502 100.755C226.992 100.405 227.594 100.23 228.308 100.23C229.017 100.23 229.628 100.405 230.142 100.755C230.66 101.1 231.059 101.574 231.339 102.176C231.619 102.773 231.759 103.452 231.759 104.213C231.759 104.969 231.619 105.65 231.339 106.257C231.063 106.859 230.669 107.335 230.156 107.685C229.647 108.035 229.04 108.21 228.336 108.21ZM224.78 111.36V100.44H226.082V105.879H226.25V111.36H224.78ZM228.133 106.887C228.599 106.887 228.984 106.768 229.288 106.53C229.596 106.292 229.824 105.972 229.974 105.571C230.128 105.165 230.205 104.712 230.205 104.213C230.205 103.718 230.128 103.27 229.974 102.869C229.824 102.468 229.593 102.148 229.281 101.91C228.968 101.672 228.569 101.553 228.084 101.553C227.626 101.553 227.248 101.665 226.95 101.889C226.656 102.113 226.436 102.426 226.292 102.827C226.152 103.228 226.082 103.69 226.082 104.213C226.082 104.736 226.152 105.198 226.292 105.599C226.432 106 226.653 106.315 226.957 106.544C227.26 106.773 227.652 106.887 228.133 106.887ZM235.439 108.21C234.879 108.21 234.41 108.107 234.032 107.902C233.654 107.692 233.367 107.417 233.171 107.076C232.98 106.731 232.884 106.353 232.884 105.942C232.884 105.559 232.952 105.223 233.087 104.934C233.223 104.645 233.423 104.4 233.689 104.199C233.955 103.994 234.282 103.828 234.669 103.702C235.005 103.604 235.386 103.518 235.81 103.443C236.235 103.368 236.681 103.298 237.147 103.233C237.619 103.168 238.085 103.102 238.547 103.037L238.015 103.331C238.025 102.738 237.899 102.3 237.637 102.015C237.381 101.726 236.937 101.581 236.307 101.581C235.911 101.581 235.547 101.674 235.215 101.861C234.884 102.043 234.653 102.346 234.522 102.771L233.157 102.351C233.344 101.702 233.699 101.187 234.221 100.804C234.749 100.421 235.449 100.23 236.321 100.23C236.998 100.23 237.586 100.347 238.085 100.58C238.589 100.809 238.958 101.173 239.191 101.672C239.313 101.919 239.387 102.181 239.415 102.456C239.443 102.731 239.457 103.028 239.457 103.345V108H238.162V106.271L238.414 106.495C238.102 107.074 237.703 107.505 237.217 107.79C236.737 108.07 236.144 108.21 235.439 108.21ZM235.698 107.013C236.114 107.013 236.471 106.941 236.769 106.796C237.068 106.647 237.308 106.458 237.49 106.229C237.672 106 237.791 105.762 237.847 105.515C237.927 105.291 237.971 105.039 237.98 104.759C237.994 104.479 238.001 104.255 238.001 104.087L238.477 104.262C238.015 104.332 237.595 104.395 237.217 104.451C236.839 104.507 236.496 104.563 236.188 104.619C235.885 104.67 235.614 104.733 235.376 104.808C235.176 104.878 234.996 104.962 234.837 105.06C234.683 105.158 234.56 105.277 234.466 105.417C234.378 105.557 234.333 105.727 234.333 105.928C234.333 106.124 234.382 106.306 234.48 106.474C234.578 106.637 234.728 106.768 234.928 106.866C235.129 106.964 235.386 107.013 235.698 107.013ZM240.435 108L243.347 104.22L240.596 100.44H242.206L244.838 104.129V100.44H246.154V104.129L248.786 100.44H250.403L247.652 104.22L250.564 108H248.863L246.154 104.311V108H244.838V104.311L242.136 108H240.435ZM254.759 108.21C254.007 108.21 253.347 108.047 252.778 107.72C252.213 107.389 251.772 106.929 251.455 106.341C251.142 105.748 250.986 105.062 250.986 104.283C250.986 103.457 251.14 102.741 251.448 102.134C251.76 101.527 252.194 101.058 252.75 100.727C253.305 100.396 253.951 100.23 254.689 100.23C255.459 100.23 256.114 100.41 256.656 100.769C257.197 101.124 257.601 101.63 257.867 102.288C258.137 102.946 258.245 103.728 258.189 104.633H256.726V104.101C256.716 103.224 256.548 102.575 256.222 102.155C255.9 101.735 255.407 101.525 254.745 101.525C254.012 101.525 253.461 101.756 253.093 102.218C252.724 102.68 252.54 103.347 252.54 104.22C252.54 105.051 252.724 105.695 253.093 106.152C253.461 106.605 253.993 106.831 254.689 106.831C255.146 106.831 255.54 106.728 255.872 106.523C256.208 106.313 256.469 106.014 256.656 105.627L258.091 106.082C257.797 106.759 257.351 107.284 256.754 107.657C256.156 108.026 255.491 108.21 254.759 108.21ZM252.064 104.633V103.492H257.461V104.633H252.064ZM259.752 108V100.44H261.215V103.527H264.904V100.44H266.367V108H264.904V104.906H261.215V108H259.752ZM274.702 100.44V108H273.295V102.743L269.515 108H268.325V100.44H269.732V105.592L273.519 100.44H274.702ZM280.011 108.21C279.259 108.21 278.599 108.047 278.03 107.72C277.465 107.389 277.024 106.929 276.707 106.341C276.394 105.748 276.238 105.062 276.238 104.283C276.238 103.457 276.392 102.741 276.7 102.134C277.012 101.527 277.446 101.058 278.002 100.727C278.557 100.396 279.203 100.23 279.941 100.23C280.711 100.23 281.366 100.41 281.908 100.769C282.449 101.124 282.853 101.63 283.119 102.288C283.389 102.946 283.497 103.728 283.441 104.633H281.978V104.101C281.968 103.224 281.8 102.575 281.474 102.155C281.152 101.735 280.659 101.525 279.997 101.525C279.264 101.525 278.713 101.756 278.345 102.218C277.976 102.68 277.792 103.347 277.792 104.22C277.792 105.051 277.976 105.695 278.345 106.152C278.713 106.605 279.245 106.831 279.941 106.831C280.398 106.831 280.792 106.728 281.124 106.523C281.46 106.313 281.721 106.014 281.908 105.627L283.343 106.082C283.049 106.759 282.603 107.284 282.006 107.657C281.408 108.026 280.743 108.21 280.011 108.21ZM277.316 104.633V103.492H282.713V104.633H277.316Z" fill="#595B60"/>
</svg>
