<svg width="20" height="20" viewBox="0 0 20 20" fill="none" xmlns="http://www.w3.org/2000/svg">
<path d="M17.7594 2.24059C17.6022 2.0835 17.406 1.97116 17.1909 1.91514C16.9759 1.85911 16.7498 1.86142 16.5359 1.92184H16.5242L1.52891 6.47184C1.28481 6.54204 1.06789 6.68493 0.907035 6.88149C0.746176 7.07805 0.649012 7.31895 0.628481 7.57211C0.60795 7.82527 0.665026 8.07867 0.79211 8.29858C0.919194 8.51849 1.11025 8.69447 1.33985 8.80309L8.02891 11.9711L11.1969 18.6601C11.2969 18.8743 11.4561 19.0555 11.6557 19.1821C11.8553 19.3088 12.087 19.3757 12.3234 19.375C12.3594 19.375 12.3953 19.3734 12.4313 19.3703C12.6835 19.3498 12.9235 19.2528 13.119 19.092C13.3145 18.9313 13.4562 18.7146 13.525 18.4711L18.0719 3.47574C18.0719 3.47184 18.0719 3.46793 18.0719 3.46403C18.1331 3.25072 18.1364 3.02496 18.0815 2.80995C18.0266 2.59493 17.9154 2.39842 17.7594 2.24059ZM12.3305 18.1132L12.3266 18.1242L9.25157 11.6328L12.9422 7.94137C13.0545 7.82321 13.1161 7.66586 13.114 7.50289C13.1119 7.33991 13.0463 7.1842 12.931 7.06895C12.8158 6.95369 12.6601 6.88802 12.4971 6.88594C12.3341 6.88385 12.1768 6.94551 12.0586 7.05778L8.36719 10.7484L1.87501 7.6734H1.88594L16.875 3.12496L12.3305 18.1132Z" fill="#FFFFFF"/>
</svg>
