<svg width="24" height="24" viewBox="0 0 24 24" fill="none" xmlns="http://www.w3.org/2000/svg">
<path d="M5.01656 7.18453C5.03156 6.56531 5.38219 6.01125 5.99719 5.94C6.17438 5.91938 6.37781 5.90625 6.60938 5.90625C6.84094 5.90625 7.04437 5.91938 7.22156 5.94C7.83703 6.01125 8.18719 6.56531 8.20219 7.18453C8.22422 8.09578 8.25 9.66422 8.25 12C8.25 14.3358 8.22422 15.9042 8.20219 16.8155C8.18719 17.4347 7.83656 17.9887 7.22156 18.06C7.04437 18.0806 6.84094 18.0938 6.60938 18.0938C6.37781 18.0938 6.17438 18.0806 5.99719 18.06C5.38172 17.9887 5.03156 17.4347 5.01656 16.8155C4.99453 15.9042 4.96875 14.3358 4.96875 12C4.96875 9.66422 4.99453 8.09578 5.01656 7.18453Z" stroke="#1B1C20" stroke-width="1.5" stroke-linecap="round" stroke-linejoin="round"/>
<path d="M18.9834 7.18452C18.9684 6.5653 18.6178 6.01124 18.0028 5.93999C17.7996 5.917 17.5952 5.90573 17.3906 5.90624C17.1591 5.90624 16.9556 5.91936 16.7784 5.93999C16.163 6.01124 15.8128 6.5653 15.7978 7.18452C15.7758 8.09577 15.75 9.6642 15.75 12C15.75 14.3358 15.7758 15.9042 15.7978 16.8155C15.8128 17.4347 16.1634 17.9887 16.7784 18.06C16.9556 18.0806 17.1591 18.0937 17.3906 18.0937C17.6222 18.0937 17.8256 18.0806 18.0028 18.06C18.6183 17.9887 18.9684 17.4347 18.9834 16.8155C19.0055 15.9042 19.0312 14.3358 19.0312 12C19.0312 9.6642 19.0055 8.09577 18.9834 7.18452Z" stroke="#1B1C20" stroke-width="1.5" stroke-linecap="round" stroke-linejoin="round"/>
<path d="M8.2467 13.3978C10.7489 13.4112 13.2511 13.4092 15.7533 13.3917" stroke="#1B1C20" stroke-width="1.5" stroke-linecap="round" stroke-linejoin="round"/>
<path d="M15.7528 10.6078C14.6212 10.5998 13.2215 10.5938 11.5307 10.5938C10.2801 10.5938 9.18793 10.597 8.24622 10.6022" stroke="#1B1C20" stroke-width="1.5" stroke-linecap="round" stroke-linejoin="round"/>
<path d="M2.18203 9.56388C2.19891 8.86544 2.64328 8.27575 3.34172 8.25325C3.48887 8.24863 3.63613 8.24863 3.78328 8.25325C4.48172 8.27575 4.92609 8.86497 4.94297 9.56388C4.95703 10.1372 4.96875 10.9401 4.96875 12C4.96875 13.0593 4.95656 13.8628 4.94297 14.4361C4.92609 15.1345 4.48172 15.7242 3.78328 15.7467C3.63613 15.7513 3.48887 15.7513 3.34172 15.7467C2.64328 15.7242 2.19891 15.135 2.18203 14.4361C2.16797 13.8628 2.15625 13.0598 2.15625 12C2.15625 10.9406 2.16844 10.1372 2.18203 9.56388Z" stroke="#1B1C20" stroke-width="1.5" stroke-linecap="round" stroke-linejoin="round"/>
<path d="M21.818 9.56388C21.8011 8.86544 21.3567 8.27575 20.6583 8.25325C20.5111 8.24863 20.3639 8.24863 20.2167 8.25325C19.5183 8.27575 19.0739 8.86497 19.057 9.56388C19.043 10.1372 19.0312 10.9401 19.0312 12C19.0312 13.0593 19.0434 13.8628 19.057 14.4361C19.0739 15.1345 19.5183 15.7242 20.2167 15.7467C20.3639 15.7513 20.5111 15.7513 20.6583 15.7467C21.3567 15.7242 21.8011 15.135 21.818 14.4361C21.832 13.8628 21.8438 13.0598 21.8438 12C21.8438 10.9406 21.8316 10.1372 21.818 9.56388Z" stroke="#1B1C20" stroke-width="1.5" stroke-linecap="round" stroke-linejoin="round"/>
</svg>
