<svg width="403" height="272" viewBox="0 0 403 272" fill="none" xmlns="http://www.w3.org/2000/svg">
<path d="M57.1767 128.49C57.3146 125.838 57.6135 123.185 57.8664 120.533C57.9123 120.145 57.9353 119.756 57.9813 119.39L58.8319 115.023C58.9008 114.703 58.9698 114.383 59.0388 114.063C59.0847 113.789 59.0388 113.514 59.0388 113.08C56.533 116.647 54.1192 120.053 51.7054 123.483L50.0503 125.083C48.9698 125.243 47.9583 125.655 47.1767 126.386C45.5675 127.872 44.0503 129.45 42.487 130.982L40.9928 132.811C39.9353 133.245 38.9008 133.68 37.8664 134.137C37.7284 134.205 37.6365 134.663 37.7284 134.846C38.1422 135.646 38.8778 136.012 39.7974 136.149C41.2227 135.829 42.6709 135.509 44.1422 135.189L45.4066 135.669C45.4066 135.669 45.3376 135.783 45.2916 135.852C45.2227 135.943 45.1767 136.034 45.1307 136.149C43.9583 138.229 42.7399 140.287 41.5905 142.39C41.0388 143.396 40.0273 144.334 40.0962 145.568C40.1192 146.048 40.487 146.368 40.7859 146.574C40.9008 146.666 41.3606 146.346 41.6135 146.14C41.8434 145.957 42.0043 145.705 42.1652 145.454C43.2916 143.625 44.3951 141.796 45.4985 139.944C46.0043 139.098 46.51 138.252 46.9698 137.383L47.3376 137.818C46.1422 139.875 44.9468 141.91 43.7974 143.991C42.9928 145.454 42.2801 146.963 41.5445 148.449C41.1307 149.295 41.6135 150.232 42.7169 150.187C42.9468 150.004 43.4755 149.752 43.7514 149.341C44.2801 148.586 44.648 147.717 45.0847 146.917C46.3031 144.677 47.4985 142.413 48.7169 140.173L49.1307 140.881C48.2342 142.459 47.3606 144.059 46.533 145.683C45.9353 146.849 45.4066 148.037 44.8778 149.226C44.556 149.935 44.8549 150.369 45.5675 150.369C46.2572 150.369 46.8089 150.095 47.1307 149.478C47.5445 148.678 47.9123 147.855 48.3031 147.054C49.0388 145.568 49.7744 144.105 50.533 142.642L51.1077 143.282C51.0158 143.419 50.9468 143.556 50.8778 143.716C50.3951 144.837 49.7744 145.865 49.2457 146.963C49.1537 147.169 49.1767 147.649 49.2687 147.672C49.5215 147.786 49.8664 147.74 50.1422 147.695C50.2572 147.695 50.3491 147.534 50.4411 147.443C51.7974 145.843 52.7859 144.036 53.7284 142.185L56.533 138.458C58.3951 136.126 58.625 134.137 57.6595 131.393C57.3376 130.479 57.1537 129.45 57.1997 128.49H57.1767Z" fill="#4D8AEE"/>
<path d="M169.177 134.158C168.143 133.724 167.108 133.267 166.051 132.832L164.557 131.003C162.993 129.471 161.453 127.894 159.867 126.408C159.085 125.676 158.074 125.265 156.993 125.105L155.338 123.504C152.924 120.098 150.511 116.668 148.005 113.102C148.005 113.513 147.959 113.81 148.005 114.085C148.074 114.405 148.12 114.725 148.212 115.045L149.062 119.412C149.108 119.8 149.131 120.189 149.177 120.555C149.407 123.207 149.706 125.859 149.867 128.511C149.913 129.471 149.729 130.5 149.407 131.415C148.442 134.135 148.671 136.147 150.534 138.479L153.338 142.183C154.281 144.035 155.246 145.864 156.625 147.465C156.717 147.556 156.809 147.716 156.924 147.716C157.223 147.762 157.545 147.785 157.798 147.693C157.89 147.647 157.913 147.167 157.821 146.984C157.292 145.887 156.671 144.835 156.189 143.738C156.12 143.578 156.051 143.441 155.959 143.303L156.534 142.663C157.292 144.127 158.028 145.613 158.763 147.076C159.154 147.876 159.522 148.699 159.936 149.499C160.258 150.117 160.809 150.391 161.499 150.391C162.212 150.391 162.511 149.979 162.189 149.248C161.66 148.059 161.131 146.847 160.534 145.704C159.706 144.081 158.809 142.503 157.936 140.903L158.35 140.194C159.568 142.435 160.763 144.675 161.982 146.939C162.419 147.762 162.786 148.608 163.315 149.362C163.591 149.774 164.12 150.025 164.35 150.208C165.453 150.231 165.936 149.316 165.522 148.47C164.786 146.984 164.074 145.475 163.269 144.012C162.12 141.932 160.924 139.897 159.729 137.839L160.097 137.405C160.557 138.274 161.062 139.12 161.568 139.965C162.671 141.795 163.775 143.646 164.901 145.475C165.062 145.727 165.223 145.978 165.453 146.161C165.706 146.367 166.166 146.687 166.281 146.596C166.58 146.413 166.924 146.07 166.97 145.59C167.039 144.378 166.028 143.418 165.476 142.412C164.327 140.308 163.131 138.251 161.936 136.17C161.89 136.079 161.821 135.964 161.775 135.873C161.729 135.804 161.706 135.759 161.66 135.69L162.924 135.21C164.373 135.553 165.844 135.85 167.269 136.17C168.189 136.033 168.924 135.667 169.338 134.867C169.43 134.684 169.338 134.204 169.2 134.158H169.177Z" fill="#4D8AEE"/>
<path d="M364.736 136.252C362.861 135.429 361.033 134.583 359.798 132.914C359.387 132.365 358.93 131.84 358.495 131.291C357.238 129.759 355.821 128.411 353.901 127.61C353.626 127.496 353.329 127.427 353.032 127.359L350.152 127.107C350.152 127.107 350.152 127.107 350.175 127.153C349.717 127.13 349.237 127.176 348.78 127.359C347.5 127.839 346.243 128.456 345.009 129.073C344.803 129.188 344.574 129.531 344.574 129.759C344.574 131.428 344.62 133.097 344.643 134.743C344.414 136.183 345.146 137.578 345.649 138.927C346.174 140.298 346.7 141.487 347.546 142.493C347.592 142.653 347.637 142.767 347.706 142.882C348.323 144.047 348.94 145.236 349.603 146.379C350.106 147.248 350.655 148.094 351.272 148.894C351.455 149.123 352.003 149.237 352.301 149.145C352.758 148.985 352.575 148.528 352.415 148.208C351.889 147.111 351.295 146.059 350.86 144.916C350.792 144.733 350.7 144.55 350.609 144.413C350.815 144.276 351.043 144.07 351.295 143.727C351.569 144.299 351.843 144.87 352.118 145.442C352.803 146.951 353.489 148.482 354.175 149.991C354.541 150.837 355.044 151.5 356.072 151.569C356.644 151.592 356.941 151.317 356.941 150.654C356.895 150.54 356.827 150.311 356.735 150.106C355.935 148.322 355.135 146.516 354.289 144.733C353.924 143.979 353.512 143.247 353.101 142.539C353.238 142.379 353.398 142.219 353.581 142.036C353.946 142.721 354.289 143.407 354.632 144.093C355.638 146.128 356.621 148.208 357.695 150.22C357.947 150.7 358.404 151.111 358.884 151.386C359.135 151.546 359.73 151.477 359.935 151.271C360.21 151.02 360.278 150.54 360.347 150.128C360.37 149.923 360.233 149.694 360.118 149.488C358.564 146.425 357.009 143.384 355.455 140.321C355.592 140.184 355.707 140.047 355.821 139.91C357.238 142.401 358.655 144.893 360.118 147.385C360.278 147.659 360.804 147.98 361.01 147.888C361.307 147.751 361.467 147.317 361.673 146.996C361.376 146.219 361.193 145.511 360.895 144.893C360.05 143.202 359.135 141.533 358.244 139.864C357.787 138.972 357.307 138.104 356.827 137.235C356.827 137.166 356.781 137.098 356.758 137.029C357.032 136.48 357.627 136.298 357.627 136.298C357.901 136.732 358.404 137.189 358.884 137.349C360.095 137.738 361.376 137.989 362.61 138.264C363.593 138.469 364.439 138.172 365.033 137.372C365.467 136.8 365.422 136.572 364.736 136.275V136.252Z" fill="#4D8AEE"/>
<path d="M243.994 129.05C242.76 128.433 241.502 127.838 240.222 127.335C239.765 127.153 239.285 127.107 238.828 127.13C238.828 127.107 238.851 127.084 238.851 127.084L235.971 127.335C235.673 127.427 235.376 127.473 235.102 127.587C233.182 128.387 231.765 129.736 230.507 131.268C230.073 131.793 229.616 132.319 229.204 132.891C227.97 134.582 226.141 135.405 224.267 136.228C223.604 136.526 223.535 136.754 223.97 137.326C224.564 138.126 225.41 138.423 226.393 138.217C227.65 137.943 228.907 137.691 230.119 137.303C230.622 137.143 231.102 136.686 231.376 136.251C231.376 136.251 231.97 136.434 232.245 136.983C232.222 137.051 232.199 137.12 232.176 137.189C231.696 138.057 231.239 138.949 230.759 139.818C229.867 141.486 228.953 143.155 228.107 144.847C227.787 145.464 227.604 146.173 227.33 146.95C227.536 147.247 227.696 147.705 228.016 147.842C228.221 147.933 228.747 147.613 228.907 147.339C230.347 144.847 231.787 142.355 233.205 139.863C233.296 140 233.433 140.138 233.57 140.275C231.993 143.315 230.462 146.379 228.907 149.442C228.816 149.648 228.656 149.876 228.679 150.082C228.747 150.494 228.816 150.974 229.09 151.225C229.296 151.431 229.89 151.5 230.142 151.339C230.599 151.065 231.079 150.654 231.33 150.174C232.382 148.162 233.365 146.081 234.393 144.047C234.736 143.361 235.102 142.675 235.445 141.989C235.628 142.149 235.788 142.309 235.925 142.492C235.513 143.224 235.102 143.933 234.736 144.687C233.89 146.447 233.09 148.253 232.29 150.059C232.199 150.265 232.13 150.494 232.085 150.608C232.085 151.271 232.382 151.545 232.953 151.522C233.982 151.477 234.485 150.791 234.851 149.945C235.536 148.413 236.222 146.904 236.908 145.396C237.182 144.824 237.456 144.253 237.731 143.681C237.982 144.024 238.211 144.253 238.417 144.367C238.325 144.527 238.234 144.687 238.165 144.87C237.708 145.99 237.114 147.064 236.611 148.162C236.451 148.482 236.268 148.939 236.725 149.099C237.022 149.191 237.571 149.076 237.754 148.848C238.371 148.07 238.919 147.202 239.422 146.333C240.085 145.19 240.702 144.001 241.32 142.835C241.388 142.721 241.411 142.607 241.48 142.447C242.325 141.441 242.851 140.229 243.377 138.88C243.903 137.531 244.634 136.137 244.383 134.697C244.406 133.028 244.474 131.359 244.451 129.713C244.451 129.484 244.246 129.141 244.017 129.027L243.994 129.05Z" fill="#4D8AEE"/>
</svg>
