<svg width="403" height="272" viewBox="0 0 403 272" fill="none" xmlns="http://www.w3.org/2000/svg">
<path d="M111.384 71.127C113.867 71.5157 116.304 71.3099 118.603 70.4183C121.683 69.2065 124.304 67.2632 126.695 65.0226C127.132 64.6111 127.269 64.0852 127.086 63.5365C126.81 62.7135 126.557 61.8447 126.143 61.0902C124.327 57.9123 122.58 54.6886 121.269 51.2592C120.626 49.5444 118.12 47.4868 116.212 48.0583C113.637 48.8357 111.086 49.7502 108.557 50.6876C106.097 51.6021 104.787 53.4997 104.603 56.0375C104.419 58.4152 104.327 60.8158 104.419 63.2165C104.58 66.8059 107.591 70.5326 111.384 71.1499V71.127Z" fill="#323334" fill-opacity="0.3"/>
<g filter="url(#filter0_d_350_16940)">
<path d="M109.015 126.866C111.176 123.574 112.395 119.938 113.268 116.143C114.027 112.92 114.533 109.673 114.717 106.381C114.809 104.849 114.142 104.117 112.602 104.323C110.257 104.62 108.05 105.375 105.843 106.152C105.084 106.427 104.694 106.907 104.579 107.661C104.372 109.01 104.096 110.336 104.027 111.685C103.843 115.389 103.705 122.796 103.751 122.796C103.751 125.037 103.751 127.277 103.751 129.495C103.751 130.341 103.843 130.387 104.671 130.135C106.533 129.587 107.958 128.489 109.015 126.866Z" fill="#323334" fill-opacity="0.3" shape-rendering="crispEdges"/>
</g>
<g filter="url(#filter1_d_350_16940)">
<path d="M102.534 107.891C102.442 106.931 101.96 106.314 100.994 106.062C100.557 105.948 100.143 105.719 99.7066 105.605C97.9365 105.148 96.1664 104.668 94.3503 104.325C93.04 104.073 92.2124 104.85 92.2813 106.062C92.5342 110.383 93.2239 114.636 94.4423 118.797C95.4078 122.043 96.6262 125.153 98.7641 127.851C99.8905 129.268 101.431 129.84 103.201 130.343C103.224 129.771 103.27 129.382 103.27 128.971C103.247 124.238 103.27 119.483 103.155 114.75C103.086 112.464 102.741 110.177 102.511 107.891H102.534Z" fill="#323334" fill-opacity="0.3" shape-rendering="crispEdges"/>
</g>
<g filter="url(#filter2_d_350_16940)">
<path d="M109.774 126.935C109.659 127.118 109.659 127.392 109.613 127.598C109.843 127.598 110.119 127.666 110.326 127.598C111.039 127.278 111.774 127.003 112.395 126.569C117.039 123.277 120.625 119.047 123.222 113.972C124.096 112.257 124.878 110.474 124.993 108.53C125.199 105.192 124.602 101.923 123.705 98.6991C123.636 98.4247 123.475 98.1961 123.268 97.7617C123.016 98.2418 122.855 98.5162 122.717 98.7906C121.498 101.031 119.912 103.02 117.659 104.232C116.349 104.941 115.843 105.809 115.866 107.227C115.866 110.176 115.268 113.057 114.464 115.892C113.36 119.756 111.751 123.414 109.797 126.912L109.774 126.935Z" fill="#323334" fill-opacity="0.3" shape-rendering="crispEdges"/>
</g>
<g filter="url(#filter3_d_350_16940)">
<path d="M92.9731 125.313C94.1455 126.273 95.318 127.256 96.8352 127.645C97.0191 127.691 97.249 127.622 97.4559 127.599C97.4099 127.416 97.4099 127.21 97.3409 127.028C96.7202 125.793 96.0306 124.604 95.4559 123.347C92.9961 118.065 91.226 112.601 91.18 106.68C91.18 105.696 90.7892 104.988 89.9157 104.553C87.5019 103.342 85.8467 101.352 84.4904 99.089C84.2835 98.7232 84.0996 98.3574 83.8927 97.9688C83.8237 97.9688 83.7317 97.9688 83.6628 97.9688C83.5478 98.2888 83.3639 98.6089 83.295 98.9519C82.9271 100.735 82.5134 102.518 82.2605 104.325C81.8927 106.862 81.9156 109.4 82.9271 111.847C85.134 117.174 88.5363 121.609 92.9961 125.267L92.9731 125.313Z" fill="#323334" fill-opacity="0.3" shape-rendering="crispEdges"/>
</g>
<g filter="url(#filter4_d_350_16940)">
<path d="M104.027 103.637C104.027 104.918 104.786 105.42 105.981 105.078C107.958 104.529 109.958 103.98 111.981 103.546C112.831 103.363 113.452 102.974 113.889 102.265C115.153 100.185 115.843 97.9215 116.05 95.498C116.096 94.9493 115.889 94.6292 115.429 94.332C112.786 92.5715 109.866 91.8399 106.717 91.9771C104.717 92.0686 104.464 91.9314 104.05 94.4463C104.027 94.6521 104.004 94.8578 104.004 95.0636C104.004 96.4582 104.004 97.8529 104.004 99.2704H104.05C104.05 100.734 104.05 102.197 104.05 103.683L104.027 103.637Z" fill="#323334" fill-opacity="0.3" shape-rendering="crispEdges"/>
</g>
<path d="M94.9036 103.5C97.0185 104.003 99.1335 104.552 101.225 105.123C102.26 105.398 102.95 104.895 102.973 103.82C103.019 101.214 103.156 98.5846 103.133 95.9782C103.133 94.9265 102.858 93.8748 102.651 92.846C102.536 92.2973 102.099 92.0229 101.547 92.0229C100.145 92.0229 98.7427 91.9772 97.3634 92.1144C95.3174 92.343 93.4323 93.1204 91.7082 94.2635C91.2024 94.6064 90.9266 94.9951 91.0415 95.6353C91.3174 98.013 91.9611 100.276 93.2484 102.311C93.6392 102.929 94.168 103.294 94.9266 103.477L94.9036 103.5Z" fill="#323334" fill-opacity="0.3"/>
<g filter="url(#filter5_d_350_16940)">
<path d="M104.007 89.7369C104.007 90.6742 104.191 90.8343 105.134 90.8571C106.329 90.88 107.548 90.9029 108.743 90.88C111.111 90.88 113.249 91.543 115.249 92.8005C115.456 92.9377 115.731 92.9834 115.961 93.052C116.03 92.8005 116.191 92.5261 116.145 92.2975C115.915 90.4227 115.709 88.548 115.387 86.6732C115.295 86.1702 114.927 85.6215 114.536 85.2557C112.352 83.1752 109.686 82.1692 106.674 81.9863C106.283 81.9863 105.892 82.0092 105.525 82.0549C104.444 82.1692 104.214 82.3979 104.03 83.4496C104.007 83.6553 103.984 83.8611 103.984 84.0669C103.984 85.9645 103.984 87.8621 103.984 89.7369H104.007Z" fill="#323334" fill-opacity="0.3" shape-rendering="crispEdges"/>
</g>
<path d="M102.926 83.0371C102.834 82.4656 102.489 82.1912 101.914 82.1226C98.5577 81.6654 95.6382 82.7628 93.0405 84.7518C92.5347 85.1405 92.052 85.6892 91.8451 86.2608C91.1554 88.2499 90.8336 90.3304 90.9255 92.4566C90.9255 92.6624 91.0635 92.8682 91.1324 93.0739C91.3393 93.0054 91.5462 92.9596 91.7301 92.8453C93.1554 91.9079 94.6727 91.2221 96.3738 91.0391C97.5003 90.9248 98.6267 90.8791 99.7761 90.8105C99.7761 90.8105 99.7761 90.8105 99.7761 90.8334C100.604 90.8334 101.408 90.8334 102.236 90.8334C102.673 90.8334 102.972 90.6505 103.017 90.1704C103.27 87.7926 103.362 85.392 102.949 83.0143L102.926 83.0371Z" fill="#323334" fill-opacity="0.3"/>
<g filter="url(#filter6_d_350_16940)">
<path d="M104.004 75.2194C104.004 76.6598 104.004 78.1001 104.004 79.5405C104.004 80.0892 104.303 80.4322 104.831 80.5465C105.153 80.6151 105.498 80.6608 105.843 80.6836C108.923 80.9809 111.866 81.7811 114.533 83.3586C114.717 83.4729 114.923 83.5644 115.314 83.7701C115.314 83.29 115.36 82.9699 115.314 82.6727C114.74 80.1807 114.165 77.6657 113.567 75.1737C113.291 74.0534 112.648 73.1846 111.613 72.7045C110.257 72.0872 108.877 71.5385 107.498 70.9669C106.969 70.7611 106.556 70.8983 106.257 71.3327C105.544 72.3844 104.877 73.4361 104.211 74.5107C104.096 74.6936 104.05 74.9451 104.05 75.1508L104.004 75.2194Z" fill="#323334" fill-opacity="0.3" shape-rendering="crispEdges"/>
</g>
<g filter="url(#filter7_d_350_16940)">
<path d="M102.902 74.6232C102.235 73.5029 101.499 72.4055 100.764 71.331C100.488 70.9423 100.097 70.828 99.6143 71.0109C98.6258 71.3767 97.5913 71.7196 96.6258 72.1083C94.8327 72.8399 93.6143 74.0516 93.2235 76.0179C92.8097 78.1441 92.235 80.2475 91.7752 82.3509C91.6833 82.7395 91.7752 83.1739 91.7752 83.6541C91.9592 83.6541 92.0281 83.6541 92.0971 83.6083C92.258 83.5397 92.4189 83.4483 92.5798 83.3568C94.5569 82.2137 96.6488 81.4135 98.9247 81.0477C99.9592 80.8877 100.994 80.7505 102.028 80.5676C102.879 80.4075 103.086 80.1103 103.086 79.2644C103.086 78.0526 103.086 76.8181 103.086 75.6063C103.086 75.2634 103.086 74.8747 102.925 74.6232H102.902Z" fill="#323334" fill-opacity="0.3" shape-rendering="crispEdges"/>
</g>
<g filter="url(#filter8_d_350_16940)">
<path d="M115.134 104.208C116.03 103.865 117.019 103.591 117.801 103.065C120.099 101.464 121.594 99.178 122.582 96.6174C123.065 95.4056 122.881 94.171 122.122 93.0507C120.812 91.1531 119.203 89.5299 117.433 88.0666C117.249 87.9066 116.973 87.8151 116.605 87.6094C116.674 88.0209 116.697 88.2495 116.766 88.4782C117.456 91.176 117.824 93.8967 117.617 96.6631C117.41 99.338 116.628 101.762 114.605 103.659C114.49 103.773 114.421 103.888 114.191 104.208C114.651 104.208 114.927 104.276 115.157 104.208H115.134Z" fill="#323334" fill-opacity="0.3" shape-rendering="crispEdges"/>
</g>
<g filter="url(#filter9_d_350_16940)">
<path d="M92.5564 103.729C90.7403 102.106 89.8668 100.002 89.5679 97.6702C89.1541 94.5609 89.522 91.4972 90.3036 88.4793C90.3725 88.2278 90.3955 87.9763 90.4185 87.7477L90.2576 87.6562C89.9817 87.8392 89.6829 87.9763 89.453 88.205C88.0047 89.7139 86.4875 91.1771 85.1312 92.7775C84.0507 94.0579 83.9357 95.6125 84.6714 97.0986C85.2461 98.2646 85.8898 99.4306 86.6484 100.482C87.7748 102.06 89.1771 103.386 91.0852 104.026C91.5909 104.209 92.1426 104.438 92.7863 104.072C92.6714 103.912 92.6254 103.797 92.5335 103.729H92.5564Z" fill="#323334" fill-opacity="0.3" shape-rendering="crispEdges"/>
</g>
<path d="M97.1081 34.9801C96.5334 34.7972 95.9816 34.4771 95.246 34.1113L94.7403 35.5974C94.6253 36.8777 94.4874 38.1581 94.4414 39.4384C94.4414 39.8271 94.5793 40.2386 94.7632 40.5815C95.8667 42.5935 97.2 44.4682 98.8092 46.0915C99.6828 46.9603 100.694 47.6919 101.729 48.4006C102.326 48.8122 102.625 48.6293 102.648 47.9205C102.671 47.0289 102.694 46.1144 102.579 45.2227C102.28 42.845 101.43 40.6501 100.556 38.4324C99.8897 36.7406 98.8782 35.5517 97.1311 34.9801H97.1081Z" fill="#323334" fill-opacity="0.3"/>
<path d="M104.418 47.9206C104.418 48.5837 104.671 48.7437 105.223 48.4236C105.958 48.0121 106.763 47.6006 107.338 46.9833C108.694 45.4972 109.958 43.9425 111.2 42.365C112.119 41.1761 112.855 39.8729 112.602 38.2496C112.441 37.2894 112.395 36.3063 112.257 35.2089L111.682 34.2715C110.625 34.6373 109.682 35.0488 108.763 35.5518C108.257 35.8262 107.659 36.1462 107.429 36.6035C106.142 39.027 105.085 41.5648 104.625 44.2854C104.418 45.4743 104.418 46.7089 104.418 47.9206Z" fill="#323334" fill-opacity="0.3"/>
<path d="M100.582 37.1528C101.755 39.8278 102.697 42.5713 102.95 45.5206C102.95 45.7493 103.019 45.9779 103.134 46.1608C103.226 46.3208 103.387 46.4351 103.525 46.5723C103.663 46.4351 103.847 46.3208 103.916 46.1608C104.031 45.8636 104.1 45.5435 104.123 45.2463C104.375 42.7085 105.134 40.3079 106.123 37.9759C106.306 37.5415 106.49 37.0842 106.651 36.627H100.398C100.467 36.8099 100.513 36.9928 100.582 37.1757V37.1528Z" fill="#323334" fill-opacity="0.3"/>
<path d="M104.076 72.3844C104.605 71.6528 105.134 70.9212 105.639 70.1667C105.823 69.9152 105.938 69.618 106.076 69.3207C106.007 69.1378 105.984 68.9549 105.892 68.7949C105.318 67.9032 104.743 67.0116 104.099 66.1657C103.639 65.5712 103.341 65.5712 102.858 66.1885C102.214 67.0345 101.662 67.949 101.111 68.8406C100.996 69.0235 100.973 69.4122 101.111 69.5951C101.708 70.5553 102.352 71.4927 103.019 72.4072C103.341 72.8416 103.754 72.8188 104.076 72.3844Z" fill="#323334" fill-opacity="0.3"/>
<path d="M64.7638 95.84C64.7638 96.343 64.8788 96.846 64.9478 97.4862C65.1087 97.3033 65.1547 97.2575 65.2006 97.1889C66.0512 95.7714 66.7638 94.2625 67.7524 92.9593C69.8443 90.1243 71.3845 87.0378 72.488 83.7227C73.1087 81.8479 73.7524 79.9503 74.3271 78.0527C75.4765 74.2803 76.1891 70.4165 76.511 66.4841C76.6489 64.9065 75.7064 64.152 74.1891 64.6779C70.0742 66.1411 66.0742 66.2097 63.0627 72.6799C61.7524 75.4692 61.4995 76.9096 61.3156 79.9503C61.2236 81.5279 61.7064 84.2714 63.0627 85.9633C64.9248 88.2724 64.6949 92.845 64.7638 95.8629V95.84Z" fill="#323334" fill-opacity="0.3"/>
<g filter="url(#filter10_d_350_16940)">
<path d="M67.0623 66.7127C68.0048 66.0954 69.4991 65.4553 70.5106 64.9523C71.683 64.3579 74.9933 63.832 76.1887 63.3062C78.5106 62.2773 78.6255 62.9632 80.0278 60.5398C81.8669 57.339 84.3496 53.3151 85.1542 49.7485C85.2922 49.1312 85.1083 48.5825 84.6485 48.2167C83.8209 47.5536 82.9703 46.9135 82.0508 46.3876C81.706 46.1819 81.1772 46.2276 80.7864 46.2962C77.1083 46.8449 74.9473 47.325 72.1887 49.4055C70.5106 50.663 68.0048 53.4523 67.2462 55.4185C65.8439 59.0308 66.1657 63.3062 66.0508 67.1243C66.0508 67.2157 66.0968 67.33 66.1427 67.5358C66.3726 67.33 66.9014 66.8499 67.0623 66.7356V66.7127Z" fill="#323334" fill-opacity="0.3" shape-rendering="crispEdges"/>
</g>
<path d="M72.2816 94.9948C73.1092 93.4173 73.408 91.7025 72.9252 89.9421C72.8563 89.6449 72.6494 89.2791 72.3965 89.1648C72.2126 89.0962 71.7988 89.3248 71.6149 89.5306C70.8563 90.3765 70.1436 91.2453 69.408 92.1141C67.7758 94.0117 66.2586 96.0008 65.2471 98.2871C64.1206 100.893 63.2011 103.591 62.2586 106.289C59.8908 113.194 58.3275 120.235 58.0977 127.552C58.0977 128.032 58.1666 128.512 58.2126 128.992C58.3046 128.992 58.3735 129.038 58.4655 129.038C58.6034 128.695 58.7643 128.352 58.9023 128.009C60.7643 123.528 63.316 119.527 65.1551 115.046C66.7643 111.113 68.6264 106.472 70.0287 102.471C70.9482 99.8417 70.9482 97.4869 72.2586 94.9948H72.2816Z" fill="#323334" fill-opacity="0.3"/>
<path d="M51.2934 122.385C53.5003 119.871 55.4083 117.173 57.1325 114.315C60.8566 108.119 63.4313 101.512 64.006 94.2412C64.1669 92.275 64.2129 90.3317 63.2934 88.4798C62.6957 87.268 62.121 87.1766 61.3164 88.2511C57.7302 93.0066 55.983 98.448 55.5233 104.301C55.0405 110.565 53.2934 116.441 50.5807 122.065C50.3968 122.454 50.1439 122.843 49.9141 123.209C49.983 123.277 50.052 123.346 50.121 123.414C50.5118 123.071 50.9715 122.774 51.3164 122.385H51.2934Z" fill="#323334" fill-opacity="0.3"/>
<path d="M72.5129 88.0235C72.8578 88.0006 73.2256 87.4977 73.4095 87.2233C73.8233 86.5603 74.8578 84.9599 75.1796 84.2511C76.8807 80.7074 77.4325 79.5185 78.1221 75.929C78.1911 75.5175 78.398 72.8425 78.306 72.431C78.2601 72.1566 78.306 70.8077 78.2601 70.5105C78.0761 68.7501 77.7083 66.2351 77.5934 66.4638C77.2945 67.8584 76.0761 74.1914 75.8692 74.923C74.9497 78.101 74.0532 81.3018 73.1796 84.5026C72.9267 85.44 72.6968 86.3774 72.4669 87.2919C72.5589 87.3376 72.398 88.0235 72.4669 88.0006L72.5129 88.0235Z" fill="#323334" fill-opacity="0.3"/>
<path d="M130.513 66.462C130.835 70.3944 131.571 74.2354 132.697 78.0306C133.272 79.9283 133.893 81.8259 134.536 83.7006C135.64 87.0158 137.18 90.1251 139.272 92.9373C140.26 94.2633 140.973 95.7494 141.824 97.1669C141.87 97.2355 141.916 97.2812 142.077 97.4641C142.146 96.8239 142.237 96.321 142.26 95.818C142.329 92.8229 142.1 88.2275 143.962 85.9183C145.318 84.2493 145.801 81.4829 145.709 79.9054C145.525 76.8646 145.272 75.4243 143.962 72.635C140.95 66.1648 136.95 66.0962 132.835 64.633C131.341 64.1071 130.398 64.8616 130.513 66.4391V66.462Z" fill="#323334" fill-opacity="0.3"/>
<path d="M121.869 49.7716C122.674 53.3154 125.156 57.3621 126.995 60.5629C128.398 62.9864 128.49 62.3005 130.835 63.3294C132.03 63.8552 135.34 64.381 136.513 64.9755C137.524 65.4785 139.018 66.1186 139.961 66.7359C140.145 66.8502 140.674 67.3532 140.881 67.5361C140.926 67.3304 140.995 67.216 140.972 67.1246C140.835 63.3065 141.156 59.0311 139.777 55.4188C139.018 53.4526 136.536 50.6862 134.835 49.4058C132.076 47.3253 129.892 46.8681 126.237 46.2965C125.846 46.2279 125.294 46.205 124.972 46.3879C124.053 46.9366 123.202 47.5539 122.375 48.217C121.915 48.5828 121.731 49.1315 121.869 49.7488V49.7716Z" fill="#323334" fill-opacity="0.3"/>
<path d="M144.742 106.267C143.823 103.569 142.903 100.871 141.754 98.2647C140.765 95.9784 139.225 93.9893 137.593 92.0917C136.857 91.2458 136.144 90.3541 135.386 89.5082C135.202 89.3024 134.788 89.0509 134.604 89.1424C134.351 89.2567 134.144 89.6225 134.075 89.9197C133.593 91.6802 133.892 93.3949 134.719 94.9724C136.029 97.4416 136.052 99.8194 136.949 102.449C138.351 106.45 140.213 111.091 141.823 115.023C143.662 119.527 146.213 123.505 148.075 127.986C148.213 128.329 148.374 128.672 148.512 129.015C148.604 129.015 148.673 128.97 148.765 128.97C148.811 128.489 148.88 128.009 148.88 127.529C148.65 120.213 147.064 113.171 144.719 106.267H144.742Z" fill="#323334" fill-opacity="0.3"/>
<path d="M143.755 88.4565C142.835 90.3084 142.904 92.2517 143.042 94.2179C143.594 101.488 146.168 108.096 149.916 114.292C151.64 117.149 153.548 119.87 155.755 122.362C156.1 122.751 156.536 123.048 156.95 123.391C157.019 123.322 157.088 123.254 157.157 123.185C156.927 122.797 156.697 122.431 156.49 122.042C153.755 116.418 152.031 110.542 151.548 104.278C151.088 98.4476 149.341 92.9833 145.755 88.2279C144.95 87.1533 144.375 87.2219 143.778 88.4565H143.755Z" fill="#323334" fill-opacity="0.3"/>
<path d="M134.511 88.0222C134.511 88.0222 134.442 87.3592 134.511 87.3135C134.281 86.3761 134.051 85.4387 133.798 84.5242C132.901 81.3234 132.028 78.1226 131.108 74.9447C130.901 74.213 129.683 67.88 129.384 66.4854C129.269 66.2567 128.924 68.7488 128.717 70.5321C128.694 70.8293 128.717 72.1782 128.671 72.4526C128.602 72.8641 128.786 75.5391 128.855 75.9506C129.545 79.5401 130.097 80.729 131.798 84.2727C132.143 84.9815 133.177 86.559 133.568 87.2449C133.752 87.5193 134.12 88.0222 134.465 88.0451L134.511 88.0222Z" fill="#323334" fill-opacity="0.3"/>
<path d="M103.479 54.986C103.593 54.8489 103.639 54.8031 103.662 54.7345C104.053 53.2713 104.651 51.9224 105.685 50.8021C105.8 50.6649 105.8 50.3906 105.846 50.1848C105.639 50.1848 105.41 50.0705 105.226 50.1391C104.145 50.482 103.088 50.5049 102.007 50.1848C101.754 50.1162 101.456 50.1848 101.18 50.1848C101.272 50.4363 101.318 50.7564 101.502 50.9393C102.306 51.9224 102.858 53.0198 103.226 54.2087C103.295 54.4373 103.387 54.6431 103.502 54.9403L103.479 54.986Z" fill="#323334" fill-opacity="0.3"/>
<path d="M90.7864 24.212C90.9473 24.5549 91.1312 24.9207 91.4071 25.1722C91.591 25.3323 91.9358 25.4009 92.1887 25.3551H93.2002C93.3841 27.207 93.568 29.0132 93.7059 30.8422C93.7749 31.6653 94.1427 32.2826 94.8323 32.6484C97.2461 33.9287 100.028 35.7806 102.901 35.7806C106.074 35.7806 109.2 34.2945 111.913 32.8542C112.901 32.3283 113.361 31.4367 113.43 30.2935C113.522 28.6703 113.706 27.047 113.844 25.4466L114.855 25.3323C116.143 25.7667 117.154 22.2686 117.545 21.4684C118.327 19.8223 118.166 19.1593 116.648 18.1762L115.223 17.2159C115.039 17.0788 115.177 13.6722 115.108 13.1921C114.924 11.8889 114.671 10.4942 114.143 9.28251C111.798 3.79542 105.982 1.05187 100.258 2.56082C97.4071 3.31529 94.2117 6.05884 93.0392 8.80239C92.2346 10.6772 91.8438 12.6434 91.7519 14.6553C91.7059 15.5698 91.7059 16.4615 91.7519 17.3531L90.3266 18.1305C89.499 18.2448 88.6255 19.5937 88.9473 20.3253C89.522 21.6285 90.1197 22.9088 90.7404 24.1891L90.7864 24.212Z" fill="#323334" fill-opacity="0.3"/>
<path d="M82.6256 242.691C82.5566 242.553 82.3267 242.393 82.2348 242.416C82.0968 242.439 81.9589 242.668 81.9359 242.805C81.798 243.948 81.6141 245.068 81.5681 246.212L80.3957 253.162L78.5566 255.037C76.5336 257.666 74.7635 259.358 71.9129 261.118C71.6141 261.301 69.5911 262.993 68.2577 264.662C67.2003 265.988 66.6026 267.291 67.66 267.771C72.4417 269.875 76.3037 271.224 80.7865 267.634C81.9359 266.72 82.8554 265.851 84.2577 265.302C85.66 264.753 87.66 264.388 88.0968 262.673C88.1428 262.467 88.9474 259.335 88.9474 259.335V259.243C89.0394 259.015 89.1083 258.763 89.1313 258.535C89.2692 256.751 89.4072 254.991 89.5221 253.208C89.6141 251.882 89.1543 250.807 88.2348 249.801C86.1888 247.583 83.9129 245.526 82.6256 242.691Z" fill="#323334" fill-opacity="0.3"/>
<path d="M91.6389 203.366C91.6159 203.229 91.5239 198.954 91.409 198.633C91.294 198.976 90.6274 201.423 90.5814 201.606C90.4205 202.337 90.2596 203.046 90.0986 203.778C89.2251 207.641 88.3285 211.482 87.5009 215.346C87.0642 217.404 86.5354 219.439 86.3285 221.519C86.0067 224.811 85.8228 228.127 85.7308 231.442C85.6389 234.894 85.9837 238.301 86.9262 241.639C87.363 243.193 87.7998 244.748 88.2366 246.303C88.1216 246.257 88.0757 246.211 88.0297 246.12C87.6619 245.091 87.2481 244.062 86.9032 242.987C85.294 237.843 84.8343 232.539 84.7653 227.189C84.6963 221.291 84.4205 215.415 83.9837 209.539C83.7768 206.795 83.6619 204.052 83.6389 201.286C83.6159 198.062 84.0527 194.861 84.6044 191.66C84.7883 190.586 84.9262 189.488 85.1101 188.322C84.9262 188.391 84.8573 188.391 84.8343 188.437C84.6274 188.734 84.3975 189.008 84.1906 189.305C80.4205 194.564 78.2366 200.485 77.455 206.887C76.9262 211.185 76.7653 216.901 77.455 221.199C78.4435 227.372 78.6963 230.413 80.6734 236.334C81.432 238.552 83.386 242.324 84.8803 244.176C86.3055 245.937 87.7078 247.697 89.1331 249.458C89.317 249.663 89.5239 249.869 89.8458 250.189C89.9147 249.778 90.0067 249.549 89.9837 249.321C89.6389 247.24 89.455 245.091 88.8343 243.079C88.0757 240.701 87.9837 237.249 88.4894 234.78C89.7308 228.652 91.5929 226.115 92.9032 220.01C93.478 217.312 93.6159 213.563 93.0182 210.774C92.4435 208.122 92.1216 205.927 91.6159 203.275L91.6389 203.366Z" fill="#323334" fill-opacity="0.3"/>
<path d="M88.6952 182.355C88.3734 182.973 88.0056 183.59 87.7987 184.253C87.0631 186.585 86.3274 188.894 85.7297 191.249C84.9711 194.107 84.4884 197.033 84.5573 200.006C84.6263 203.206 84.6952 206.407 84.8332 209.608C84.9481 212.283 85.178 214.958 85.3849 217.656C85.3849 217.953 85.5228 218.227 85.5918 218.525C85.6608 218.525 85.7297 218.525 85.7757 218.525C85.8677 218.227 85.9826 217.953 86.0286 217.656C86.8792 213.723 87.7067 209.791 88.6033 205.881C89.0401 203.915 89.5918 201.949 90.0975 199.983C90.3734 198.885 90.7182 197.811 90.8792 196.691C91.2929 193.673 91.0401 190.655 90.7182 187.637C90.5343 185.899 90.0975 184.184 89.7527 182.47C89.7067 182.241 89.4769 181.99 89.27 181.921C89.132 181.875 88.8332 182.15 88.7412 182.333L88.6952 182.355Z" fill="#323334" fill-opacity="0.3"/>
<path d="M93.7529 158.212C93.7069 158.417 93.661 158.646 93.638 158.852C93.4311 161.138 93.2702 163.447 93.0403 165.734C92.8564 167.471 92.7184 169.209 92.3736 170.901C91.7759 173.896 91.0403 176.845 90.3966 179.817C90.3276 180.114 90.3046 180.457 90.3966 180.755C91.7529 184.916 91.9828 189.214 91.9368 193.535C91.9368 194.358 91.8908 195.158 91.8679 195.981C91.9368 195.981 91.9828 195.981 92.0518 195.981C94.5575 190.174 95.8679 184.093 96.1667 177.805C96.4885 171.152 95.8679 164.59 94.0288 158.166H93.7529V158.212Z" fill="#323334" fill-opacity="0.3"/>
<path d="M92.1206 158.143C92.1665 155.308 92.0746 152.473 91.4539 149.73C90.4654 145.432 89.27 141.202 88.2125 136.927C86.7872 131.188 85.4309 125.427 84.0286 119.688C83.8677 118.979 83.6608 118.293 83.4309 117.607C83.3849 117.447 83.155 117.356 83.0171 117.219C82.9252 117.379 82.7872 117.539 82.7413 117.699C82.6953 117.836 82.6953 118.019 82.6953 118.179C82.6953 119.962 82.7183 121.746 82.6953 123.529C82.6493 125.724 82.6033 127.919 82.4424 130.091C82.2585 132.423 81.8677 134.755 81.6608 137.087C81.224 141.659 80.7872 146.209 80.4654 150.781C80.2585 153.845 80.0516 156.909 80.1436 159.972C80.3045 165.368 80.6953 170.741 80.9711 176.136C81.1091 178.857 81.201 181.601 81.27 184.321C81.316 186.585 81.293 188.825 81.316 191.249C81.5229 191.02 81.6608 190.906 81.7527 190.769C83.247 188.574 84.8102 186.402 86.2355 184.138C87.5688 182.012 88.7872 179.817 89.5458 177.394C90.9481 172.936 91.4309 168.294 91.9137 163.676C92.0976 161.847 92.1206 159.972 92.1435 158.12L92.1206 158.143Z" fill="#323334" fill-opacity="0.3"/>
<path d="M99.9843 131.783C98.674 130.708 95.2027 129.108 93.9384 127.965C90.582 124.924 88.9039 123.986 86.4441 120.168C85.8694 119.3 85.3407 118.408 84.7889 117.539C84.72 117.539 84.651 117.562 84.582 117.585C84.628 118.019 84.651 118.454 84.72 118.888C85.3866 123.003 86.4901 127.004 87.7544 130.96C90.674 140.059 93.0418 149.319 95.1797 158.647C95.5475 160.224 95.8694 161.802 96.1912 163.402C96.3751 163.242 96.4441 163.059 96.4671 162.876C96.743 161.184 97.7315 157.846 97.9843 156.132C99.2717 150.233 99.3407 149.273 99.9613 144.357C100.536 139.51 100.651 138.664 100.651 135.921C100.651 133.383 100.674 132.354 99.9613 131.76L99.9843 131.783Z" fill="#323334" fill-opacity="0.3"/>
<path d="M75.8441 161.457C75.8441 161.617 80.2119 178.398 80.2579 178.535C80.3958 177.461 79.1314 161.182 79.2234 156.358C79.3613 149.637 80.1889 143.921 80.8096 137.199C80.9245 136.033 81.0855 134.867 81.2004 133.701C81.4303 131.163 81.7751 128.626 81.8211 126.065C81.8901 122.796 81.7291 119.526 81.6372 116.257C81.6142 115.045 81.4993 113.833 81.4073 112.645H81.1774C81.1314 112.827 81.0855 112.987 81.0395 113.148C80.6257 114.908 80.3039 116.691 79.8211 118.429C78.1199 124.373 76.028 131.324 75.4993 137.428C75.1544 141.475 74.1429 146.322 74.3268 149.888C74.5567 154.118 75.1314 156.701 75.8441 161.434V161.457Z" fill="#323334" fill-opacity="0.3"/>
<path d="M118.58 182.354C118.465 182.171 118.166 181.897 118.052 181.943C117.845 182.011 117.615 182.285 117.569 182.491C117.201 184.206 116.787 185.921 116.603 187.658C116.281 190.653 116.029 193.694 116.442 196.712C116.603 197.832 116.948 198.907 117.224 200.004C117.707 201.97 118.258 203.914 118.718 205.903C119.592 209.812 120.419 213.745 121.293 217.677C121.362 217.974 121.477 218.249 121.546 218.546C121.615 218.546 121.684 218.546 121.73 218.546C121.799 218.249 121.914 217.974 121.937 217.677C122.121 215.002 122.35 212.327 122.488 209.63C122.626 206.429 122.695 203.228 122.764 200.027C122.833 197.055 122.327 194.128 121.592 191.271C120.971 188.916 120.235 186.584 119.523 184.275C119.316 183.612 118.971 182.994 118.626 182.377L118.58 182.354Z" fill="#323334" fill-opacity="0.3"/>
<path d="M126.007 191.249C126.007 188.825 126.007 186.585 126.053 184.321C126.122 181.601 126.214 178.857 126.352 176.136C126.628 170.741 127.019 165.368 127.18 159.972C127.272 156.909 127.065 153.822 126.858 150.781C126.536 146.209 126.099 141.636 125.663 137.087C125.433 134.755 125.065 132.423 124.881 130.091C124.697 127.919 124.674 125.724 124.628 123.529C124.582 121.746 124.628 119.962 124.628 118.179C124.628 118.019 124.628 117.859 124.582 117.699C124.513 117.516 124.398 117.379 124.306 117.219C124.168 117.333 123.938 117.447 123.892 117.607C123.663 118.293 123.479 118.979 123.295 119.688C121.892 125.427 120.536 131.188 119.111 136.927C118.053 141.202 116.858 145.454 115.869 149.73C115.226 152.496 115.157 155.331 115.203 158.143C115.226 159.995 115.249 161.847 115.433 163.699C115.915 168.317 116.398 172.959 117.8 177.417C118.559 179.817 119.778 182.035 121.111 184.161C122.536 186.402 124.099 188.574 125.594 190.792C125.686 190.929 125.823 191.043 126.03 191.272L126.007 191.249Z" fill="#323334" fill-opacity="0.3"/>
<path d="M115.407 195.98C115.384 195.157 115.338 194.357 115.338 193.534C115.315 189.213 115.545 184.915 116.879 180.754C116.971 180.479 116.948 180.114 116.879 179.816C116.212 176.844 115.476 173.872 114.902 170.9C114.557 169.208 114.419 167.47 114.235 165.733C114.005 163.447 113.844 161.137 113.637 158.851C113.637 158.645 113.568 158.417 113.522 158.211C113.43 158.211 113.338 158.211 113.246 158.211C111.407 164.635 110.787 171.174 111.108 177.85C111.407 184.16 112.718 190.219 115.223 196.026C115.292 196.026 115.338 196.026 115.407 196.026V195.98Z" fill="#323334" fill-opacity="0.3"/>
<path d="M118.143 249.549C119.568 247.789 120.971 246.029 122.396 244.268C123.89 242.393 125.844 238.644 126.603 236.426C128.603 230.505 128.856 227.464 129.821 221.291C130.511 216.993 130.35 211.277 129.821 206.979C129.04 200.577 126.856 194.656 123.085 189.397C122.879 189.1 122.672 188.803 122.442 188.528C122.442 188.506 122.373 188.506 122.166 188.414C122.35 189.603 122.488 190.677 122.672 191.752C123.223 194.93 123.66 198.131 123.637 201.377C123.637 204.121 123.499 206.887 123.292 209.631C122.856 215.507 122.557 221.382 122.511 227.281C122.465 232.608 121.982 237.935 120.373 243.079C120.051 244.131 119.637 245.16 119.246 246.211C119.223 246.28 119.177 246.349 119.04 246.394C119.476 244.84 119.913 243.285 120.35 241.73C121.315 238.392 121.637 234.986 121.545 231.533C121.453 228.218 121.269 224.903 120.948 221.611C120.741 219.53 120.212 217.473 119.775 215.438C118.925 211.574 118.051 207.733 117.177 203.869C117.017 203.138 116.856 202.429 116.695 201.697C116.649 201.515 115.982 199.068 115.867 198.725C115.752 199.045 115.66 203.321 115.637 203.458C115.131 206.11 114.81 208.328 114.235 210.957C113.637 213.746 113.775 217.496 114.35 220.193C115.637 226.321 117.522 228.836 118.764 234.963C119.269 237.409 119.177 240.862 118.419 243.262C117.798 245.274 117.614 247.423 117.269 249.504C117.223 249.71 117.338 249.961 117.407 250.373C117.729 250.03 117.936 249.847 118.12 249.641L118.143 249.549Z" fill="#323334" fill-opacity="0.3"/>
<path d="M131.455 161.457C132.144 156.725 132.742 154.141 132.972 149.912C133.156 146.322 132.167 141.475 131.799 137.451C131.271 131.347 129.179 124.397 127.478 118.452C126.972 116.715 126.65 114.931 126.259 113.171C126.213 113.011 126.167 112.828 126.121 112.668H125.891C125.822 113.88 125.708 115.069 125.662 116.28C125.57 119.55 125.409 122.819 125.478 126.088C125.524 128.626 125.868 131.164 126.098 133.725C126.213 134.891 126.374 136.057 126.489 137.223C127.11 143.922 127.937 149.637 128.075 156.382C128.167 161.206 126.88 177.484 127.041 178.559C127.087 178.399 131.432 161.64 131.455 161.48V161.457Z" fill="#323334" fill-opacity="0.3"/>
<path d="M112.073 158.647C114.211 149.341 116.579 140.082 119.498 130.96C120.763 127.004 121.866 122.98 122.533 118.888C122.602 118.454 122.625 118.019 122.671 117.585C122.602 117.585 122.533 117.562 122.464 117.539C121.912 118.408 121.383 119.3 120.809 120.168C118.326 123.964 116.648 124.924 113.314 127.965C112.05 129.108 108.602 130.708 107.268 131.783C106.533 132.377 106.579 133.406 106.579 135.944C106.579 138.687 106.694 139.533 107.268 144.38C107.889 149.296 107.958 150.279 109.245 156.155C109.475 157.846 110.464 161.207 110.763 162.899C110.786 163.082 110.855 163.265 111.038 163.425C111.383 161.847 111.705 160.247 112.05 158.669L112.073 158.647Z" fill="#323334" fill-opacity="0.3"/>
<path d="M135.363 261.118C132.512 259.358 130.742 257.689 128.719 255.037L126.88 253.162L125.708 246.212C125.662 245.068 125.501 243.925 125.34 242.805C125.34 242.645 125.156 242.439 125.041 242.416C124.926 242.393 124.696 242.553 124.65 242.691C123.363 245.526 121.087 247.583 119.041 249.801C118.122 250.807 117.662 251.882 117.754 253.208C117.869 254.991 118.007 256.751 118.145 258.535C118.145 258.763 118.236 259.015 118.305 259.243V259.335C118.305 259.335 119.11 262.467 119.156 262.673C119.593 264.388 121.593 264.753 122.995 265.302C124.397 265.851 125.317 266.72 126.466 267.634C130.949 271.224 134.811 269.875 139.593 267.771C140.673 267.291 140.053 265.988 138.995 264.662C137.685 263.016 135.662 261.301 135.34 261.118H135.363Z" fill="#323334" fill-opacity="0.3"/>
<g filter="url(#filter11_d_350_16940)">
<path d="M114.558 73.7324C115.248 77.1847 115.915 80.637 116.719 84.0665C116.949 85.0267 117.524 85.9412 118.121 86.7185C118.903 87.7474 119.846 88.6848 120.788 89.5993C122.236 91.0168 123.34 92.64 123.869 94.6291C123.915 94.8349 124.007 95.0406 124.144 95.3836C124.926 94.4234 125.202 93.4402 125.271 92.4343L125.731 87.7017C125.823 87.1758 125.915 86.65 125.984 86.1241C126.42 82.5575 126.466 78.968 126.259 75.3785C126.144 73.4352 125.984 71.5147 125.8 69.5714C125.731 68.7254 125.455 68.5654 124.673 68.8398L116.167 72.0406C116.03 72.0406 115.915 72.0406 115.754 72.0863C114.857 72.2235 114.374 72.8179 114.558 73.7096V73.7324Z" fill="#323334" fill-opacity="0.3" shape-rendering="crispEdges"/>
</g>
<g filter="url(#filter12_d_350_16940)">
<path d="M82.5821 68.9314C82.5821 68.9314 82.5362 68.9314 82.5132 68.9086H82.4442V68.8857C81.5477 68.5428 81.3638 68.8857 81.2028 70.2346C80.7661 74.2128 80.6051 78.1909 80.835 82.1919C80.927 83.7923 81.2028 85.9414 81.3867 87.7019L81.8005 92.0687C81.8005 92.1144 81.8005 92.1373 81.8005 92.183C81.8005 93.3033 82.0764 94.355 82.858 95.3152C82.973 95.1781 83.0419 95.1323 83.0649 95.0638C83.1339 94.858 83.2028 94.6294 83.2718 94.4236C83.7086 93.0061 84.3293 91.7029 85.3867 90.6055C86.2833 89.6681 87.1799 88.7536 88.0534 87.8162C89.4327 86.353 90.4442 84.7068 90.7431 82.672C90.812 82.2148 90.927 81.7347 91.0189 81.2774C91.5247 78.8311 92.0534 76.3848 92.5132 73.9156C92.7201 72.7953 92.2373 72.2008 91.0879 72.0865C91.0419 72.0865 90.9959 72.0865 90.95 72.0865L82.6051 68.9543L82.5821 68.9314Z" fill="#323334" fill-opacity="0.3" shape-rendering="crispEdges"/>
</g>
<path d="M112.811 41.3576C111.937 43.3696 110.443 44.9242 108.971 46.5018C108.213 47.3249 107.431 48.1022 106.673 48.9024C106.558 49.0167 106.558 49.2225 106.512 49.3825C106.673 49.4282 106.857 49.5426 106.994 49.5197C107.408 49.4511 107.845 49.3597 108.259 49.2453C110.144 48.7652 112.029 48.2851 113.914 47.805C114.811 47.5763 115.684 47.3477 116.581 47.0962C116.581 47.0962 116.581 47.0962 116.627 47.0962C117.822 46.7533 119.845 47.5992 120.903 48.2622C121.5 46.7533 124.397 45.8616 124.397 45.8616L121.477 44.5813C120.811 44.3069 120.305 44.1012 119.799 43.8726C117.822 42.958 115.845 42.0435 113.891 41.1061C113.454 40.9004 113.04 40.8318 112.811 41.3576Z" fill="#323334" fill-opacity="0.3"/>
<path d="M102.121 56.0379C101.937 53.4773 100.626 51.6025 98.1667 50.688C95.638 49.7506 93.0862 48.8361 90.5115 48.0588C88.5805 47.4643 86.0977 49.5449 85.454 51.2596C84.1437 54.689 82.3736 57.8898 80.5805 61.0906C80.1437 61.8451 79.9138 62.7139 79.638 63.537C79.454 64.0857 79.592 64.6115 80.0288 65.0231C82.4196 67.2636 85.0403 69.2298 88.1207 70.4187C90.4426 71.3332 92.8563 71.539 95.3391 71.1274C99.1322 70.533 102.144 66.7835 102.305 63.194C102.397 60.8163 102.305 58.4157 102.121 56.0151V56.0379Z" fill="#323334" fill-opacity="0.3"/>
<path d="M85.7989 48.2404C86.8794 47.5545 88.8794 46.7314 90.0748 47.0744C90.0748 47.0744 90.0748 47.0744 90.1208 47.0744C90.9943 47.3259 91.8909 47.5545 92.7874 47.7831C94.6725 48.2861 96.5576 48.7434 98.4426 49.2235C98.8564 49.3378 99.2702 49.4292 99.707 49.4978C99.8679 49.4978 100.029 49.4064 100.19 49.3607C100.144 49.2006 100.144 48.9948 100.029 48.8805C99.2702 48.0803 98.4886 47.2801 97.73 46.4799C96.2817 44.9024 94.7874 43.3477 93.8909 41.3358C93.661 40.7871 93.2472 40.8785 92.8104 41.0843C90.8334 41.9988 88.8794 42.9362 86.9024 43.8507C86.3966 44.0793 85.8679 44.2851 85.2242 44.5594L82.3047 45.8398C82.3047 45.8398 85.2012 46.7086 85.7989 48.2404Z" fill="#323334" fill-opacity="0.3"/>
<path d="M57.1767 128.49C57.3146 125.838 57.6135 123.185 57.8664 120.533C57.9123 120.145 57.9353 119.756 57.9813 119.39L58.8319 115.023C58.9008 114.703 58.9698 114.383 59.0388 114.063C59.0847 113.789 59.0388 113.514 59.0388 113.08C56.533 116.647 54.1192 120.053 51.7054 123.483L50.0503 125.083C48.9698 125.243 47.9583 125.655 47.1767 126.386C45.5675 127.872 44.0503 129.45 42.487 130.982L40.9928 132.811C39.9353 133.245 38.9008 133.68 37.8664 134.137C37.7284 134.205 37.6365 134.663 37.7284 134.846C38.1422 135.646 38.8778 136.012 39.7974 136.149C41.2227 135.829 42.6709 135.509 44.1422 135.189L45.4066 135.669C45.4066 135.669 45.3376 135.783 45.2916 135.852C45.2227 135.943 45.1767 136.034 45.1307 136.149C43.9583 138.229 42.7399 140.287 41.5905 142.39C41.0388 143.396 40.0273 144.334 40.0962 145.568C40.1192 146.048 40.487 146.368 40.7859 146.574C40.9008 146.666 41.3606 146.346 41.6135 146.14C41.8434 145.957 42.0043 145.705 42.1652 145.454C43.2916 143.625 44.3951 141.796 45.4985 139.944C46.0043 139.098 46.51 138.252 46.9698 137.383L47.3376 137.818C46.1422 139.875 44.9468 141.91 43.7974 143.991C42.9928 145.454 42.2801 146.963 41.5445 148.449C41.1307 149.295 41.6135 150.232 42.7169 150.187C42.9468 150.004 43.4755 149.752 43.7514 149.341C44.2801 148.586 44.648 147.717 45.0847 146.917C46.3031 144.677 47.4985 142.413 48.7169 140.173L49.1307 140.881C48.2342 142.459 47.3606 144.059 46.533 145.683C45.9353 146.849 45.4066 148.037 44.8778 149.226C44.556 149.935 44.8549 150.369 45.5675 150.369C46.2572 150.369 46.8089 150.095 47.1307 149.478C47.5445 148.678 47.9123 147.855 48.3031 147.054C49.0388 145.568 49.7744 144.105 50.533 142.642L51.1077 143.282C51.0158 143.419 50.9468 143.556 50.8778 143.716C50.3951 144.837 49.7744 145.865 49.2457 146.963C49.1537 147.169 49.1767 147.649 49.2687 147.672C49.5215 147.786 49.8664 147.74 50.1422 147.695C50.2572 147.695 50.3491 147.534 50.4411 147.443C51.7974 145.843 52.7859 144.036 53.7284 142.185L56.533 138.458C58.3951 136.126 58.625 134.137 57.6595 131.393C57.3376 130.479 57.1537 129.45 57.1997 128.49H57.1767Z" fill="#323334" fill-opacity="0.3"/>
<path d="M169.177 134.158C168.143 133.724 167.108 133.267 166.051 132.832L164.557 131.003C162.993 129.471 161.453 127.894 159.867 126.408C159.085 125.676 158.074 125.265 156.993 125.105L155.338 123.504C152.924 120.098 150.511 116.668 148.005 113.102C148.005 113.513 147.959 113.81 148.005 114.085C148.074 114.405 148.12 114.725 148.212 115.045L149.062 119.412C149.108 119.8 149.131 120.189 149.177 120.555C149.407 123.207 149.706 125.859 149.867 128.511C149.913 129.471 149.729 130.5 149.407 131.415C148.442 134.135 148.671 136.147 150.534 138.479L153.338 142.183C154.281 144.035 155.246 145.864 156.625 147.465C156.717 147.556 156.809 147.716 156.924 147.716C157.223 147.762 157.545 147.785 157.798 147.693C157.89 147.647 157.913 147.167 157.821 146.984C157.292 145.887 156.671 144.835 156.189 143.738C156.12 143.578 156.051 143.441 155.959 143.303L156.534 142.663C157.292 144.127 158.028 145.613 158.763 147.076C159.154 147.876 159.522 148.699 159.936 149.499C160.258 150.117 160.809 150.391 161.499 150.391C162.212 150.391 162.511 149.979 162.189 149.248C161.66 148.059 161.131 146.847 160.534 145.704C159.706 144.081 158.809 142.503 157.936 140.903L158.35 140.194C159.568 142.435 160.763 144.675 161.982 146.939C162.419 147.762 162.786 148.608 163.315 149.362C163.591 149.774 164.12 150.025 164.35 150.208C165.453 150.231 165.936 149.316 165.522 148.47C164.786 146.984 164.074 145.475 163.269 144.012C162.12 141.932 160.924 139.897 159.729 137.839L160.097 137.405C160.557 138.274 161.062 139.12 161.568 139.965C162.671 141.795 163.775 143.646 164.901 145.475C165.062 145.727 165.223 145.978 165.453 146.161C165.706 146.367 166.166 146.687 166.281 146.596C166.58 146.413 166.924 146.07 166.97 145.59C167.039 144.378 166.028 143.418 165.476 142.412C164.327 140.308 163.131 138.251 161.936 136.17C161.89 136.079 161.821 135.964 161.775 135.873C161.729 135.804 161.706 135.759 161.66 135.69L162.924 135.21C164.373 135.553 165.844 135.85 167.269 136.17C168.189 136.033 168.924 135.667 169.338 134.867C169.43 134.684 169.338 134.204 169.2 134.158H169.177Z" fill="#323334" fill-opacity="0.3"/>
<path d="M291.996 48.4196C291.242 46.5907 290.053 45.1962 287.905 44.8761C285.276 44.4875 282.624 44.2589 279.995 44.7161C277.847 45.1047 275.767 45.7448 273.641 46.2706C273.641 46.3621 273.641 46.4764 273.641 46.5678C276.749 47.5051 277.984 49.9513 278.715 52.786C278.99 53.8605 279.195 54.9807 279.447 56.0551C279.973 58.3641 280.453 60.6959 281.778 62.6848C283.904 65.9082 286.122 69.063 288.362 72.195C290.373 75.0069 292.476 77.7502 293.505 81.1108C293.734 81.8195 293.871 82.551 294.077 83.4197C294.145 82.2538 294.237 81.2479 294.237 80.2649C294.168 72.7437 294.054 65.2453 294.031 57.724C294.031 54.4549 293.208 51.3915 291.973 48.4196H291.996Z" fill="#323334" fill-opacity="0.3"/>
<path d="M302.603 44.6936C300.637 44.8994 298.946 45.4938 297.917 47.3226C296.751 49.4487 295.928 51.7577 295.677 54.1124C295.288 57.7244 295.174 61.3593 295.128 64.9942C295.037 70.2065 295.105 75.4188 295.128 80.6311C295.128 81.4541 295.22 82.2999 295.243 83.1229C296.02 78.8251 298.557 75.4874 301.049 72.1268C302.603 70.0236 304.135 67.9432 305.643 65.8172C307.221 63.5768 308.615 61.2678 309.301 58.5702C309.804 56.5128 310.238 54.4324 310.764 52.3749C311.312 50.3174 312.227 48.4657 314.124 47.2998C314.627 47.0026 315.176 46.7968 315.701 46.5454C315.701 46.4768 315.701 46.4082 315.701 46.3396C314.055 45.8824 312.432 45.3566 310.764 44.968C308.066 44.3279 305.323 44.4193 302.58 44.6936H302.603Z" fill="#323334" fill-opacity="0.3"/>
<path d="M295.197 119.037C295.197 120.752 295.129 122.466 295.129 124.181C295.129 124.386 295.243 124.592 295.312 124.798C295.518 124.684 295.769 124.592 295.883 124.409C296.569 123.403 297.255 122.398 297.849 121.369C299.632 118.26 300.569 114.808 301.712 111.424C302.489 109.092 303.244 106.715 304.638 104.657C305.415 103.469 306.238 102.303 307.724 101.891C308.753 101.594 308.776 101.571 308.707 100.474C308.41 96.3131 307.267 92.381 304.775 89.0433C302.878 86.5058 300.615 84.2654 298.512 81.8879C298.329 81.6821 298.078 81.5678 297.826 81.4306C297.415 81.2249 297.003 81.2935 296.866 81.7507C296.363 83.3281 295.632 84.8826 295.449 86.5058C295.175 88.8833 295.289 91.2837 295.289 93.6841C295.289 98.2106 295.289 102.737 295.289 107.264H295.243C295.243 111.196 295.243 115.128 295.243 119.06L295.197 119.037Z" fill="#323334" fill-opacity="0.3"/>
<path d="M294.167 89.5462C294.167 89.5462 294.076 86.963 293.87 85.7285C293.641 84.4483 293.07 83.2138 292.613 81.9793C292.338 81.2477 291.95 81.1334 291.287 81.5449C291.013 81.7049 290.784 81.9335 290.555 82.1622C289.664 83.1452 288.772 84.1282 287.904 85.1112C286.944 86.1857 285.984 87.2602 285.069 88.3575C283.789 89.8892 282.989 91.6723 282.235 93.5012C281.252 95.8787 280.772 98.3477 280.635 100.885C280.612 101.411 280.795 101.685 281.32 101.8C282.349 102.005 283.126 102.6 283.789 103.4C285.595 105.526 286.464 108.109 287.355 110.67C288.224 113.207 289.047 115.745 289.984 118.237C290.83 120.454 291.973 122.558 293.459 124.432C293.573 124.592 293.801 124.661 293.984 124.798C294.076 124.592 294.213 124.409 294.213 124.204C294.213 123.723 294.144 123.243 294.144 122.763C294.144 111.676 294.144 100.611 294.144 89.5234L294.167 89.5462Z" fill="#323334" fill-opacity="0.3"/>
<path d="M319.22 68.7662L319.106 66.1372C319.106 65.9772 319.06 65.7943 318.992 65.5657C318.809 64.9484 318.603 64.354 318.397 63.7368C317.254 60.582 315.288 58.0216 312.545 56.0784C311.357 55.2554 310.808 55.5068 310.534 56.9014C310.145 59.0046 309.574 61.0621 308.499 62.8909C307.562 64.4912 306.442 66 305.39 67.5546L303.882 70.0236C302.19 72.6297 300.476 75.213 298.784 77.8192C298.213 78.7107 298.19 79.6252 298.853 80.4939C300.796 83.1458 303.105 85.4547 305.939 87.1693C308.065 88.4495 310.237 88.4038 312.408 87.3293C314.74 86.1634 316.203 84.1745 317.346 81.9113C318.923 78.8022 319.38 75.4416 319.403 71.4867C319.38 70.9152 319.312 69.8178 319.243 68.7434L319.22 68.7662Z" fill="#323334" fill-opacity="0.3"/>
<path d="M290.077 81.156C291.289 79.6472 291.38 79.0299 290.352 77.4068C288.797 74.9607 287.151 72.5603 285.574 70.137L284.34 68.0338H284.248C284.18 67.8738 284.088 67.6909 283.951 67.508C283.151 66.3878 282.305 65.3133 281.574 64.1474C280.111 61.8385 279.242 59.3009 278.785 56.6262C278.602 55.6203 278.076 55.3688 277.185 55.8946C276.819 56.1004 276.453 56.3747 276.111 56.6262C273.253 58.9123 271.424 61.8842 270.419 65.3819C270.327 65.6791 270.282 65.9077 270.282 66.1135L270.167 68.7882C270.099 69.8398 270.03 70.8914 269.984 71.943C270.03 72.9489 270.076 73.9319 270.144 74.9378C270.442 78.4584 271.562 81.6818 273.665 84.5166C274.968 86.254 276.659 87.4428 278.785 87.9914C280.842 88.5172 282.648 87.7857 284.34 86.6655C286.58 85.1567 288.409 83.2135 290.1 81.1331L290.077 81.156Z" fill="#323334" fill-opacity="0.3"/>
<g filter="url(#filter13_d_350_16940)">
<path d="M318.124 82.0262C318.124 82.0262 317.987 81.9805 317.918 81.9805C317.827 82.1862 317.735 82.4148 317.598 82.6206C316.912 83.8322 316.272 85.0896 315.495 86.2326C314.695 87.4214 313.712 88.473 312.249 88.8388C310.26 89.3646 308.317 89.2045 306.42 88.4273C306.26 88.3587 306.077 88.313 305.734 88.2215C308.066 92.4737 309.232 96.9087 310.1 101.664C310.603 101.321 310.969 101.138 311.266 100.864C312.729 99.5377 313.758 97.8917 314.604 96.1314C316.432 92.3365 317.301 88.2901 317.872 84.1523C317.964 83.4436 318.032 82.7349 318.124 82.0262Z" fill="#323334" fill-opacity="0.3" shape-rendering="crispEdges"/>
</g>
<g filter="url(#filter14_d_350_16940)">
<path d="M283.517 88.2201C283.288 88.2659 283.22 88.2659 283.128 88.3116C281.78 88.906 280.385 89.1574 278.922 89.0889C277.345 88.9974 275.768 88.7231 274.762 87.3514C273.711 85.934 272.796 84.4024 271.836 82.9164C271.653 82.6421 271.585 82.2991 271.448 82.002C271.402 82.002 271.333 82.0248 271.288 82.0477C271.288 82.162 271.265 82.2763 271.288 82.3677C271.836 85.7969 272.202 89.226 273.368 92.5409C274.213 95.0099 275.219 97.3645 276.797 99.422C277.254 100.039 277.825 100.588 278.419 101.091C279.082 101.685 279.311 101.571 279.471 100.725C279.471 100.657 279.471 100.588 279.494 100.519C280.111 97.1131 280.98 93.7982 282.42 90.6434C282.763 89.8661 283.128 89.0889 283.54 88.243L283.517 88.2201Z" fill="#323334" fill-opacity="0.3" shape-rendering="crispEdges"/>
</g>
<path d="M299.31 44.5778L302.556 43.8006C304.568 43.8691 306.602 43.8463 308.637 43.8691C308.728 43.8691 308.842 43.8234 309.117 43.7548C308.819 43.5719 308.659 43.4805 308.499 43.3891C307.265 42.6575 306.008 41.9488 304.796 41.1715C303.242 40.2114 302.51 38.7483 302.419 36.9423C302.35 35.3648 302.19 33.8103 302.122 32.2329C302.03 29.8782 301.345 27.7064 300.156 25.6718C300.042 25.4889 299.904 25.3517 299.767 25.1917C299.699 25.2146 299.607 25.2374 299.539 25.2603C299.813 28.3465 300.065 31.4556 300.339 34.5647C300.293 34.3818 300.225 34.1761 300.202 33.9932C299.79 31.0213 299.402 28.0265 298.967 25.0545C298.922 24.7345 298.693 24.3001 298.419 24.1401C296.156 22.8142 293.847 22.7913 291.492 23.9344C290.784 24.2773 290.578 24.7345 290.532 25.4889C290.372 28.8495 289.915 32.1643 289.046 35.4334C288.955 35.7763 288.795 36.0964 288.681 36.4393C289.481 31.6842 290.007 26.0376 289.572 25.1917C289.389 25.4432 289.184 25.6718 289.046 25.9004C288.155 27.4092 287.584 29.0552 287.424 30.8155C287.218 33.033 287.103 35.2734 286.875 37.5138C286.715 38.9997 286.166 40.3714 284.84 41.2173C283.697 41.9488 282.509 42.6346 281.32 43.3433C281.114 43.4576 280.886 43.5719 280.543 43.7548C280.817 43.8234 280.932 43.892 281.069 43.892C283.217 43.8691 285.366 43.8234 287.515 43.7777L290.327 44.6235C293.207 46.8868 294.373 49.9044 294.716 53.5165C295.218 51.6876 295.561 50.0873 296.133 48.5556C296.727 46.9554 297.893 45.7666 299.333 44.6007L299.31 44.5778Z" fill="#323334" fill-opacity="0.3"/>
<path d="M281.687 23.7991C281.939 24.3478 282.213 24.9193 282.579 25.4223C282.739 25.628 283.15 25.7423 283.447 25.7423H284.407C284.499 26.451 284.59 27.1597 284.682 27.8684C284.842 29.1029 284.933 30.3602 285.07 31.6176C285.185 32.5092 285.825 32.9435 286.648 33.355C286.693 33.0578 286.739 32.8292 286.785 32.6235C287.013 31.2747 287.151 29.903 287.471 28.5771C287.905 26.7939 288.522 25.0108 290.076 23.8677C292.751 21.8788 295.608 21.7874 298.603 23.2048C300.157 23.9363 301.026 25.2165 301.575 26.7253C302.077 28.1199 302.352 29.583 302.649 31.0232C302.809 31.7776 302.855 32.532 302.969 33.4236C303.7 33.0121 304.318 32.6235 304.455 31.8691C304.66 30.6803 304.729 29.4687 304.912 28.2799C305.026 27.434 305.141 26.611 305.255 25.7652H306.146C306.466 25.6509 306.786 25.5594 307.084 25.3994C307.221 25.3308 307.289 25.1022 307.358 24.9422C308.021 23.5477 308.684 22.1532 309.347 20.7358C309.415 20.5757 309.461 20.3929 309.507 20.2785C309.507 19.6613 308.547 18.4725 307.975 18.4497L306.466 17.8324C306.626 15.7292 306.581 13.6031 306.101 11.4771C304.821 5.57894 299.38 1.60113 293.46 2.33268C291.037 2.62987 288.865 3.54431 287.082 5.23602C284.27 7.8879 283.219 11.317 283.059 15.0662C283.013 16.0721 283.059 17.0552 283.15 18.061L281.687 18.4725C280.796 18.4725 279.95 19.9814 280.293 20.7815C280.75 21.8102 281.207 22.8161 281.664 23.8449L281.687 23.7991Z" fill="#323334" fill-opacity="0.3"/>
<path d="M280.866 103.513C280.866 103.513 280.683 103.33 280.569 103.239C280.409 103.125 280.249 103.033 280.089 102.942C279.929 102.85 279.723 102.873 279.403 102.805C276.82 102.965 274.648 104.199 273.003 106.348C271.814 107.926 271.22 109.846 270.74 111.743C270.214 113.847 269.802 115.973 269.391 118.076C269.345 118.327 269.505 118.624 269.574 118.899C269.848 118.785 270.214 118.762 270.374 118.556C270.922 117.824 271.517 117.07 271.928 116.247C272.065 115.973 272.203 115.698 272.34 115.447L274.694 113.092L276.02 112.246C276.477 111.972 276.934 111.743 277.437 111.583C279.266 110.989 281.163 110.555 283.038 110.097C283.815 109.914 284.021 109.8 283.815 109.046C283.472 107.834 283.061 106.622 282.603 105.434C282.466 105.091 282.329 104.862 282.146 104.748V104.679L280.866 103.513Z" fill="#323334" fill-opacity="0.3"/>
<path d="M274.577 133.578C274.509 131.337 274.189 129.12 272.84 127.131C272.2 126.216 271.4 125.439 270.234 125.096C268.84 124.662 268.017 125.005 267.811 126.308C267.445 128.594 267.125 130.903 266.988 133.212C266.805 136.069 266.668 138.95 266.737 141.808C266.828 146.22 266.92 150.632 267.377 155.021C267.925 160.371 268.863 165.697 269.64 171.047C269.708 171.595 269.846 172.121 269.96 172.67L271.148 179.3C271.148 179.437 271.148 179.551 271.148 179.688C271.103 182.386 270.783 185.106 270.714 187.804C270.668 189.153 270.874 190.501 271.057 191.85C271.126 192.422 271.423 192.97 271.606 193.542C271.674 193.542 271.766 193.542 271.834 193.519C271.903 193.405 271.971 193.291 272.017 193.176C273.046 190.844 273.96 188.467 275.149 186.204C277.458 181.791 278.601 177.151 278.806 172.281C278.966 168.441 279.126 164.623 279.309 160.782C279.378 159.616 279.583 158.45 279.675 157.284C279.881 154.335 280.132 151.386 280.223 148.414C280.292 146.723 280.155 145.008 279.995 143.316C279.926 142.425 279.561 142.196 278.601 142.471C278.006 142.653 277.412 142.836 276.818 143.065C275.789 143.408 273.297 144.048 273.274 142.516C274.029 139.59 274.646 136.641 274.532 133.6L274.577 133.578Z" fill="#323334" fill-opacity="0.3"/>
<path d="M278.214 192.948C278.534 192.696 278.74 192.559 278.969 192.376C279.586 191.873 280.157 191.302 280.82 190.844C281.46 190.41 281.575 190.159 281.14 189.519C279.997 187.781 279.06 185.929 278.534 183.918C278.511 183.826 278.443 183.735 278.283 183.438C277.574 184.763 276.934 185.952 276.317 187.141C276.066 187.621 276.203 188.033 276.454 188.49C276.957 189.427 277.346 190.41 277.757 191.37C277.94 191.827 278.054 192.33 278.214 192.925V192.948Z" fill="#323334" fill-opacity="0.3"/>
<path d="M285.278 111.767C284.981 110.669 284.387 110.327 283.061 110.509C280.295 110.852 277.986 111.995 276.043 113.596C273.117 116.019 271.357 119.037 270.031 122.26C269.665 123.197 269.848 123.586 270.923 124.089C272.66 124.912 273.78 126.146 274.329 127.747C275.129 130.147 275.586 132.593 275.472 135.062C275.38 136.868 275.106 138.674 274.9 140.457C274.694 141.715 275.38 142.195 276.797 141.806C280.409 140.823 283.838 139.497 286.97 137.645C289.827 135.954 292.273 133.965 293.736 131.199C294.513 129.736 294.467 128.547 293.37 127.129C289.69 122.397 286.855 117.299 285.301 111.767H285.278Z" fill="#323334" fill-opacity="0.3"/>
<g filter="url(#filter15_d_350_16940)">
<path d="M272.794 105.389C273.274 104.954 273.639 104.383 274.165 103.971C275.011 103.308 275.925 102.714 276.84 102.074C275.925 100.954 275.011 99.8333 274.074 98.7132C273.685 98.2559 273.274 98.2559 273.159 98.736C272.656 100.816 272.199 102.897 271.765 104.977C271.719 105.183 271.902 105.571 272.085 105.64C272.268 105.709 272.634 105.549 272.794 105.389Z" fill="#323334" fill-opacity="0.3" shape-rendering="crispEdges"/>
</g>
<path d="M275.332 189.426C275.081 189.426 274.761 189.746 274.647 190.02C273.938 191.346 272.818 192.786 272.155 194.135C270.578 197.404 269.686 198.867 268.52 202.937C267.858 205.223 267.057 207.395 266.829 209.521C266.692 210.847 266.715 213.567 266.829 214.619C267.057 217.133 268.84 218.482 271.241 219.122C273.069 219.602 274.304 218.871 274.441 217.065C274.601 214.939 274.555 212.79 274.761 210.664C275.104 207.143 275.492 203.645 275.972 200.148C276.315 197.656 276.795 195.187 276.795 192.649C276.795 191.689 276.521 190.82 276.064 190.02C275.927 189.769 275.584 189.449 275.355 189.449L275.332 189.426Z" fill="#323334" fill-opacity="0.3"/>
<path d="M291.676 137.394C291.676 137.394 291.676 137.189 291.676 137.074C291.608 136.48 290.922 136.228 290.51 136.64C289.367 137.783 287.836 138.4 286.327 138.995C283.813 139.955 282.647 141.784 282.304 144.024C281.893 146.607 281.641 149.213 281.39 151.82C281.093 154.906 280.841 157.992 280.613 161.101C280.43 163.799 280.178 166.519 280.201 169.217C280.201 169.468 280.201 169.72 280.201 169.971L279.104 180.853C278.875 181.539 278.784 182.248 278.944 182.979C279.47 185.654 280.841 188.009 282.761 190.089C283.356 190.752 283.721 191.392 283.698 192.215C283.698 192.786 283.744 193.381 283.767 193.952L283.836 200.125C283.973 200.148 284.11 200.171 284.247 200.193C284.521 199.736 284.75 199.279 285.047 198.822C287.584 192.924 288.042 189.723 289.39 184.602C290.533 180.19 291.516 175.023 291.699 171.709C292.042 165.696 292.088 157.489 292.431 151.477C292.476 150.631 291.699 140.229 291.676 139.383V137.371V137.394Z" fill="#323334" fill-opacity="0.3"/>
<path d="M282.646 199.28C282.646 198.092 282.692 196.08 282.76 194.891C282.806 194.045 282.806 193.199 282.76 192.353C282.76 191.851 282.372 191.622 281.823 191.851C281.206 192.102 280.543 192.376 280.063 192.765C278.783 193.794 278.097 195.165 277.708 196.583C276.657 200.423 276.177 204.333 275.834 208.265C275.765 210.368 275.605 212.494 275.605 214.597C275.605 216.838 275.925 219.055 276.726 221.227C277.343 222.896 278.326 224.382 280.132 225.388C280.909 225.822 281.64 225.799 282.303 225.296C282.692 224.999 283.675 223.719 283.903 223.353C285.023 221.41 285.503 219.787 285.641 218.324C285.983 215.169 285.641 212.22 284.68 209.133C283.446 205.133 282.623 203.784 282.646 199.28Z" fill="#323334" fill-opacity="0.3"/>
<path d="M279.88 246.74C278.486 246.214 275.697 247.174 275.194 248.546C274.92 249.346 274.577 250.1 274.234 250.878C273.274 252.981 273.183 253.05 272.04 254.627C271.034 254.558 266.668 254.124 265.114 254.49C263.422 254.901 261.708 256.273 261.045 257.942C260.542 259.222 260.679 260.685 261.868 262.057C264.039 264.526 267.742 263.748 269.96 266.035C270.623 266.72 271.126 267.589 271.766 268.298C272.794 269.418 278.006 270.424 280.566 269.189C282.189 265.715 281.961 263.474 281.549 260.022C281.778 258.353 281.984 256.684 282.189 254.993C282.395 253.255 282.601 251.518 282.189 249.78C281.869 248.454 281.343 247.243 279.88 246.717V246.74Z" fill="#323334" fill-opacity="0.3"/>
<path d="M277.938 224.998C276.933 224.106 276.361 222.963 275.95 221.729C275.858 221.409 275.767 221.226 275.31 221.272C274.601 221.34 273.87 221.34 273.161 221.226C272.361 221.112 271.607 220.837 270.669 220.586C271.035 222.163 271.355 223.581 271.698 225.021C272.041 226.484 272.384 227.947 272.704 229.41C273.024 230.85 273.321 232.291 273.595 233.754C273.87 235.194 274.098 236.634 274.35 238.097C274.167 238.029 274.144 237.96 274.121 237.869C272.978 232.245 271.607 226.667 269.938 221.135C269.526 219.786 268.223 218.597 267.172 217.408C267.172 219.603 267.995 221.683 268.612 223.604C270.372 228.999 271.652 234.508 272.932 240.018C273.504 242.464 273.732 244.864 273.252 247.333C273.001 248.659 272.887 250.008 272.727 251.357C272.704 251.608 272.772 251.86 272.772 252.088H272.978C273.024 251.837 273.092 251.585 273.138 251.311C273.412 249.802 273.915 248.385 274.99 247.196C276.475 245.573 278.944 245.093 280.704 246.099C280.979 246.259 281.253 246.465 281.664 246.762C281.573 246.327 281.55 246.03 281.459 245.756C281.23 245.001 280.956 244.27 280.727 243.515C280.247 241.847 280.179 239.172 280.544 237.434C281.276 234.074 281.596 231.719 282.35 228.359C282.579 227.353 282.807 226.324 283.059 225.181C281.002 226.85 279.813 226.781 277.893 225.067L277.938 224.998Z" fill="#323334" fill-opacity="0.3"/>
<path d="M306.262 110.097C308.137 110.555 310.034 110.989 311.863 111.583C312.366 111.743 312.823 111.995 313.28 112.246L314.606 113.092L316.96 115.447C317.097 115.721 317.234 115.973 317.372 116.247C317.783 117.07 318.355 117.824 318.926 118.556C319.086 118.762 319.452 118.785 319.726 118.899C319.795 118.624 319.955 118.327 319.909 118.076C319.497 115.95 319.086 113.824 318.56 111.743C318.08 109.823 317.486 107.926 316.297 106.348C314.674 104.199 312.503 102.965 309.897 102.805C309.577 102.85 309.348 102.85 309.211 102.942C309.074 103.033 308.891 103.125 308.731 103.239C308.617 103.33 308.502 103.399 308.434 103.513L307.131 104.679V104.748C306.971 104.862 306.811 105.091 306.696 105.434C306.239 106.622 305.828 107.834 305.485 109.046C305.279 109.8 305.485 109.914 306.262 110.097Z" fill="#323334" fill-opacity="0.3"/>
<path d="M308.503 190.843C309.165 191.3 309.737 191.872 310.354 192.375C310.56 192.558 310.788 192.695 311.108 192.946C311.291 192.352 311.383 191.849 311.566 191.392C311.977 190.409 312.366 189.449 312.869 188.511C313.12 188.031 313.257 187.643 313.006 187.162C312.366 185.974 311.749 184.785 311.04 183.459C310.88 183.756 310.811 183.848 310.788 183.939C310.286 185.951 309.348 187.78 308.183 189.54C307.748 190.18 307.885 190.432 308.503 190.866V190.843Z" fill="#323334" fill-opacity="0.3"/>
<g filter="url(#filter16_d_350_16940)">
<path d="M315.223 98.7366C314.286 99.8568 313.371 100.977 312.457 102.097C313.371 102.737 314.286 103.332 315.132 103.995C315.634 104.406 316.023 104.955 316.503 105.412C316.686 105.572 317.052 105.732 317.212 105.663C317.395 105.595 317.577 105.206 317.532 105.001C317.097 102.92 316.64 100.84 316.137 98.7595C316.023 98.2794 315.589 98.2794 315.223 98.7366Z" fill="#323334" fill-opacity="0.3" shape-rendering="crispEdges"/>
</g>
<path d="M314.558 210.64C314.764 212.766 314.718 214.915 314.878 217.041C315.016 218.824 316.273 219.579 318.079 219.099C320.479 218.459 322.262 217.133 322.491 214.595C322.582 213.544 322.628 210.823 322.491 209.497C322.262 207.371 321.439 205.199 320.799 202.913C319.633 198.867 318.742 197.381 317.164 194.112C316.524 192.763 315.381 191.323 314.673 189.997C314.536 189.745 314.216 189.425 313.987 189.402C313.758 189.402 313.416 189.722 313.278 189.974C312.798 190.774 312.547 191.643 312.547 192.603C312.547 195.14 313.027 197.609 313.37 200.101C313.85 203.599 314.261 207.12 314.581 210.617L314.558 210.64Z" fill="#323334" fill-opacity="0.3"/>
<path d="M307.014 225.296C307.654 225.822 308.408 225.822 309.186 225.388C310.991 224.382 311.974 222.896 312.592 221.227C313.392 219.055 313.712 216.838 313.712 214.597C313.712 212.494 313.574 210.368 313.483 208.265C313.14 204.333 312.66 200.401 311.609 196.583C311.22 195.165 310.534 193.794 309.254 192.765C308.774 192.376 308.111 192.125 307.494 191.851C306.945 191.622 306.557 191.851 306.557 192.353C306.511 193.199 306.511 194.045 306.557 194.891C306.625 196.08 306.671 198.092 306.671 199.28C306.671 203.784 305.871 205.133 304.637 209.133C303.677 212.22 303.334 215.192 303.677 218.324C303.837 219.764 304.317 221.41 305.414 223.353C305.642 223.742 306.625 224.999 307.014 225.296Z" fill="#323334" fill-opacity="0.3"/>
<path d="M302.331 137.669C305.439 139.498 308.868 140.847 312.503 141.83C313.92 142.218 314.606 141.738 314.4 140.481C314.194 138.675 313.92 136.892 313.829 135.086C313.714 132.617 314.149 130.17 314.972 127.77C315.52 126.17 316.64 124.935 318.377 124.112C319.452 123.609 319.635 123.221 319.269 122.283C317.966 119.06 316.183 116.042 313.257 113.619C311.291 111.996 309.005 110.876 306.239 110.533C304.914 110.373 304.342 110.693 304.022 111.79C302.468 117.323 299.633 122.421 295.953 127.153C294.856 128.57 294.81 129.782 295.587 131.222C297.05 133.988 299.496 136 302.353 137.669H302.331Z" fill="#323334" fill-opacity="0.3"/>
<path d="M308.709 237.389C309.074 239.127 309.006 241.825 308.526 243.471C308.297 244.225 308.023 244.956 307.794 245.711C307.703 245.985 307.68 246.26 307.589 246.717C308.023 246.42 308.274 246.214 308.549 246.054C310.286 245.048 312.778 245.528 314.263 247.151C315.338 248.34 315.841 249.757 316.115 251.266C316.161 251.518 316.229 251.792 316.275 252.043C316.344 252.043 316.412 252.043 316.481 252.043C316.481 251.792 316.572 251.54 316.526 251.312C316.366 249.963 316.252 248.614 316.001 247.288C315.521 244.819 315.749 242.419 316.321 239.973C317.601 234.463 318.904 228.954 320.641 223.559C321.258 221.638 322.104 219.558 322.081 217.363C321.03 218.552 319.704 219.741 319.315 221.09C317.646 226.599 316.275 232.177 315.132 237.824C315.132 237.915 315.086 238.007 314.903 238.052C315.155 236.612 315.383 235.149 315.658 233.709C315.932 232.269 316.252 230.806 316.549 229.365C316.869 227.902 317.212 226.439 317.555 224.976C317.875 223.536 318.218 222.118 318.584 220.541C317.646 220.792 316.869 221.067 316.092 221.181C315.383 221.295 314.652 221.295 313.943 221.227C313.486 221.181 313.395 221.387 313.303 221.684C312.915 222.918 312.32 224.039 311.315 224.953C309.394 226.691 308.206 226.736 306.148 225.067C306.4 226.21 306.628 227.239 306.857 228.245C307.611 231.606 307.931 233.96 308.663 237.321L308.709 237.389Z" fill="#323334" fill-opacity="0.3"/>
<path d="M305.048 200.215C305.185 200.192 305.322 200.17 305.459 200.147L305.528 193.974C305.551 193.403 305.619 192.808 305.596 192.237C305.596 191.414 305.916 190.774 306.533 190.111C308.454 188.03 309.848 185.676 310.351 183.001C310.488 182.269 310.397 181.561 310.191 180.875L309.094 169.993C309.094 169.719 309.094 169.49 309.094 169.239C309.117 166.541 308.865 163.821 308.682 161.123C308.476 158.037 308.202 154.928 307.905 151.841C307.654 149.235 307.402 146.629 306.991 144.046C306.625 141.783 305.482 139.977 302.967 139.016C301.459 138.445 299.927 137.828 298.784 136.662C298.35 136.227 297.664 136.502 297.618 137.096C297.618 137.21 297.618 137.302 297.618 137.416V139.428C297.618 140.274 296.818 150.676 296.887 151.521C297.23 157.534 297.298 165.741 297.618 171.753C297.801 175.068 298.761 180.235 299.927 184.647C301.253 189.768 301.71 192.968 304.27 198.867C304.568 199.324 304.796 199.781 305.07 200.238L305.048 200.215Z" fill="#323334" fill-opacity="0.3"/>
<path d="M324.181 254.513C322.65 254.147 318.261 254.581 317.255 254.65C316.112 253.072 316.021 253.004 315.061 250.878C314.718 250.123 314.375 249.346 314.101 248.546C313.621 247.174 310.809 246.214 309.415 246.74C307.952 247.289 307.449 248.477 307.106 249.803C306.672 251.541 306.877 253.278 307.106 255.016C307.289 256.684 307.517 258.353 307.746 260.045C307.334 263.497 307.106 265.76 308.729 269.212C311.289 270.447 316.501 269.441 317.53 268.321C318.17 267.612 318.695 266.743 319.335 266.057C321.553 263.771 325.256 264.549 327.427 262.08C328.639 260.708 328.753 259.245 328.25 257.965C327.61 256.273 325.873 254.924 324.181 254.513Z" fill="#323334" fill-opacity="0.3"/>
<path d="M312.432 143.042C311.837 142.836 311.243 142.63 310.649 142.447C309.712 142.173 309.346 142.401 309.254 143.293C309.094 144.985 308.98 146.699 309.026 148.391C309.14 151.34 309.369 154.312 309.574 157.261C309.666 158.427 309.872 159.593 309.94 160.759C310.123 164.577 310.283 168.417 310.443 172.258C310.649 177.127 311.792 181.768 314.1 186.18C315.289 188.443 316.181 190.821 317.232 193.153C317.278 193.267 317.346 193.381 317.415 193.496C317.484 193.496 317.575 193.496 317.644 193.519C317.826 192.947 318.124 192.398 318.192 191.827C318.375 190.478 318.558 189.129 318.535 187.78C318.467 185.083 318.146 182.362 318.101 179.665C318.101 179.528 318.101 179.413 318.101 179.276L319.289 172.646C319.404 172.098 319.541 171.572 319.609 171.023C320.387 165.697 321.324 160.37 321.873 154.998C322.33 150.609 322.421 146.196 322.513 141.784C322.581 138.927 322.467 136.046 322.261 133.188C322.101 130.879 321.781 128.571 321.438 126.284C321.232 124.981 320.41 124.638 319.015 125.073C317.849 125.439 317.026 126.193 316.409 127.107C315.061 129.096 314.741 131.291 314.672 133.554C314.58 136.595 315.198 139.544 315.929 142.47C315.906 144.002 313.415 143.362 312.386 143.019L312.432 143.042Z" fill="#323334" fill-opacity="0.3"/>
<path d="M364.736 136.252C362.861 135.429 361.033 134.583 359.798 132.914C359.387 132.365 358.93 131.84 358.495 131.291C357.238 129.759 355.821 128.411 353.901 127.61C353.626 127.496 353.329 127.427 353.032 127.359L350.152 127.107C350.152 127.107 350.152 127.107 350.175 127.153C349.717 127.13 349.237 127.176 348.78 127.359C347.5 127.839 346.243 128.456 345.009 129.073C344.803 129.188 344.574 129.531 344.574 129.759C344.574 131.428 344.62 133.097 344.643 134.743C344.414 136.183 345.146 137.578 345.649 138.927C346.174 140.298 346.7 141.487 347.546 142.493C347.592 142.653 347.637 142.767 347.706 142.882C348.323 144.047 348.94 145.236 349.603 146.379C350.106 147.248 350.655 148.094 351.272 148.894C351.455 149.123 352.003 149.237 352.301 149.145C352.758 148.985 352.575 148.528 352.415 148.208C351.889 147.111 351.295 146.059 350.86 144.916C350.792 144.733 350.7 144.55 350.609 144.413C350.815 144.276 351.043 144.07 351.295 143.727C351.569 144.299 351.843 144.87 352.118 145.442C352.803 146.951 353.489 148.482 354.175 149.991C354.541 150.837 355.044 151.5 356.072 151.569C356.644 151.592 356.941 151.317 356.941 150.654C356.895 150.54 356.827 150.311 356.735 150.106C355.935 148.322 355.135 146.516 354.289 144.733C353.924 143.979 353.512 143.247 353.101 142.539C353.238 142.379 353.398 142.219 353.581 142.036C353.946 142.721 354.289 143.407 354.632 144.093C355.638 146.128 356.621 148.208 357.695 150.22C357.947 150.7 358.404 151.111 358.884 151.386C359.135 151.546 359.73 151.477 359.935 151.271C360.21 151.02 360.278 150.54 360.347 150.128C360.37 149.923 360.233 149.694 360.118 149.488C358.564 146.425 357.009 143.384 355.455 140.321C355.592 140.184 355.707 140.047 355.821 139.91C357.238 142.401 358.655 144.893 360.118 147.385C360.278 147.659 360.804 147.98 361.01 147.888C361.307 147.751 361.467 147.317 361.673 146.996C361.376 146.219 361.193 145.511 360.895 144.893C360.05 143.202 359.135 141.533 358.244 139.864C357.787 138.972 357.307 138.104 356.827 137.235C356.827 137.166 356.781 137.098 356.758 137.029C357.032 136.48 357.627 136.298 357.627 136.298C357.901 136.732 358.404 137.189 358.884 137.349C360.095 137.738 361.376 137.989 362.61 138.264C363.593 138.469 364.439 138.172 365.033 137.372C365.467 136.8 365.422 136.572 364.736 136.275V136.252Z" fill="#323334" fill-opacity="0.3"/>
<path d="M334.33 78.5287C333.576 78.4601 332.799 78.2544 332.158 77.9572C331.016 77.4314 329.964 76.7913 328.73 76.1055C328.73 76.3798 328.775 76.5398 328.775 76.6999C328.775 77.9115 328.89 79.1231 328.73 80.3119C328.547 81.7521 327.884 83.0552 326.169 83.8553C326.147 83.8553 326.124 83.9011 326.101 83.9239C325.987 83.9239 325.804 83.9239 325.438 83.9011C324.729 83.8325 323.769 83.0323 323.266 82.5294C323.152 82.3922 323.015 82.2779 322.878 82.1408C322.535 81.7979 322.169 81.4549 321.826 81.0892C321.758 81.1349 321.689 81.1577 321.598 81.2035C321.643 81.3178 321.666 81.4549 321.712 81.5692C323.106 84.084 324.409 86.6215 325.941 89.0905C326.467 89.9592 327.45 90.7136 328.318 91.4452C328.57 91.6738 329.187 91.6509 329.644 91.7652L331.816 91.9253C332.067 91.971 332.341 91.9253 332.661 91.811C333.599 91.468 334.536 91.148 335.519 90.9651C336.182 90.8508 336.479 90.6222 336.525 90.1421C336.685 88.7247 336.959 87.3073 336.936 85.89C336.89 83.6725 336.525 81.5007 335.61 79.3974C335.404 78.9174 335.084 78.643 334.353 78.5973L334.33 78.5287Z" fill="#323334" fill-opacity="0.3"/>
<path d="M337.326 93.5009C339.543 95.8555 341.555 98.3702 343.224 101.114C343.315 101.274 343.475 101.388 343.612 101.525C343.681 101.479 343.749 101.456 343.818 101.411C343.726 96.1984 341.052 91.9006 338.24 87.6484H337.966C337.852 87.8999 337.692 88.1057 337.623 88.3571C337.372 89.6145 337.143 90.8718 336.892 92.1292C336.777 92.6779 336.937 93.1122 337.326 93.5009Z" fill="#323334" fill-opacity="0.3"/>
<path d="M327.223 81.4994C327.268 81.3851 327.291 81.248 327.314 81.1337C327.428 79.9449 327.566 78.7561 327.634 77.9331C327.451 76.7901 327.291 76.0356 327.2 75.2584C326.674 71.0062 324.091 67.6914 321.485 64.3765C321.279 64.1022 320.685 63.9422 320.274 63.9651C320.045 63.9651 319.862 64.5137 319.702 64.8109C319.611 64.9938 319.611 65.1995 319.611 65.4053C319.611 67.9886 319.565 70.5719 319.679 73.1552C319.839 76.6986 321.554 79.6705 324.137 82.2081C325.508 83.5569 326.628 83.2369 327.2 81.4537L327.223 81.4994Z" fill="#323334" fill-opacity="0.3"/>
<path d="M326.561 65.9543C325.807 65.7943 325.053 65.6114 324.047 65.3828C324.23 65.9086 324.298 66.2287 324.458 66.5259C325.304 68.2176 326.287 69.8407 327.019 71.5781C328.07 74.07 330.219 75.7846 332.55 77.4077C333.876 78.3221 335.065 77.9564 335.476 76.5618C335.568 76.2418 335.659 75.8989 335.591 75.5788C335.362 74.23 335.248 72.8355 334.813 71.5324C334.288 69.9093 333.556 68.3547 332.87 66.7545C332.688 66.3201 332.39 65.9543 331.659 66.1144C329.944 66.503 328.253 66.2744 326.584 65.9315L326.561 65.9543Z" fill="#323334" fill-opacity="0.3"/>
<path d="M351.339 126.399C352.002 126.536 352.139 126.239 351.887 125.576C350.562 121.941 349.19 118.306 347.91 114.648C347.293 112.911 346.881 111.105 346.355 109.322C346.287 109.116 346.081 108.933 345.944 108.75C345.761 108.933 345.555 109.093 345.418 109.322C345.327 109.482 345.304 109.71 345.304 109.916C345.235 111.128 345.098 112.339 345.121 113.551C345.121 115.86 345.235 118.169 345.304 120.455C345.213 120.455 345.144 120.455 345.053 120.455C344.367 116.729 344.23 112.979 344.367 109.23C344.504 105.504 343.772 102.098 341.304 99.1485C341.144 98.9656 340.984 98.7599 340.824 98.5541C340.824 98.5541 340.664 98.3712 340.572 98.2798L338.698 96.2223C337.875 95.6508 337.143 95.1021 336.389 94.5992L334.972 93.2732C334.972 93.2732 334.88 93.1589 334.812 93.1132C334.629 93.0218 334.355 92.9989 333.989 93.0904C333.372 93.2504 332.777 93.5933 332.229 93.9362C331.611 94.302 331.474 94.8964 331.771 95.4908C332.092 96.1537 332.457 96.7938 332.869 97.3882C333.669 98.4855 334.492 99.56 334.903 100.886C336.366 105.504 337.898 110.076 339.384 114.694C339.818 116.043 340.229 117.392 340.664 118.74L340.549 118.786C340.549 118.786 340.458 118.626 340.435 118.557C338.903 113.894 337.372 109.23 335.795 104.589C335.063 102.395 334.4 100.154 332.914 98.2798C332 97.1368 331.109 95.9708 330.194 94.8507C329.554 94.0505 328.891 93.2732 328.205 92.5188C328.091 92.3817 327.817 92.2445 327.68 92.2902C327.543 92.3131 327.405 92.6103 327.428 92.7703C327.451 93.6847 327.36 94.622 327.634 95.4679C328.023 96.6795 328.686 97.7997 329.257 98.9656C329.646 99.7658 330.194 100.52 330.469 101.366C331.954 105.847 333.783 110.168 335.909 114.397C338.195 118.9 340.572 123.335 342.904 127.816C343.201 128.388 343.544 128.365 344.047 128.136C346.355 127.085 348.619 125.942 351.339 126.467V126.399Z" fill="#323334" fill-opacity="0.3"/>
<path d="M311.518 53.5171C311.495 54.02 311.678 54.3401 312.112 54.6373C313.186 55.3688 314.283 56.0775 315.221 56.9691C317.049 58.6837 318.695 60.604 320.57 62.2728C322.924 64.3989 325.781 65.4505 329.347 65.3819C329.713 65.3362 330.445 65.2448 331.153 65.1762C331.611 65.1305 331.793 64.879 331.748 64.4446C331.588 63.0958 331.519 61.747 331.268 60.444C330.765 57.6092 329.828 54.9573 327.816 52.8084C325.233 50.0651 322.033 48.2819 318.512 47.0931C318.009 46.9331 317.415 46.9103 316.889 47.0246C314.283 47.619 311.678 50.8195 311.518 53.5171Z" fill="#323334" fill-opacity="0.3"/>
<path d="M243.994 129.05C242.76 128.433 241.502 127.838 240.222 127.335C239.765 127.153 239.285 127.107 238.828 127.13C238.828 127.107 238.851 127.084 238.851 127.084L235.971 127.335C235.673 127.427 235.376 127.473 235.102 127.587C233.182 128.387 231.765 129.736 230.507 131.268C230.073 131.793 229.616 132.319 229.204 132.891C227.97 134.582 226.141 135.405 224.267 136.228C223.604 136.526 223.535 136.754 223.97 137.326C224.564 138.126 225.41 138.423 226.393 138.217C227.65 137.943 228.907 137.691 230.119 137.303C230.622 137.143 231.102 136.686 231.376 136.251C231.376 136.251 231.97 136.434 232.245 136.983C232.222 137.051 232.199 137.12 232.176 137.189C231.696 138.057 231.239 138.949 230.759 139.818C229.867 141.486 228.953 143.155 228.107 144.847C227.787 145.464 227.604 146.173 227.33 146.95C227.536 147.247 227.696 147.705 228.016 147.842C228.221 147.933 228.747 147.613 228.907 147.339C230.347 144.847 231.787 142.355 233.205 139.863C233.296 140 233.433 140.138 233.57 140.275C231.993 143.315 230.462 146.379 228.907 149.442C228.816 149.648 228.656 149.876 228.679 150.082C228.747 150.494 228.816 150.974 229.09 151.225C229.296 151.431 229.89 151.5 230.142 151.339C230.599 151.065 231.079 150.654 231.33 150.174C232.382 148.162 233.365 146.081 234.393 144.047C234.736 143.361 235.102 142.675 235.445 141.989C235.628 142.149 235.788 142.309 235.925 142.492C235.513 143.224 235.102 143.933 234.736 144.687C233.89 146.447 233.09 148.253 232.29 150.059C232.199 150.265 232.13 150.494 232.085 150.608C232.085 151.271 232.382 151.545 232.953 151.522C233.982 151.477 234.485 150.791 234.851 149.945C235.536 148.413 236.222 146.904 236.908 145.396C237.182 144.824 237.456 144.253 237.731 143.681C237.982 144.024 238.211 144.253 238.417 144.367C238.325 144.527 238.234 144.687 238.165 144.87C237.708 145.99 237.114 147.064 236.611 148.162C236.451 148.482 236.268 148.939 236.725 149.099C237.022 149.191 237.571 149.076 237.754 148.848C238.371 148.07 238.919 147.202 239.422 146.333C240.085 145.19 240.702 144.001 241.32 142.835C241.388 142.721 241.411 142.607 241.48 142.447C242.325 141.441 242.851 140.229 243.377 138.88C243.903 137.531 244.634 136.137 244.383 134.697C244.406 133.028 244.474 131.359 244.451 129.713C244.451 129.484 244.246 129.141 244.017 129.027L243.994 129.05Z" fill="#323334" fill-opacity="0.3"/>
<path d="M245.797 101.114C247.466 98.3702 249.455 95.8555 251.695 93.5009C252.084 93.0894 252.244 92.655 252.129 92.1292C251.878 90.8718 251.649 89.6145 251.398 88.3571C251.352 88.1057 251.169 87.877 251.055 87.6484H250.781C247.969 91.9006 245.295 96.1984 245.203 101.388C245.272 101.434 245.34 101.456 245.409 101.502C245.546 101.365 245.706 101.251 245.797 101.091V101.114Z" fill="#323334" fill-opacity="0.3"/>
<path d="M261.572 92.7234C261.572 92.5634 261.435 92.2662 261.321 92.2433C261.161 92.1976 260.909 92.3348 260.795 92.472C260.109 93.2264 259.446 94.0036 258.806 94.8038C257.892 95.9468 257.001 97.0899 256.086 98.2329C254.6 100.108 253.937 102.348 253.206 104.543C251.629 109.183 250.12 113.847 248.566 118.511C248.543 118.602 248.497 118.671 248.451 118.739L248.337 118.694C248.771 117.345 249.183 115.996 249.617 114.647C251.103 110.052 252.634 105.457 254.097 100.839C254.509 99.5131 255.332 98.4387 256.132 97.3414C256.566 96.747 256.909 96.084 257.229 95.4439C257.526 94.8266 257.412 94.2551 256.772 93.8893C256.223 93.5693 255.629 93.2035 255.012 93.0435C254.646 92.952 254.372 92.9749 254.189 93.0663C254.12 93.1121 254.075 93.1578 254.029 93.2264L252.612 94.5523C251.857 95.0552 251.126 95.581 250.303 96.1754L248.428 98.2329C248.177 98.5073 247.926 98.8044 247.674 99.1016C245.205 102.051 244.474 105.457 244.611 109.183C244.771 112.933 244.611 116.705 243.925 120.408C243.834 120.408 243.765 120.408 243.674 120.408C243.742 118.099 243.834 115.79 243.857 113.504C243.857 112.292 243.742 111.081 243.674 109.869C243.674 109.663 243.674 109.435 243.559 109.275C243.422 109.069 243.217 108.886 243.034 108.703C242.897 108.886 242.691 109.069 242.622 109.275C242.097 111.058 241.685 112.864 241.068 114.601C239.788 118.259 238.416 121.894 237.09 125.529C236.839 126.192 236.976 126.489 237.639 126.352C240.359 125.803 242.645 126.969 244.931 128.021C245.434 128.249 245.777 128.272 246.074 127.701C248.406 123.22 250.783 118.785 253.069 114.281C255.195 110.075 257.046 105.731 258.509 101.251C258.784 100.405 259.332 99.6503 259.721 98.8502C260.292 97.6843 260.955 96.5641 261.344 95.3524C261.618 94.5066 261.504 93.5693 261.549 92.6548L261.572 92.7234Z" fill="#323334" fill-opacity="0.3"/>
<path d="M257.867 65.1762C258.598 65.2448 259.307 65.3362 259.673 65.3819C263.239 65.4277 266.073 64.3761 268.45 62.2728C270.325 60.604 271.971 58.6837 273.799 56.9691C274.737 56.0775 275.834 55.3688 276.908 54.6373C277.343 54.3401 277.525 54.02 277.503 53.5171C277.32 50.8195 274.737 47.619 272.131 47.0246C271.628 46.9103 271.011 46.9331 270.508 47.0931C266.965 48.2819 263.764 50.0422 261.204 52.8084C259.193 54.9573 258.255 57.6092 257.752 60.444C257.524 61.7699 257.432 63.1187 257.272 64.4446C257.227 64.879 257.41 65.1305 257.867 65.1762Z" fill="#323334" fill-opacity="0.3"/>
<path d="M269.367 65.4519C269.367 65.2461 269.367 65.0404 269.276 64.8575C269.116 64.5374 268.933 64.0116 268.704 64.0116C268.316 63.9659 267.721 64.1259 267.493 64.4231C264.887 67.738 262.304 71.0528 261.778 75.3049C261.687 76.0594 261.527 76.8366 261.344 77.9797C261.435 78.8027 261.549 79.9914 261.664 81.1802C261.664 81.2945 261.709 81.4317 261.755 81.546C262.327 83.3292 263.447 83.6263 264.818 82.3004C267.401 79.7628 269.116 76.8138 269.276 73.2475C269.39 70.6642 269.322 68.0809 269.344 65.4976L269.367 65.4519Z" fill="#323334" fill-opacity="0.3"/>
<path d="M253.525 90.9182C254.508 91.1011 255.468 91.4212 256.382 91.7641C256.702 91.8784 256.976 91.9241 257.228 91.8784L259.399 91.7184C259.857 91.6269 260.474 91.6269 260.725 91.3983C261.594 90.6668 262.577 89.9123 263.103 89.0436C264.611 86.5746 265.937 84.0371 267.331 81.5224C267.4 81.4081 267.423 81.2709 267.446 81.1566C267.377 81.1109 267.309 81.088 267.217 81.0423C266.874 81.4081 266.531 81.751 266.166 82.0939C266.028 82.2311 265.914 82.3454 265.777 82.4825C265.251 82.9855 264.314 83.7856 263.605 83.8542C263.24 83.877 263.034 83.8999 262.943 83.877C262.92 83.8542 262.897 83.8085 262.874 83.8085C261.137 83.0083 260.497 81.7053 260.314 80.265C260.154 79.0762 260.268 77.8417 260.268 76.653C260.268 76.4929 260.268 76.3329 260.314 76.0586C259.079 76.7444 258.028 77.3845 256.885 77.9103C256.245 78.2075 255.468 78.4133 254.713 78.4819C253.982 78.5504 253.662 78.8019 253.456 79.282C252.542 81.3852 252.176 83.557 252.13 85.7745C252.107 87.1919 252.382 88.6093 252.542 90.0267C252.587 90.5067 252.885 90.7353 253.548 90.8497L253.525 90.9182Z" fill="#323334" fill-opacity="0.3"/>
<path d="M256.473 77.4311C258.805 75.808 260.954 74.0934 262.005 71.6016C262.737 69.887 263.697 68.241 264.565 66.5493C264.725 66.2521 264.794 65.9321 264.977 65.4062C263.971 65.6349 263.217 65.8177 262.462 65.9778C260.794 66.3207 259.102 66.5493 257.388 66.1607C256.656 66.0006 256.359 66.3664 256.176 66.8008C255.49 68.3782 254.736 69.9556 254.233 71.5787C253.822 72.9047 253.685 74.2763 253.456 75.6251C253.41 75.9452 253.479 76.2881 253.57 76.6081C253.982 78.0026 255.17 78.3684 256.496 77.454L256.473 77.4311Z" fill="#323334" fill-opacity="0.3"/>
<defs>
<filter id="filter0_d_350_16940" x="88.8422" y="89.3891" width="40.7844" height="55.78" filterUnits="userSpaceOnUse" color-interpolation-filters="sRGB">
<feFlood flood-opacity="0" result="BackgroundImageFix"/>
<feColorMatrix in="SourceAlpha" type="matrix" values="0 0 0 0 0 0 0 0 0 0 0 0 0 0 0 0 0 0 127 0" result="hardAlpha"/>
<feOffset/>
<feGaussianBlur stdDeviation="7.45"/>
<feComposite in2="hardAlpha" operator="out"/>
<feColorMatrix type="matrix" values="0 0 0 0 0.266667 0 0 0 0 0.458824 0 0 0 0 0.952941 0 0 0 0.4 0"/>
<feBlend mode="normal" in2="BackgroundImageFix" result="effect1_dropShadow_350_16940"/>
<feBlend mode="normal" in="SourceGraphic" in2="effect1_dropShadow_350_16940" result="shape"/>
</filter>
<filter id="filter1_d_350_16940" x="77.3773" y="89.3773" width="40.7922" height="55.8654" filterUnits="userSpaceOnUse" color-interpolation-filters="sRGB">
<feFlood flood-opacity="0" result="BackgroundImageFix"/>
<feColorMatrix in="SourceAlpha" type="matrix" values="0 0 0 0 0 0 0 0 0 0 0 0 0 0 0 0 0 0 127 0" result="hardAlpha"/>
<feOffset/>
<feGaussianBlur stdDeviation="7.45"/>
<feComposite in2="hardAlpha" operator="out"/>
<feColorMatrix type="matrix" values="0 0 0 0 0.266667 0 0 0 0 0.458824 0 0 0 0 0.952941 0 0 0 0.4 0"/>
<feBlend mode="normal" in2="BackgroundImageFix" result="effect1_dropShadow_350_16940"/>
<feBlend mode="normal" in="SourceGraphic" in2="effect1_dropShadow_350_16940" result="shape"/>
</filter>
<filter id="filter2_d_350_16940" x="94.7133" y="82.8617" width="45.2219" height="59.6667" filterUnits="userSpaceOnUse" color-interpolation-filters="sRGB">
<feFlood flood-opacity="0" result="BackgroundImageFix"/>
<feColorMatrix in="SourceAlpha" type="matrix" values="0 0 0 0 0 0 0 0 0 0 0 0 0 0 0 0 0 0 127 0" result="hardAlpha"/>
<feOffset/>
<feGaussianBlur stdDeviation="7.45"/>
<feComposite in2="hardAlpha" operator="out"/>
<feColorMatrix type="matrix" values="0 0 0 0 0.266667 0 0 0 0 0.458824 0 0 0 0 0.952941 0 0 0 0.4 0"/>
<feBlend mode="normal" in2="BackgroundImageFix" result="effect1_dropShadow_350_16940"/>
<feBlend mode="normal" in="SourceGraphic" in2="effect1_dropShadow_350_16940" result="shape"/>
</filter>
<filter id="filter3_d_350_16940" x="67.143" y="83.0688" width="45.2141" height="59.4914" filterUnits="userSpaceOnUse" color-interpolation-filters="sRGB">
<feFlood flood-opacity="0" result="BackgroundImageFix"/>
<feColorMatrix in="SourceAlpha" type="matrix" values="0 0 0 0 0 0 0 0 0 0 0 0 0 0 0 0 0 0 127 0" result="hardAlpha"/>
<feOffset/>
<feGaussianBlur stdDeviation="7.45"/>
<feComposite in2="hardAlpha" operator="out"/>
<feColorMatrix type="matrix" values="0 0 0 0 0.266667 0 0 0 0 0.458824 0 0 0 0 0.952941 0 0 0 0.4 0"/>
<feBlend mode="normal" in2="BackgroundImageFix" result="effect1_dropShadow_350_16940"/>
<feBlend mode="normal" in="SourceGraphic" in2="effect1_dropShadow_350_16940" result="shape"/>
</filter>
<filter id="filter4_d_350_16940" x="89.1039" y="77.0609" width="41.8508" height="43.0217" filterUnits="userSpaceOnUse" color-interpolation-filters="sRGB">
<feFlood flood-opacity="0" result="BackgroundImageFix"/>
<feColorMatrix in="SourceAlpha" type="matrix" values="0 0 0 0 0 0 0 0 0 0 0 0 0 0 0 0 0 0 127 0" result="hardAlpha"/>
<feOffset/>
<feGaussianBlur stdDeviation="7.45"/>
<feComposite in2="hardAlpha" operator="out"/>
<feColorMatrix type="matrix" values="0 0 0 0 0.266667 0 0 0 0 0.458824 0 0 0 0 0.952941 0 0 0 0.4 0"/>
<feBlend mode="normal" in2="BackgroundImageFix" result="effect1_dropShadow_350_16940"/>
<feBlend mode="normal" in="SourceGraphic" in2="effect1_dropShadow_350_16940" result="shape"/>
</filter>
<filter id="filter5_d_350_16940" x="89.0844" y="67.0863" width="41.968" height="40.8654" filterUnits="userSpaceOnUse" color-interpolation-filters="sRGB">
<feFlood flood-opacity="0" result="BackgroundImageFix"/>
<feColorMatrix in="SourceAlpha" type="matrix" values="0 0 0 0 0 0 0 0 0 0 0 0 0 0 0 0 0 0 127 0" result="hardAlpha"/>
<feOffset/>
<feGaussianBlur stdDeviation="7.45"/>
<feComposite in2="hardAlpha" operator="out"/>
<feColorMatrix type="matrix" values="0 0 0 0 0.266667 0 0 0 0 0.458824 0 0 0 0 0.952941 0 0 0 0.4 0"/>
<feBlend mode="normal" in2="BackgroundImageFix" result="effect1_dropShadow_350_16940"/>
<feBlend mode="normal" in="SourceGraphic" in2="effect1_dropShadow_350_16940" result="shape"/>
</filter>
<filter id="filter6_d_350_16940" x="89.1039" y="55.973" width="41.132" height="42.697" filterUnits="userSpaceOnUse" color-interpolation-filters="sRGB">
<feFlood flood-opacity="0" result="BackgroundImageFix"/>
<feColorMatrix in="SourceAlpha" type="matrix" values="0 0 0 0 0 0 0 0 0 0 0 0 0 0 0 0 0 0 127 0" result="hardAlpha"/>
<feOffset/>
<feGaussianBlur stdDeviation="7.45"/>
<feComposite in2="hardAlpha" operator="out"/>
<feColorMatrix type="matrix" values="0 0 0 0 0.266667 0 0 0 0 0.458824 0 0 0 0 0.952941 0 0 0 0.4 0"/>
<feBlend mode="normal" in2="BackgroundImageFix" result="effect1_dropShadow_350_16940"/>
<feBlend mode="normal" in="SourceGraphic" in2="effect1_dropShadow_350_16940" result="shape"/>
</filter>
<filter id="filter7_d_350_16940" x="76.8344" y="56.0258" width="41.1516" height="42.5285" filterUnits="userSpaceOnUse" color-interpolation-filters="sRGB">
<feFlood flood-opacity="0" result="BackgroundImageFix"/>
<feColorMatrix in="SourceAlpha" type="matrix" values="0 0 0 0 0 0 0 0 0 0 0 0 0 0 0 0 0 0 127 0" result="hardAlpha"/>
<feOffset/>
<feGaussianBlur stdDeviation="7.45"/>
<feComposite in2="hardAlpha" operator="out"/>
<feColorMatrix type="matrix" values="0 0 0 0 0.266667 0 0 0 0 0.458824 0 0 0 0 0.952941 0 0 0 0.4 0"/>
<feBlend mode="normal" in2="BackgroundImageFix" result="effect1_dropShadow_350_16940"/>
<feBlend mode="normal" in="SourceGraphic" in2="effect1_dropShadow_350_16940" result="shape"/>
</filter>
<filter id="filter8_d_350_16940" x="99.2914" y="72.7094" width="38.4562" height="46.4289" filterUnits="userSpaceOnUse" color-interpolation-filters="sRGB">
<feFlood flood-opacity="0" result="BackgroundImageFix"/>
<feColorMatrix in="SourceAlpha" type="matrix" values="0 0 0 0 0 0 0 0 0 0 0 0 0 0 0 0 0 0 127 0" result="hardAlpha"/>
<feOffset/>
<feGaussianBlur stdDeviation="7.45"/>
<feComposite in2="hardAlpha" operator="out"/>
<feColorMatrix type="matrix" values="0 0 0 0 0.266667 0 0 0 0 0.458824 0 0 0 0 0.952941 0 0 0 0.4 0"/>
<feBlend mode="normal" in2="BackgroundImageFix" result="effect1_dropShadow_350_16940"/>
<feBlend mode="normal" in="SourceGraphic" in2="effect1_dropShadow_350_16940" result="shape"/>
</filter>
<filter id="filter9_d_350_16940" x="69.3031" y="72.7563" width="38.382" height="46.4104" filterUnits="userSpaceOnUse" color-interpolation-filters="sRGB">
<feFlood flood-opacity="0" result="BackgroundImageFix"/>
<feColorMatrix in="SourceAlpha" type="matrix" values="0 0 0 0 0 0 0 0 0 0 0 0 0 0 0 0 0 0 127 0" result="hardAlpha"/>
<feOffset/>
<feGaussianBlur stdDeviation="7.45"/>
<feComposite in2="hardAlpha" operator="out"/>
<feColorMatrix type="matrix" values="0 0 0 0 0.266667 0 0 0 0 0.458824 0 0 0 0 0.952941 0 0 0 0.4 0"/>
<feBlend mode="normal" in2="BackgroundImageFix" result="effect1_dropShadow_350_16940"/>
<feBlend mode="normal" in="SourceGraphic" in2="effect1_dropShadow_350_16940" result="shape"/>
</filter>
<filter id="filter10_d_350_16940" x="51.1508" y="31.3383" width="48.9484" height="51.0974" filterUnits="userSpaceOnUse" color-interpolation-filters="sRGB">
<feFlood flood-opacity="0" result="BackgroundImageFix"/>
<feColorMatrix in="SourceAlpha" type="matrix" values="0 0 0 0 0 0 0 0 0 0 0 0 0 0 0 0 0 0 127 0" result="hardAlpha"/>
<feOffset/>
<feGaussianBlur stdDeviation="7.45"/>
<feComposite in2="hardAlpha" operator="out"/>
<feColorMatrix type="matrix" values="0 0 0 0 0.266667 0 0 0 0 0.458824 0 0 0 0 0.952941 0 0 0 0.4 0"/>
<feBlend mode="normal" in2="BackgroundImageFix" result="effect1_dropShadow_350_16940"/>
<feBlend mode="normal" in="SourceGraphic" in2="effect1_dropShadow_350_16940" result="shape"/>
</filter>
<filter id="filter11_d_350_16940" x="99.6195" y="53.8168" width="41.6594" height="56.467" filterUnits="userSpaceOnUse" color-interpolation-filters="sRGB">
<feFlood flood-opacity="0" result="BackgroundImageFix"/>
<feColorMatrix in="SourceAlpha" type="matrix" values="0 0 0 0 0 0 0 0 0 0 0 0 0 0 0 0 0 0 127 0" result="hardAlpha"/>
<feOffset/>
<feGaussianBlur stdDeviation="7.45"/>
<feComposite in2="hardAlpha" operator="out"/>
<feColorMatrix type="matrix" values="0 0 0 0 0.266667 0 0 0 0 0.458824 0 0 0 0 0.952941 0 0 0 0.4 0"/>
<feBlend mode="normal" in2="BackgroundImageFix" result="effect1_dropShadow_350_16940"/>
<feBlend mode="normal" in="SourceGraphic" in2="effect1_dropShadow_350_16940" result="shape"/>
</filter>
<filter id="filter12_d_350_16940" x="65.8305" y="53.8617" width="41.6281" height="56.3537" filterUnits="userSpaceOnUse" color-interpolation-filters="sRGB">
<feFlood flood-opacity="0" result="BackgroundImageFix"/>
<feColorMatrix in="SourceAlpha" type="matrix" values="0 0 0 0 0 0 0 0 0 0 0 0 0 0 0 0 0 0 127 0" result="hardAlpha"/>
<feOffset/>
<feGaussianBlur stdDeviation="7.45"/>
<feComposite in2="hardAlpha" operator="out"/>
<feColorMatrix type="matrix" values="0 0 0 0 0.266667 0 0 0 0 0.458824 0 0 0 0 0.952941 0 0 0 0.4 0"/>
<feBlend mode="normal" in2="BackgroundImageFix" result="effect1_dropShadow_350_16940"/>
<feBlend mode="normal" in="SourceGraphic" in2="effect1_dropShadow_350_16940" result="shape"/>
</filter>
<filter id="filter13_d_350_16940" x="290.834" y="67.0805" width="42.1906" height="49.4831" filterUnits="userSpaceOnUse" color-interpolation-filters="sRGB">
<feFlood flood-opacity="0" result="BackgroundImageFix"/>
<feColorMatrix in="SourceAlpha" type="matrix" values="0 0 0 0 0 0 0 0 0 0 0 0 0 0 0 0 0 0 127 0" result="hardAlpha"/>
<feOffset/>
<feGaussianBlur stdDeviation="7.45"/>
<feComposite in2="hardAlpha" operator="out"/>
<feColorMatrix type="matrix" values="0 0 0 0 0.266667 0 0 0 0 0.458824 0 0 0 0 0.952941 0 0 0 0.4 0"/>
<feBlend mode="normal" in2="BackgroundImageFix" result="effect1_dropShadow_350_16940"/>
<feBlend mode="normal" in="SourceGraphic" in2="effect1_dropShadow_350_16940" result="shape"/>
</filter>
<filter id="filter14_d_350_16940" x="256.377" y="67.102" width="42.0617" height="49.2609" filterUnits="userSpaceOnUse" color-interpolation-filters="sRGB">
<feFlood flood-opacity="0" result="BackgroundImageFix"/>
<feColorMatrix in="SourceAlpha" type="matrix" values="0 0 0 0 0 0 0 0 0 0 0 0 0 0 0 0 0 0 127 0" result="hardAlpha"/>
<feOffset/>
<feGaussianBlur stdDeviation="7.45"/>
<feComposite in2="hardAlpha" operator="out"/>
<feColorMatrix type="matrix" values="0 0 0 0 0.266667 0 0 0 0 0.458824 0 0 0 0 0.952941 0 0 0 0.4 0"/>
<feBlend mode="normal" in2="BackgroundImageFix" result="effect1_dropShadow_350_16940"/>
<feBlend mode="normal" in="SourceGraphic" in2="effect1_dropShadow_350_16940" result="shape"/>
</filter>
<filter id="filter15_d_350_16940" x="256.858" y="83.473" width="34.882" height="37.0832" filterUnits="userSpaceOnUse" color-interpolation-filters="sRGB">
<feFlood flood-opacity="0" result="BackgroundImageFix"/>
<feColorMatrix in="SourceAlpha" type="matrix" values="0 0 0 0 0 0 0 0 0 0 0 0 0 0 0 0 0 0 127 0" result="hardAlpha"/>
<feOffset/>
<feGaussianBlur stdDeviation="7.45"/>
<feComposite in2="hardAlpha" operator="out"/>
<feColorMatrix type="matrix" values="0 0 0 0 0.266667 0 0 0 0 0.458824 0 0 0 0 0.952941 0 0 0 0.4 0"/>
<feBlend mode="normal" in2="BackgroundImageFix" result="effect1_dropShadow_350_16940"/>
<feBlend mode="normal" in="SourceGraphic" in2="effect1_dropShadow_350_16940" result="shape"/>
</filter>
<filter id="filter16_d_350_16940" x="297.557" y="83.4965" width="34.882" height="37.0832" filterUnits="userSpaceOnUse" color-interpolation-filters="sRGB">
<feFlood flood-opacity="0" result="BackgroundImageFix"/>
<feColorMatrix in="SourceAlpha" type="matrix" values="0 0 0 0 0 0 0 0 0 0 0 0 0 0 0 0 0 0 127 0" result="hardAlpha"/>
<feOffset/>
<feGaussianBlur stdDeviation="7.45"/>
<feComposite in2="hardAlpha" operator="out"/>
<feColorMatrix type="matrix" values="0 0 0 0 0.266667 0 0 0 0 0.458824 0 0 0 0 0.952941 0 0 0 0.4 0"/>
<feBlend mode="normal" in2="BackgroundImageFix" result="effect1_dropShadow_350_16940"/>
<feBlend mode="normal" in="SourceGraphic" in2="effect1_dropShadow_350_16940" result="shape"/>
</filter>
</defs>
</svg>
