<svg width="403" height="272" viewBox="0 0 403 272" fill="none" xmlns="http://www.w3.org/2000/svg">
<path d="M72.5129 88.0235C72.8578 88.0006 73.2256 87.4977 73.4095 87.2233C73.8233 86.5603 74.8578 84.9599 75.1796 84.2511C76.8807 80.7074 77.4325 79.5185 78.1221 75.929C78.1911 75.5175 78.398 72.8425 78.306 72.431C78.2601 72.1566 78.306 70.8077 78.2601 70.5105C78.0761 68.7501 77.7083 66.2351 77.5934 66.4638C77.2945 67.8584 76.0761 74.1914 75.8692 74.923C74.9497 78.101 74.0532 81.3018 73.1796 84.5026C72.9267 85.44 72.6968 86.3774 72.4669 87.2919C72.5589 87.3376 72.398 88.0235 72.4669 88.0006L72.5129 88.0235Z" fill="#4D8AEE"/>
<path d="M134.511 88.0222C134.511 88.0222 134.442 87.3592 134.511 87.3135C134.281 86.3761 134.051 85.4387 133.798 84.5242C132.901 81.3234 132.028 78.1226 131.108 74.9447C130.901 74.213 129.683 67.88 129.384 66.4854C129.269 66.2567 128.924 68.7488 128.717 70.5321C128.694 70.8293 128.717 72.1782 128.671 72.4526C128.602 72.8641 128.786 75.5391 128.855 75.9506C129.545 79.5401 130.097 80.729 131.798 84.2727C132.143 84.9815 133.177 86.559 133.568 87.2449C133.752 87.5193 134.12 88.0222 134.465 88.0451L134.511 88.0222Z" fill="#4D8AEE"/>
<path d="M334.33 78.5287C333.576 78.4601 332.799 78.2544 332.158 77.9572C331.016 77.4314 329.964 76.7913 328.73 76.1055C328.73 76.3798 328.775 76.5398 328.775 76.6999C328.775 77.9115 328.89 79.1231 328.73 80.3119C328.547 81.7521 327.884 83.0552 326.169 83.8553C326.147 83.8553 326.124 83.9011 326.101 83.9239C325.987 83.9239 325.804 83.9239 325.438 83.9011C324.729 83.8325 323.769 83.0323 323.266 82.5294C323.152 82.3922 323.015 82.2779 322.878 82.1408C322.535 81.7979 322.169 81.4549 321.826 81.0892C321.758 81.1349 321.689 81.1577 321.598 81.2035C321.643 81.3178 321.666 81.4549 321.712 81.5692C323.106 84.084 324.409 86.6215 325.941 89.0905C326.467 89.9592 327.45 90.7136 328.318 91.4452C328.57 91.6738 329.187 91.6509 329.644 91.7652L331.816 91.9253C332.067 91.971 332.341 91.9253 332.661 91.811C333.599 91.468 334.536 91.148 335.519 90.9651C336.182 90.8508 336.479 90.6222 336.525 90.1421C336.685 88.7247 336.959 87.3073 336.936 85.89C336.89 83.6725 336.525 81.5007 335.61 79.3974C335.404 78.9174 335.084 78.643 334.353 78.5973L334.33 78.5287Z" fill="#4D8AEE"/>
<path d="M327.223 81.4994C327.268 81.3851 327.291 81.248 327.314 81.1337C327.428 79.9449 327.566 78.7561 327.634 77.9331C327.451 76.7901 327.291 76.0356 327.2 75.2584C326.674 71.0062 324.091 67.6914 321.485 64.3765C321.279 64.1022 320.685 63.9422 320.274 63.9651C320.045 63.9651 319.862 64.5137 319.702 64.8109C319.611 64.9938 319.611 65.1995 319.611 65.4053C319.611 67.9886 319.565 70.5719 319.679 73.1552C319.839 76.6986 321.554 79.6705 324.137 82.2081C325.508 83.5569 326.628 83.2369 327.2 81.4537L327.223 81.4994Z" fill="#4D8AEE"/>
<path d="M326.561 65.9543C325.807 65.7943 325.053 65.6114 324.047 65.3828C324.23 65.9086 324.298 66.2287 324.458 66.5259C325.304 68.2176 326.287 69.8407 327.019 71.5781C328.07 74.07 330.219 75.7846 332.55 77.4077C333.876 78.3221 335.065 77.9564 335.476 76.5618C335.568 76.2418 335.659 75.8989 335.591 75.5788C335.362 74.23 335.248 72.8355 334.813 71.5324C334.288 69.9093 333.556 68.3547 332.87 66.7545C332.688 66.3201 332.39 65.9543 331.659 66.1144C329.944 66.503 328.253 66.2744 326.584 65.9315L326.561 65.9543Z" fill="#4D8AEE"/>
<path d="M269.367 65.4519C269.367 65.2461 269.367 65.0404 269.276 64.8575C269.116 64.5374 268.933 64.0116 268.704 64.0116C268.316 63.9659 267.721 64.1259 267.493 64.4231C264.887 67.738 262.304 71.0528 261.778 75.3049C261.687 76.0594 261.527 76.8366 261.344 77.9797C261.435 78.8027 261.549 79.9914 261.664 81.1802C261.664 81.2945 261.709 81.4317 261.755 81.546C262.327 83.3292 263.447 83.6263 264.818 82.3004C267.401 79.7628 269.116 76.8138 269.276 73.2475C269.39 70.6642 269.322 68.0809 269.344 65.4976L269.367 65.4519Z" fill="#4D8AEE"/>
<path d="M253.525 90.9182C254.508 91.1011 255.468 91.4212 256.382 91.7641C256.702 91.8784 256.976 91.9241 257.228 91.8784L259.399 91.7184C259.857 91.6269 260.474 91.6269 260.725 91.3983C261.594 90.6668 262.577 89.9123 263.103 89.0436C264.611 86.5746 265.937 84.0371 267.331 81.5224C267.4 81.4081 267.423 81.2709 267.446 81.1566C267.377 81.1109 267.309 81.088 267.217 81.0423C266.874 81.4081 266.531 81.751 266.166 82.0939C266.028 82.2311 265.914 82.3454 265.777 82.4825C265.251 82.9855 264.314 83.7856 263.605 83.8542C263.24 83.877 263.034 83.8999 262.943 83.877C262.92 83.8542 262.897 83.8085 262.874 83.8085C261.137 83.0083 260.497 81.7053 260.314 80.265C260.154 79.0762 260.268 77.8417 260.268 76.653C260.268 76.4929 260.268 76.3329 260.314 76.0586C259.079 76.7444 258.028 77.3845 256.885 77.9103C256.245 78.2075 255.468 78.4133 254.713 78.4819C253.982 78.5504 253.662 78.8019 253.456 79.282C252.542 81.3852 252.176 83.557 252.13 85.7745C252.107 87.1919 252.382 88.6093 252.542 90.0267C252.587 90.5067 252.885 90.7353 253.548 90.8497L253.525 90.9182Z" fill="#4D8AEE"/>
<path d="M256.473 77.4311C258.805 75.808 260.954 74.0934 262.005 71.6016C262.737 69.887 263.697 68.241 264.565 66.5493C264.725 66.2521 264.794 65.9321 264.977 65.4062C263.971 65.6349 263.217 65.8177 262.462 65.9778C260.794 66.3207 259.102 66.5493 257.388 66.1607C256.656 66.0006 256.359 66.3664 256.176 66.8008C255.49 68.3782 254.736 69.9556 254.233 71.5787C253.822 72.9047 253.685 74.2763 253.456 75.6251C253.41 75.9452 253.479 76.2881 253.57 76.6081C253.982 78.0026 255.17 78.3684 256.496 77.454L256.473 77.4311Z" fill="#4D8AEE"/>
</svg>
