<svg width="403" height="272" viewBox="0 0 403 272" fill="none" xmlns="http://www.w3.org/2000/svg">
<path d="M91.6389 203.366C91.6159 203.229 91.5239 198.954 91.409 198.633C91.294 198.976 90.6274 201.423 90.5814 201.606C90.4205 202.337 90.2596 203.046 90.0986 203.778C89.2251 207.641 88.3285 211.482 87.5009 215.346C87.0642 217.404 86.5354 219.439 86.3285 221.519C86.0067 224.811 85.8228 228.127 85.7308 231.442C85.6389 234.894 85.9837 238.301 86.9262 241.639C87.363 243.193 87.7998 244.748 88.2366 246.303C88.1216 246.257 88.0757 246.211 88.0297 246.12C87.6619 245.091 87.2481 244.062 86.9032 242.987C85.294 237.843 84.8343 232.539 84.7653 227.189C84.6963 221.291 84.4205 215.415 83.9837 209.539C83.7768 206.795 83.6619 204.052 83.6389 201.286C83.6159 198.062 84.0527 194.861 84.6044 191.66C84.7883 190.586 84.9262 189.488 85.1101 188.322C84.9262 188.391 84.8573 188.391 84.8343 188.437C84.6274 188.734 84.3975 189.008 84.1906 189.305C80.4205 194.564 78.2366 200.485 77.455 206.887C76.9262 211.185 76.7653 216.901 77.455 221.199C78.4435 227.372 78.6963 230.413 80.6734 236.334C81.432 238.552 83.386 242.324 84.8803 244.176C86.3055 245.937 87.7078 247.697 89.1331 249.458C89.317 249.663 89.5239 249.869 89.8458 250.189C89.9147 249.778 90.0067 249.549 89.9837 249.321C89.6389 247.24 89.455 245.091 88.8343 243.079C88.0757 240.701 87.9837 237.249 88.4894 234.78C89.7308 228.652 91.5929 226.115 92.9032 220.01C93.478 217.312 93.6159 213.563 93.0182 210.774C92.4435 208.122 92.1216 205.927 91.6159 203.275L91.6389 203.366Z" fill="#4D8AEE"/>
<path d="M88.6952 182.355C88.3734 182.973 88.0056 183.59 87.7987 184.253C87.0631 186.585 86.3274 188.894 85.7297 191.249C84.9711 194.107 84.4884 197.033 84.5573 200.006C84.6263 203.206 84.6952 206.407 84.8332 209.608C84.9481 212.283 85.178 214.958 85.3849 217.656C85.3849 217.953 85.5228 218.227 85.5918 218.525C85.6608 218.525 85.7297 218.525 85.7757 218.525C85.8677 218.227 85.9826 217.953 86.0286 217.656C86.8792 213.723 87.7067 209.791 88.6033 205.881C89.0401 203.915 89.5918 201.949 90.0975 199.983C90.3734 198.885 90.7182 197.811 90.8792 196.691C91.2929 193.673 91.0401 190.655 90.7182 187.637C90.5343 185.899 90.0975 184.184 89.7527 182.47C89.7067 182.241 89.4769 181.99 89.27 181.921C89.132 181.875 88.8332 182.15 88.7412 182.333L88.6952 182.355Z" fill="#4D8AEE"/>
<path d="M118.58 182.354C118.465 182.171 118.166 181.897 118.052 181.943C117.845 182.011 117.615 182.285 117.569 182.491C117.201 184.206 116.787 185.921 116.603 187.658C116.281 190.653 116.029 193.694 116.442 196.712C116.603 197.832 116.948 198.907 117.224 200.004C117.707 201.97 118.258 203.914 118.718 205.903C119.592 209.812 120.419 213.745 121.293 217.677C121.362 217.974 121.477 218.249 121.546 218.546C121.615 218.546 121.684 218.546 121.73 218.546C121.799 218.249 121.914 217.974 121.937 217.677C122.121 215.002 122.35 212.327 122.488 209.63C122.626 206.429 122.695 203.228 122.764 200.027C122.833 197.055 122.327 194.128 121.592 191.271C120.971 188.916 120.235 186.584 119.523 184.275C119.316 183.612 118.971 182.994 118.626 182.377L118.58 182.354Z" fill="#4D8AEE"/>
<path d="M118.143 249.549C119.568 247.789 120.971 246.029 122.396 244.268C123.89 242.393 125.844 238.644 126.603 236.426C128.603 230.505 128.856 227.464 129.821 221.291C130.511 216.993 130.35 211.277 129.821 206.979C129.04 200.577 126.856 194.656 123.085 189.397C122.879 189.1 122.672 188.803 122.442 188.528C122.442 188.506 122.373 188.506 122.166 188.414C122.35 189.603 122.488 190.677 122.672 191.752C123.223 194.93 123.66 198.131 123.637 201.377C123.637 204.121 123.499 206.887 123.292 209.631C122.856 215.507 122.557 221.382 122.511 227.281C122.465 232.608 121.982 237.935 120.373 243.079C120.051 244.131 119.637 245.16 119.246 246.211C119.223 246.28 119.177 246.349 119.04 246.394C119.476 244.84 119.913 243.285 120.35 241.73C121.315 238.392 121.637 234.986 121.545 231.533C121.453 228.218 121.269 224.903 120.948 221.611C120.741 219.53 120.212 217.473 119.775 215.438C118.925 211.574 118.051 207.733 117.177 203.869C117.017 203.138 116.856 202.429 116.695 201.697C116.649 201.515 115.982 199.068 115.867 198.725C115.752 199.045 115.66 203.321 115.637 203.458C115.131 206.11 114.81 208.328 114.235 210.957C113.637 213.746 113.775 217.496 114.35 220.193C115.637 226.321 117.522 228.836 118.764 234.963C119.269 237.409 119.177 240.862 118.419 243.262C117.798 245.274 117.614 247.423 117.269 249.504C117.223 249.71 117.338 249.961 117.407 250.373C117.729 250.03 117.936 249.847 118.12 249.641L118.143 249.549Z" fill="#4D8AEE"/>
</svg>
