<svg width="403" height="272" viewBox="0 0 403 272" fill="none" xmlns="http://www.w3.org/2000/svg">
<g filter="url(#filter0_d_350_16940)">
<path d="M67.0623 66.7127C68.0048 66.0954 69.4991 65.4553 70.5106 64.9523C71.683 64.3579 74.9933 63.832 76.1887 63.3062C78.5106 62.2773 78.6255 62.9632 80.0278 60.5398C81.8669 57.339 84.3496 53.3151 85.1542 49.7485C85.2922 49.1312 85.1083 48.5825 84.6485 48.2167C83.8209 47.5536 82.9703 46.9135 82.0508 46.3876C81.706 46.1819 81.1772 46.2276 80.7864 46.2962C77.1083 46.8449 74.9473 47.325 72.1887 49.4055C70.5106 50.663 68.0048 53.4523 67.2462 55.4185C65.8439 59.0308 66.1657 63.3062 66.0508 67.1243C66.0508 67.2157 66.0968 67.33 66.1427 67.5358C66.3726 67.33 66.9014 66.8499 67.0623 66.7356V66.7127Z" fill="#4D8AEE"/>
</g>
<path d="M121.869 49.7716C122.674 53.3154 125.156 57.3621 126.995 60.5629C128.398 62.9864 128.49 62.3005 130.835 63.3294C132.03 63.8552 135.34 64.381 136.513 64.9755C137.524 65.4785 139.018 66.1186 139.961 66.7359C140.145 66.8502 140.674 67.3532 140.881 67.5361C140.926 67.3304 140.995 67.216 140.972 67.1246C140.835 63.3065 141.156 59.0311 139.777 55.4188C139.018 53.4526 136.536 50.6862 134.835 49.4058C132.076 47.3253 129.892 46.8681 126.237 46.2965C125.846 46.2279 125.294 46.205 124.972 46.3879C124.053 46.9366 123.202 47.5539 122.375 48.217C121.915 48.5828 121.731 49.1315 121.869 49.7488V49.7716Z" fill="#4D8AEE"/>
<path d="M311.518 53.5171C311.495 54.02 311.678 54.3401 312.112 54.6373C313.186 55.3688 314.283 56.0775 315.221 56.9691C317.049 58.6837 318.695 60.604 320.57 62.2728C322.924 64.3989 325.781 65.4505 329.347 65.3819C329.713 65.3362 330.445 65.2448 331.153 65.1762C331.611 65.1305 331.793 64.879 331.748 64.4446C331.588 63.0958 331.519 61.747 331.268 60.444C330.765 57.6092 329.828 54.9573 327.816 52.8084C325.233 50.0651 322.033 48.2819 318.512 47.0931C318.009 46.9331 317.415 46.9103 316.889 47.0246C314.283 47.619 311.678 50.8195 311.518 53.5171Z" fill="#4D8AEE"/>
<path d="M257.867 65.1762C258.598 65.2448 259.307 65.3362 259.673 65.3819C263.239 65.4277 266.073 64.3761 268.45 62.2728C270.325 60.604 271.971 58.6837 273.799 56.9691C274.737 56.0775 275.834 55.3688 276.908 54.6373C277.343 54.3401 277.525 54.02 277.503 53.5171C277.32 50.8195 274.737 47.619 272.131 47.0246C271.628 46.9103 271.011 46.9331 270.508 47.0931C266.965 48.2819 263.764 50.0422 261.204 52.8084C259.193 54.9573 258.255 57.6092 257.752 60.444C257.524 61.7699 257.432 63.1187 257.272 64.4446C257.227 64.879 257.41 65.1305 257.867 65.1762Z" fill="#4D8AEE"/>
<defs>
<filter id="filter0_d_350_16940" x="51.1508" y="31.3383" width="48.9484" height="51.0974" filterUnits="userSpaceOnUse" color-interpolation-filters="sRGB">
<feFlood flood-opacity="0" result="BackgroundImageFix"/>
<feColorMatrix in="SourceAlpha" type="matrix" values="0 0 0 0 0 0 0 0 0 0 0 0 0 0 0 0 0 0 127 0" result="hardAlpha"/>
<feOffset/>
<feGaussianBlur stdDeviation="7.45"/>
<feComposite in2="hardAlpha" operator="out"/>
<feColorMatrix type="matrix" values="0 0 0 0 0.266667 0 0 0 0 0.458824 0 0 0 0 0.952941 0 0 0 0.4 0"/>
<feBlend mode="normal" in2="BackgroundImageFix" result="effect1_dropShadow_350_16940"/>
<feBlend mode="normal" in="SourceGraphic" in2="effect1_dropShadow_350_16940" result="shape"/>
</filter>
</defs>
</svg>
