<svg width="403" height="272" viewBox="0 0 403 272" fill="none" xmlns="http://www.w3.org/2000/svg">
<path d="M64.7638 95.84C64.7638 96.343 64.8788 96.846 64.9478 97.4862C65.1087 97.3033 65.1547 97.2575 65.2006 97.1889C66.0512 95.7714 66.7638 94.2625 67.7524 92.9593C69.8443 90.1243 71.3845 87.0378 72.488 83.7227C73.1087 81.8479 73.7524 79.9503 74.3271 78.0527C75.4765 74.2803 76.1891 70.4165 76.511 66.4841C76.6489 64.9065 75.7064 64.152 74.1891 64.6779C70.0742 66.1411 66.0742 66.2097 63.0627 72.6799C61.7524 75.4692 61.4995 76.9096 61.3156 79.9503C61.2236 81.5279 61.7064 84.2714 63.0627 85.9633C64.9248 88.2724 64.6949 92.845 64.7638 95.8629V95.84Z" fill="#4D8AEE"/>
<path d="M72.2816 94.9948C73.1092 93.4173 73.408 91.7025 72.9252 89.9421C72.8563 89.6449 72.6494 89.2791 72.3965 89.1648C72.2126 89.0962 71.7988 89.3248 71.6149 89.5306C70.8563 90.3765 70.1436 91.2453 69.408 92.1141C67.7758 94.0117 66.2586 96.0008 65.2471 98.2871C64.1206 100.893 63.2011 103.591 62.2586 106.289C59.8908 113.194 58.3275 120.235 58.0977 127.552C58.0977 128.032 58.1666 128.512 58.2126 128.992C58.3046 128.992 58.3735 129.038 58.4655 129.038C58.6034 128.695 58.7643 128.352 58.9023 128.009C60.7643 123.528 63.316 119.527 65.1551 115.046C66.7643 111.113 68.6264 106.472 70.0287 102.471C70.9482 99.8417 70.9482 97.4869 72.2586 94.9948H72.2816Z" fill="#4D8AEE"/>
<path d="M51.2934 122.385C53.5003 119.871 55.4083 117.173 57.1325 114.315C60.8566 108.119 63.4313 101.512 64.006 94.2412C64.1669 92.275 64.2129 90.3317 63.2934 88.4798C62.6957 87.268 62.121 87.1766 61.3164 88.2511C57.7302 93.0066 55.983 98.448 55.5233 104.301C55.0405 110.565 53.2934 116.441 50.5807 122.065C50.3968 122.454 50.1439 122.843 49.9141 123.209C49.983 123.277 50.052 123.346 50.121 123.414C50.5118 123.071 50.9715 122.774 51.3164 122.385H51.2934Z" fill="#4D8AEE"/>
<path d="M72.5129 88.0235C72.8578 88.0006 73.2256 87.4977 73.4095 87.2233C73.8233 86.5603 74.8578 84.9599 75.1796 84.2511C76.8807 80.7074 77.4325 79.5185 78.1221 75.929C78.1911 75.5175 78.398 72.8425 78.306 72.431C78.2601 72.1566 78.306 70.8077 78.2601 70.5105C78.0761 68.7501 77.7083 66.2351 77.5934 66.4638C77.2945 67.8584 76.0761 74.1914 75.8692 74.923C74.9497 78.101 74.0532 81.3018 73.1796 84.5026C72.9267 85.44 72.6968 86.3774 72.4669 87.2919C72.5589 87.3376 72.398 88.0235 72.4669 88.0006L72.5129 88.0235Z" fill="#4D8AEE"/>
<path d="M130.513 66.462C130.835 70.3944 131.571 74.2354 132.697 78.0306C133.272 79.9283 133.893 81.8259 134.536 83.7006C135.64 87.0158 137.18 90.1251 139.272 92.9373C140.26 94.2633 140.973 95.7494 141.824 97.1669C141.87 97.2355 141.916 97.2812 142.077 97.4641C142.146 96.8239 142.237 96.321 142.26 95.818C142.329 92.8229 142.1 88.2275 143.962 85.9183C145.318 84.2493 145.801 81.4829 145.709 79.9054C145.525 76.8646 145.272 75.4243 143.962 72.635C140.95 66.1648 136.95 66.0962 132.835 64.633C131.341 64.1071 130.398 64.8616 130.513 66.4391V66.462Z" fill="#4D8AEE"/>
<path d="M144.742 106.267C143.823 103.569 142.903 100.871 141.754 98.2647C140.765 95.9784 139.225 93.9893 137.593 92.0917C136.857 91.2458 136.144 90.3541 135.386 89.5082C135.202 89.3024 134.788 89.0509 134.604 89.1424C134.351 89.2567 134.144 89.6225 134.075 89.9197C133.593 91.6802 133.892 93.3949 134.719 94.9724C136.029 97.4416 136.052 99.8194 136.949 102.449C138.351 106.45 140.213 111.091 141.823 115.023C143.662 119.527 146.213 123.505 148.075 127.986C148.213 128.329 148.374 128.672 148.512 129.015C148.604 129.015 148.673 128.97 148.765 128.97C148.811 128.489 148.88 128.009 148.88 127.529C148.65 120.213 147.064 113.171 144.719 106.267H144.742Z" fill="#4D8AEE"/>
<path d="M143.755 88.4565C142.835 90.3084 142.904 92.2517 143.042 94.2179C143.594 101.488 146.168 108.096 149.916 114.292C151.64 117.149 153.548 119.87 155.755 122.362C156.1 122.751 156.536 123.048 156.95 123.391C157.019 123.322 157.088 123.254 157.157 123.185C156.927 122.797 156.697 122.431 156.49 122.042C153.755 116.418 152.031 110.542 151.548 104.278C151.088 98.4476 149.341 92.9833 145.755 88.2279C144.95 87.1533 144.375 87.2219 143.778 88.4565H143.755Z" fill="#4D8AEE"/>
<path d="M134.511 88.0222C134.511 88.0222 134.442 87.3592 134.511 87.3135C134.281 86.3761 134.051 85.4387 133.798 84.5242C132.901 81.3234 132.028 78.1226 131.108 74.9447C130.901 74.213 129.683 67.88 129.384 66.4854C129.269 66.2567 128.924 68.7488 128.717 70.5321C128.694 70.8293 128.717 72.1782 128.671 72.4526C128.602 72.8641 128.786 75.5391 128.855 75.9506C129.545 79.5401 130.097 80.729 131.798 84.2727C132.143 84.9815 133.177 86.559 133.568 87.2449C133.752 87.5193 134.12 88.0222 134.465 88.0451L134.511 88.0222Z" fill="#4D8AEE"/>
<path d="M57.1767 128.49C57.3146 125.838 57.6135 123.185 57.8664 120.533C57.9123 120.145 57.9353 119.756 57.9813 119.39L58.8319 115.023C58.9008 114.703 58.9698 114.383 59.0388 114.063C59.0847 113.789 59.0388 113.514 59.0388 113.08C56.533 116.647 54.1192 120.053 51.7054 123.483L50.0503 125.083C48.9698 125.243 47.9583 125.655 47.1767 126.386C45.5675 127.872 44.0503 129.45 42.487 130.982L40.9928 132.811C39.9353 133.245 38.9008 133.68 37.8664 134.137C37.7284 134.205 37.6365 134.663 37.7284 134.846C38.1422 135.646 38.8778 136.012 39.7974 136.149C41.2227 135.829 42.6709 135.509 44.1422 135.189L45.4066 135.669C45.4066 135.669 45.3376 135.783 45.2916 135.852C45.2227 135.943 45.1767 136.034 45.1307 136.149C43.9583 138.229 42.7399 140.287 41.5905 142.39C41.0388 143.396 40.0273 144.334 40.0962 145.568C40.1192 146.048 40.487 146.368 40.7859 146.574C40.9008 146.666 41.3606 146.346 41.6135 146.14C41.8434 145.957 42.0043 145.705 42.1652 145.454C43.2916 143.625 44.3951 141.796 45.4985 139.944C46.0043 139.098 46.51 138.252 46.9698 137.383L47.3376 137.818C46.1422 139.875 44.9468 141.91 43.7974 143.991C42.9928 145.454 42.2801 146.963 41.5445 148.449C41.1307 149.295 41.6135 150.232 42.7169 150.187C42.9468 150.004 43.4755 149.752 43.7514 149.341C44.2801 148.586 44.648 147.717 45.0847 146.917C46.3031 144.677 47.4985 142.413 48.7169 140.173L49.1307 140.881C48.2342 142.459 47.3606 144.059 46.533 145.683C45.9353 146.849 45.4066 148.037 44.8778 149.226C44.556 149.935 44.8549 150.369 45.5675 150.369C46.2572 150.369 46.8089 150.095 47.1307 149.478C47.5445 148.678 47.9123 147.855 48.3031 147.054C49.0388 145.568 49.7744 144.105 50.533 142.642L51.1077 143.282C51.0158 143.419 50.9468 143.556 50.8778 143.716C50.3951 144.837 49.7744 145.865 49.2457 146.963C49.1537 147.169 49.1767 147.649 49.2687 147.672C49.5215 147.786 49.8664 147.74 50.1422 147.695C50.2572 147.695 50.3491 147.534 50.4411 147.443C51.7974 145.843 52.7859 144.036 53.7284 142.185L56.533 138.458C58.3951 136.126 58.625 134.137 57.6595 131.393C57.3376 130.479 57.1537 129.45 57.1997 128.49H57.1767Z" fill="#4D8AEE"/>
<path d="M169.177 134.158C168.143 133.724 167.108 133.267 166.051 132.832L164.557 131.003C162.993 129.471 161.453 127.894 159.867 126.408C159.085 125.676 158.074 125.265 156.993 125.105L155.338 123.504C152.924 120.098 150.511 116.668 148.005 113.102C148.005 113.513 147.959 113.81 148.005 114.085C148.074 114.405 148.12 114.725 148.212 115.045L149.062 119.412C149.108 119.8 149.131 120.189 149.177 120.555C149.407 123.207 149.706 125.859 149.867 128.511C149.913 129.471 149.729 130.5 149.407 131.415C148.442 134.135 148.671 136.147 150.534 138.479L153.338 142.183C154.281 144.035 155.246 145.864 156.625 147.465C156.717 147.556 156.809 147.716 156.924 147.716C157.223 147.762 157.545 147.785 157.798 147.693C157.89 147.647 157.913 147.167 157.821 146.984C157.292 145.887 156.671 144.835 156.189 143.738C156.12 143.578 156.051 143.441 155.959 143.303L156.534 142.663C157.292 144.127 158.028 145.613 158.763 147.076C159.154 147.876 159.522 148.699 159.936 149.499C160.258 150.117 160.809 150.391 161.499 150.391C162.212 150.391 162.511 149.979 162.189 149.248C161.66 148.059 161.131 146.847 160.534 145.704C159.706 144.081 158.809 142.503 157.936 140.903L158.35 140.194C159.568 142.435 160.763 144.675 161.982 146.939C162.419 147.762 162.786 148.608 163.315 149.362C163.591 149.774 164.12 150.025 164.35 150.208C165.453 150.231 165.936 149.316 165.522 148.47C164.786 146.984 164.074 145.475 163.269 144.012C162.12 141.932 160.924 139.897 159.729 137.839L160.097 137.405C160.557 138.274 161.062 139.12 161.568 139.965C162.671 141.795 163.775 143.646 164.901 145.475C165.062 145.727 165.223 145.978 165.453 146.161C165.706 146.367 166.166 146.687 166.281 146.596C166.58 146.413 166.924 146.07 166.97 145.59C167.039 144.378 166.028 143.418 165.476 142.412C164.327 140.308 163.131 138.251 161.936 136.17C161.89 136.079 161.821 135.964 161.775 135.873C161.729 135.804 161.706 135.759 161.66 135.69L162.924 135.21C164.373 135.553 165.844 135.85 167.269 136.17C168.189 136.033 168.924 135.667 169.338 134.867C169.43 134.684 169.338 134.204 169.2 134.158H169.177Z" fill="#4D8AEE"/>
<path d="M364.736 136.252C362.861 135.429 361.033 134.583 359.798 132.914C359.387 132.365 358.93 131.84 358.495 131.291C357.238 129.759 355.821 128.411 353.901 127.61C353.626 127.496 353.329 127.427 353.032 127.359L350.152 127.107C350.152 127.107 350.152 127.107 350.175 127.153C349.717 127.13 349.237 127.176 348.78 127.359C347.5 127.839 346.243 128.456 345.009 129.073C344.803 129.188 344.574 129.531 344.574 129.759C344.574 131.428 344.62 133.097 344.643 134.743C344.414 136.183 345.146 137.578 345.649 138.927C346.174 140.298 346.7 141.487 347.546 142.493C347.592 142.653 347.637 142.767 347.706 142.882C348.323 144.047 348.94 145.236 349.603 146.379C350.106 147.248 350.655 148.094 351.272 148.894C351.455 149.123 352.003 149.237 352.301 149.145C352.758 148.985 352.575 148.528 352.415 148.208C351.889 147.111 351.295 146.059 350.86 144.916C350.792 144.733 350.7 144.55 350.609 144.413C350.815 144.276 351.043 144.07 351.295 143.727C351.569 144.299 351.843 144.87 352.118 145.442C352.803 146.951 353.489 148.482 354.175 149.991C354.541 150.837 355.044 151.5 356.072 151.569C356.644 151.592 356.941 151.317 356.941 150.654C356.895 150.54 356.827 150.311 356.735 150.106C355.935 148.322 355.135 146.516 354.289 144.733C353.924 143.979 353.512 143.247 353.101 142.539C353.238 142.379 353.398 142.219 353.581 142.036C353.946 142.721 354.289 143.407 354.632 144.093C355.638 146.128 356.621 148.208 357.695 150.22C357.947 150.7 358.404 151.111 358.884 151.386C359.135 151.546 359.73 151.477 359.935 151.271C360.21 151.02 360.278 150.54 360.347 150.128C360.37 149.923 360.233 149.694 360.118 149.488C358.564 146.425 357.009 143.384 355.455 140.321C355.592 140.184 355.707 140.047 355.821 139.91C357.238 142.401 358.655 144.893 360.118 147.385C360.278 147.659 360.804 147.98 361.01 147.888C361.307 147.751 361.467 147.317 361.673 146.996C361.376 146.219 361.193 145.511 360.895 144.893C360.05 143.202 359.135 141.533 358.244 139.864C357.787 138.972 357.307 138.104 356.827 137.235C356.827 137.166 356.781 137.098 356.758 137.029C357.032 136.48 357.627 136.298 357.627 136.298C357.901 136.732 358.404 137.189 358.884 137.349C360.095 137.738 361.376 137.989 362.61 138.264C363.593 138.469 364.439 138.172 365.033 137.372C365.467 136.8 365.422 136.572 364.736 136.275V136.252Z" fill="#4D8AEE"/>
<path d="M334.33 78.5287C333.576 78.4601 332.799 78.2544 332.158 77.9572C331.016 77.4314 329.964 76.7913 328.73 76.1055C328.73 76.3798 328.775 76.5398 328.775 76.6999C328.775 77.9115 328.89 79.1231 328.73 80.3119C328.547 81.7521 327.884 83.0552 326.169 83.8553C326.147 83.8553 326.124 83.9011 326.101 83.9239C325.987 83.9239 325.804 83.9239 325.438 83.9011C324.729 83.8325 323.769 83.0323 323.266 82.5294C323.152 82.3922 323.015 82.2779 322.878 82.1408C322.535 81.7979 322.169 81.4549 321.826 81.0892C321.758 81.1349 321.689 81.1577 321.598 81.2035C321.643 81.3178 321.666 81.4549 321.712 81.5692C323.106 84.084 324.409 86.6215 325.941 89.0905C326.467 89.9592 327.45 90.7136 328.318 91.4452C328.57 91.6738 329.187 91.6509 329.644 91.7652L331.816 91.9253C332.067 91.971 332.341 91.9253 332.661 91.811C333.599 91.468 334.536 91.148 335.519 90.9651C336.182 90.8508 336.479 90.6222 336.525 90.1421C336.685 88.7247 336.959 87.3073 336.936 85.89C336.89 83.6725 336.525 81.5007 335.61 79.3974C335.404 78.9174 335.084 78.643 334.353 78.5973L334.33 78.5287Z" fill="#4D8AEE"/>
<path d="M337.326 93.5009C339.543 95.8555 341.555 98.3702 343.224 101.114C343.315 101.274 343.475 101.388 343.612 101.525C343.681 101.479 343.749 101.456 343.818 101.411C343.726 96.1984 341.052 91.9006 338.24 87.6484H337.966C337.852 87.8999 337.692 88.1057 337.623 88.3571C337.372 89.6145 337.143 90.8718 336.892 92.1292C336.777 92.6779 336.937 93.1122 337.326 93.5009Z" fill="#4D8AEE"/>
<path d="M327.223 81.4994C327.268 81.3851 327.291 81.248 327.314 81.1337C327.428 79.9449 327.566 78.7561 327.634 77.9331C327.451 76.7901 327.291 76.0356 327.2 75.2584C326.674 71.0062 324.091 67.6914 321.485 64.3765C321.279 64.1022 320.685 63.9422 320.274 63.9651C320.045 63.9651 319.862 64.5137 319.702 64.8109C319.611 64.9938 319.611 65.1995 319.611 65.4053C319.611 67.9886 319.565 70.5719 319.679 73.1552C319.839 76.6986 321.554 79.6705 324.137 82.2081C325.508 83.5569 326.628 83.2369 327.2 81.4537L327.223 81.4994Z" fill="#4D8AEE"/>
<path d="M326.561 65.9543C325.807 65.7943 325.053 65.6114 324.047 65.3828C324.23 65.9086 324.298 66.2287 324.458 66.5259C325.304 68.2176 326.287 69.8407 327.019 71.5781C328.07 74.07 330.219 75.7846 332.55 77.4077C333.876 78.3221 335.065 77.9564 335.476 76.5618C335.568 76.2418 335.659 75.8989 335.591 75.5788C335.362 74.23 335.248 72.8355 334.813 71.5324C334.288 69.9093 333.556 68.3547 332.87 66.7545C332.688 66.3201 332.39 65.9543 331.659 66.1144C329.944 66.503 328.253 66.2744 326.584 65.9315L326.561 65.9543Z" fill="#4D8AEE"/>
<path d="M351.339 126.399C352.002 126.536 352.139 126.239 351.887 125.576C350.562 121.941 349.19 118.306 347.91 114.648C347.293 112.911 346.881 111.105 346.355 109.322C346.287 109.116 346.081 108.933 345.944 108.75C345.761 108.933 345.555 109.093 345.418 109.322C345.327 109.482 345.304 109.71 345.304 109.916C345.235 111.128 345.098 112.339 345.121 113.551C345.121 115.86 345.235 118.169 345.304 120.455C345.213 120.455 345.144 120.455 345.053 120.455C344.367 116.729 344.23 112.979 344.367 109.23C344.504 105.504 343.772 102.098 341.304 99.1485C341.144 98.9656 340.984 98.7599 340.824 98.5541C340.824 98.5541 340.664 98.3712 340.572 98.2798L338.698 96.2223C337.875 95.6508 337.143 95.1021 336.389 94.5992L334.972 93.2732C334.972 93.2732 334.88 93.1589 334.812 93.1132C334.629 93.0218 334.355 92.9989 333.989 93.0904C333.372 93.2504 332.777 93.5933 332.229 93.9362C331.611 94.302 331.474 94.8964 331.771 95.4908C332.092 96.1537 332.457 96.7938 332.869 97.3882C333.669 98.4855 334.492 99.56 334.903 100.886C336.366 105.504 337.898 110.076 339.384 114.694C339.818 116.043 340.229 117.392 340.664 118.74L340.549 118.786C340.549 118.786 340.458 118.626 340.435 118.557C338.903 113.894 337.372 109.23 335.795 104.589C335.063 102.395 334.4 100.154 332.914 98.2798C332 97.1368 331.109 95.9708 330.194 94.8507C329.554 94.0505 328.891 93.2732 328.205 92.5188C328.091 92.3817 327.817 92.2445 327.68 92.2902C327.543 92.3131 327.405 92.6103 327.428 92.7703C327.451 93.6847 327.36 94.622 327.634 95.4679C328.023 96.6795 328.686 97.7997 329.257 98.9656C329.646 99.7658 330.194 100.52 330.469 101.366C331.954 105.847 333.783 110.168 335.909 114.397C338.195 118.9 340.572 123.335 342.904 127.816C343.201 128.388 343.544 128.365 344.047 128.136C346.355 127.085 348.619 125.942 351.339 126.467V126.399Z" fill="#4D8AEE"/>
<path d="M243.994 129.05C242.76 128.433 241.502 127.838 240.222 127.335C239.765 127.153 239.285 127.107 238.828 127.13C238.828 127.107 238.851 127.084 238.851 127.084L235.971 127.335C235.673 127.427 235.376 127.473 235.102 127.587C233.182 128.387 231.765 129.736 230.507 131.268C230.073 131.793 229.616 132.319 229.204 132.891C227.97 134.582 226.141 135.405 224.267 136.228C223.604 136.526 223.535 136.754 223.97 137.326C224.564 138.126 225.41 138.423 226.393 138.217C227.65 137.943 228.907 137.691 230.119 137.303C230.622 137.143 231.102 136.686 231.376 136.251C231.376 136.251 231.97 136.434 232.245 136.983C232.222 137.051 232.199 137.12 232.176 137.189C231.696 138.057 231.239 138.949 230.759 139.818C229.867 141.486 228.953 143.155 228.107 144.847C227.787 145.464 227.604 146.173 227.33 146.95C227.536 147.247 227.696 147.705 228.016 147.842C228.221 147.933 228.747 147.613 228.907 147.339C230.347 144.847 231.787 142.355 233.205 139.863C233.296 140 233.433 140.138 233.57 140.275C231.993 143.315 230.462 146.379 228.907 149.442C228.816 149.648 228.656 149.876 228.679 150.082C228.747 150.494 228.816 150.974 229.09 151.225C229.296 151.431 229.89 151.5 230.142 151.339C230.599 151.065 231.079 150.654 231.33 150.174C232.382 148.162 233.365 146.081 234.393 144.047C234.736 143.361 235.102 142.675 235.445 141.989C235.628 142.149 235.788 142.309 235.925 142.492C235.513 143.224 235.102 143.933 234.736 144.687C233.89 146.447 233.09 148.253 232.29 150.059C232.199 150.265 232.13 150.494 232.085 150.608C232.085 151.271 232.382 151.545 232.953 151.522C233.982 151.477 234.485 150.791 234.851 149.945C235.536 148.413 236.222 146.904 236.908 145.396C237.182 144.824 237.456 144.253 237.731 143.681C237.982 144.024 238.211 144.253 238.417 144.367C238.325 144.527 238.234 144.687 238.165 144.87C237.708 145.99 237.114 147.064 236.611 148.162C236.451 148.482 236.268 148.939 236.725 149.099C237.022 149.191 237.571 149.076 237.754 148.848C238.371 148.07 238.919 147.202 239.422 146.333C240.085 145.19 240.702 144.001 241.32 142.835C241.388 142.721 241.411 142.607 241.48 142.447C242.325 141.441 242.851 140.229 243.377 138.88C243.903 137.531 244.634 136.137 244.383 134.697C244.406 133.028 244.474 131.359 244.451 129.713C244.451 129.484 244.246 129.141 244.017 129.027L243.994 129.05Z" fill="#4D8AEE"/>
<path d="M245.797 101.114C247.466 98.3702 249.455 95.8555 251.695 93.5009C252.084 93.0894 252.244 92.655 252.129 92.1292C251.878 90.8718 251.649 89.6145 251.398 88.3571C251.352 88.1057 251.169 87.877 251.055 87.6484H250.781C247.969 91.9006 245.295 96.1984 245.203 101.388C245.272 101.434 245.34 101.456 245.409 101.502C245.546 101.365 245.706 101.251 245.797 101.091V101.114Z" fill="#4D8AEE"/>
<path d="M261.572 92.7234C261.572 92.5634 261.435 92.2662 261.321 92.2433C261.161 92.1976 260.909 92.3348 260.795 92.472C260.109 93.2264 259.446 94.0036 258.806 94.8038C257.892 95.9468 257.001 97.0899 256.086 98.2329C254.6 100.108 253.937 102.348 253.206 104.543C251.629 109.183 250.12 113.847 248.566 118.511C248.543 118.602 248.497 118.671 248.451 118.739L248.337 118.694C248.771 117.345 249.183 115.996 249.617 114.647C251.103 110.052 252.634 105.457 254.097 100.839C254.509 99.5131 255.332 98.4387 256.132 97.3414C256.566 96.747 256.909 96.084 257.229 95.4439C257.526 94.8266 257.412 94.2551 256.772 93.8893C256.223 93.5693 255.629 93.2035 255.012 93.0435C254.646 92.952 254.372 92.9749 254.189 93.0663C254.12 93.1121 254.075 93.1578 254.029 93.2264L252.612 94.5523C251.857 95.0552 251.126 95.581 250.303 96.1754L248.428 98.2329C248.177 98.5073 247.926 98.8044 247.674 99.1016C245.205 102.051 244.474 105.457 244.611 109.183C244.771 112.933 244.611 116.705 243.925 120.408C243.834 120.408 243.765 120.408 243.674 120.408C243.742 118.099 243.834 115.79 243.857 113.504C243.857 112.292 243.742 111.081 243.674 109.869C243.674 109.663 243.674 109.435 243.559 109.275C243.422 109.069 243.217 108.886 243.034 108.703C242.897 108.886 242.691 109.069 242.622 109.275C242.097 111.058 241.685 112.864 241.068 114.601C239.788 118.259 238.416 121.894 237.09 125.529C236.839 126.192 236.976 126.489 237.639 126.352C240.359 125.803 242.645 126.969 244.931 128.021C245.434 128.249 245.777 128.272 246.074 127.701C248.406 123.22 250.783 118.785 253.069 114.281C255.195 110.075 257.046 105.731 258.509 101.251C258.784 100.405 259.332 99.6503 259.721 98.8502C260.292 97.6843 260.955 96.5641 261.344 95.3524C261.618 94.5066 261.504 93.5693 261.549 92.6548L261.572 92.7234Z" fill="#4D8AEE"/>
<path d="M269.367 65.4519C269.367 65.2461 269.367 65.0404 269.276 64.8575C269.116 64.5374 268.933 64.0116 268.704 64.0116C268.316 63.9659 267.721 64.1259 267.493 64.4231C264.887 67.738 262.304 71.0528 261.778 75.3049C261.687 76.0594 261.527 76.8366 261.344 77.9797C261.435 78.8027 261.549 79.9914 261.664 81.1802C261.664 81.2945 261.709 81.4317 261.755 81.546C262.327 83.3292 263.447 83.6263 264.818 82.3004C267.401 79.7628 269.116 76.8138 269.276 73.2475C269.39 70.6642 269.322 68.0809 269.344 65.4976L269.367 65.4519Z" fill="#4D8AEE"/>
<path d="M253.525 90.9182C254.508 91.1011 255.468 91.4212 256.382 91.7641C256.702 91.8784 256.976 91.9241 257.228 91.8784L259.399 91.7184C259.857 91.6269 260.474 91.6269 260.725 91.3983C261.594 90.6668 262.577 89.9123 263.103 89.0436C264.611 86.5746 265.937 84.0371 267.331 81.5224C267.4 81.4081 267.423 81.2709 267.446 81.1566C267.377 81.1109 267.309 81.088 267.217 81.0423C266.874 81.4081 266.531 81.751 266.166 82.0939C266.028 82.2311 265.914 82.3454 265.777 82.4825C265.251 82.9855 264.314 83.7856 263.605 83.8542C263.24 83.877 263.034 83.8999 262.943 83.877C262.92 83.8542 262.897 83.8085 262.874 83.8085C261.137 83.0083 260.497 81.7053 260.314 80.265C260.154 79.0762 260.268 77.8417 260.268 76.653C260.268 76.4929 260.268 76.3329 260.314 76.0586C259.079 76.7444 258.028 77.3845 256.885 77.9103C256.245 78.2075 255.468 78.4133 254.713 78.4819C253.982 78.5504 253.662 78.8019 253.456 79.282C252.542 81.3852 252.176 83.557 252.13 85.7745C252.107 87.1919 252.382 88.6093 252.542 90.0267C252.587 90.5067 252.885 90.7353 253.548 90.8497L253.525 90.9182Z" fill="#4D8AEE"/>
<path d="M256.473 77.4311C258.805 75.808 260.954 74.0934 262.005 71.6016C262.737 69.887 263.697 68.241 264.565 66.5493C264.725 66.2521 264.794 65.9321 264.977 65.4062C263.971 65.6349 263.217 65.8177 262.462 65.9778C260.794 66.3207 259.102 66.5493 257.388 66.1607C256.656 66.0006 256.359 66.3664 256.176 66.8008C255.49 68.3782 254.736 69.9556 254.233 71.5787C253.822 72.9047 253.685 74.2763 253.456 75.6251C253.41 75.9452 253.479 76.2881 253.57 76.6081C253.982 78.0026 255.17 78.3684 256.496 77.454L256.473 77.4311Z" fill="#4D8AEE"/>
</svg>
