<svg width="403" height="150" viewBox="0 0 403 150" fill="none" xmlns="http://www.w3.org/2000/svg">
<rect x="0.5" y="0.5" width="402" height="149" rx="13.5" fill="white"/>
<rect x="0.5" y="0.5" width="402" height="149" rx="13.5" stroke="#EBEEF7"/>
<path d="M210.628 54.6421H215.802C216.488 54.6421 217.146 54.9147 217.632 55.3999C218.117 55.885 218.389 56.5431 218.389 57.2292V75.3392C218.389 76.0254 218.117 76.6835 217.632 77.1686C217.146 77.6538 216.488 77.9264 215.802 77.9264H187.344C186.657 77.9264 185.999 77.6538 185.514 77.1686C185.029 76.6835 184.756 76.0254 184.756 75.3392V57.2292C184.756 56.5431 185.029 55.885 185.514 55.3999C185.999 54.9147 186.657 54.6421 187.344 54.6421H192.518" stroke="#EBEEF7" stroke-width="2" stroke-linecap="round" stroke-linejoin="round"/>
<path d="M201.668 44.2938V62.4038" stroke="#EBEEF7" stroke-width="2" stroke-linecap="round" stroke-linejoin="round"/>
<path d="M196.541 57.2301L201.715 62.4044L206.889 57.2301" stroke="#EBEEF7" stroke-width="2" stroke-linecap="round" stroke-linejoin="round"/>
<path d="M147.931 108.21C147.231 108.21 146.622 108.107 146.104 107.902C145.586 107.697 145.152 107.431 144.802 107.104C144.457 106.773 144.193 106.42 144.011 106.047L145.285 105.221C145.397 105.496 145.565 105.755 145.789 105.998C146.018 106.241 146.312 106.439 146.671 106.593C147.035 106.742 147.476 106.817 147.994 106.817C148.512 106.817 148.939 106.74 149.275 106.586C149.611 106.427 149.861 106.217 150.024 105.956C150.192 105.69 150.276 105.391 150.276 105.06C150.276 104.673 150.173 104.374 149.968 104.164C149.767 103.949 149.499 103.8 149.163 103.716C148.827 103.627 148.463 103.576 148.071 103.562C147.744 103.553 147.509 103.546 147.364 103.541C147.219 103.532 147.121 103.527 147.07 103.527C147.023 103.527 146.979 103.527 146.937 103.527V102.141C146.988 102.141 147.077 102.141 147.203 102.141C147.334 102.141 147.469 102.141 147.609 102.141C147.749 102.136 147.863 102.132 147.952 102.127C148.531 102.099 148.997 101.957 149.352 101.7C149.711 101.443 149.891 101.079 149.891 100.608C149.891 100.137 149.716 99.7657 149.366 99.495C149.021 99.2243 148.566 99.089 148.001 99.089C147.464 99.089 147.002 99.2127 146.615 99.46C146.228 99.7027 145.929 100.004 145.719 100.363L144.641 99.348C144.977 98.8813 145.437 98.4917 146.02 98.179C146.603 97.8663 147.278 97.71 148.043 97.71C148.477 97.71 148.897 97.7683 149.303 97.885C149.709 97.997 150.073 98.1697 150.395 98.403C150.717 98.6363 150.971 98.9327 151.158 99.292C151.349 99.6467 151.445 100.069 151.445 100.559C151.445 101.049 151.345 101.492 151.144 101.889C150.948 102.286 150.684 102.601 150.353 102.834C150.815 103.007 151.177 103.28 151.438 103.653C151.699 104.022 151.83 104.493 151.83 105.067C151.83 105.711 151.66 106.269 151.319 106.74C150.983 107.207 150.521 107.568 149.933 107.825C149.35 108.082 148.682 108.21 147.931 108.21ZM155.461 108.21C154.901 108.21 154.432 108.107 154.054 107.902C153.676 107.692 153.389 107.417 153.193 107.076C153.001 106.731 152.906 106.353 152.906 105.942C152.906 105.559 152.973 105.223 153.109 104.934C153.244 104.645 153.445 104.4 153.711 104.199C153.977 103.994 154.303 103.828 154.691 103.702C155.027 103.604 155.407 103.518 155.832 103.443C156.256 103.368 156.702 103.298 157.169 103.233C157.64 103.168 158.107 103.102 158.569 103.037L158.037 103.331C158.046 102.738 157.92 102.3 157.659 102.015C157.402 101.726 156.959 101.581 156.329 101.581C155.932 101.581 155.568 101.674 155.237 101.861C154.905 102.043 154.674 102.346 154.544 102.771L153.179 102.351C153.365 101.702 153.72 101.187 154.243 100.804C154.77 100.421 155.47 100.23 156.343 100.23C157.019 100.23 157.607 100.347 158.107 100.58C158.611 100.809 158.979 101.173 159.213 101.672C159.334 101.919 159.409 102.181 159.437 102.456C159.465 102.731 159.479 103.028 159.479 103.345V108H158.184V106.271L158.436 106.495C158.123 107.074 157.724 107.505 157.239 107.79C156.758 108.07 156.165 108.21 155.461 108.21ZM155.72 107.013C156.135 107.013 156.492 106.941 156.791 106.796C157.089 106.647 157.33 106.458 157.512 106.229C157.694 106 157.813 105.762 157.869 105.515C157.948 105.291 157.992 105.039 158.002 104.759C158.016 104.479 158.023 104.255 158.023 104.087L158.499 104.262C158.037 104.332 157.617 104.395 157.239 104.451C156.861 104.507 156.518 104.563 156.21 104.619C155.906 104.67 155.636 104.733 155.398 104.808C155.197 104.878 155.017 104.962 154.859 105.06C154.705 105.158 154.581 105.277 154.488 105.417C154.399 105.557 154.355 105.727 154.355 105.928C154.355 106.124 154.404 106.306 154.502 106.474C154.6 106.637 154.749 106.768 154.95 106.866C155.15 106.964 155.407 107.013 155.72 107.013ZM161.296 108V100.44H166.616V101.819H162.759V108H161.296ZM171.49 108.21C170.767 108.21 170.16 108.035 169.67 107.685C169.18 107.33 168.809 106.852 168.557 106.25C168.305 105.648 168.179 104.969 168.179 104.213C168.179 103.457 168.303 102.778 168.55 102.176C168.802 101.574 169.171 101.1 169.656 100.755C170.146 100.405 170.748 100.23 171.462 100.23C172.171 100.23 172.783 100.405 173.296 100.755C173.814 101.1 174.213 101.574 174.493 102.176C174.773 102.773 174.913 103.452 174.913 104.213C174.913 104.969 174.773 105.65 174.493 106.257C174.218 106.859 173.823 107.335 173.31 107.685C172.801 108.035 172.195 108.21 171.49 108.21ZM167.934 111.36V100.44H169.236V105.879H169.404V111.36H167.934ZM171.287 106.887C171.754 106.887 172.139 106.768 172.442 106.53C172.75 106.292 172.979 105.972 173.128 105.571C173.282 105.165 173.359 104.712 173.359 104.213C173.359 103.718 173.282 103.27 173.128 102.869C172.979 102.468 172.748 102.148 172.435 101.91C172.122 101.672 171.723 101.553 171.238 101.553C170.781 101.553 170.403 101.665 170.104 101.889C169.81 102.113 169.591 102.426 169.446 102.827C169.306 103.228 169.236 103.69 169.236 104.213C169.236 104.736 169.306 105.198 169.446 105.599C169.586 106 169.808 106.315 170.111 106.544C170.414 106.773 170.806 106.887 171.287 106.887ZM177.207 111.36L178.67 107.377L178.691 108.553L175.394 100.44H176.92L179.384 106.705H178.936L181.288 100.44H182.772L178.6 111.36H177.207ZM186.564 108.21C185.831 108.21 185.173 108.054 184.59 107.741C184.011 107.428 183.554 106.997 183.218 106.446L184.38 105.683C184.65 106.047 184.963 106.329 185.318 106.53C185.677 106.731 186.081 106.831 186.529 106.831C186.995 106.831 187.364 106.726 187.635 106.516C187.91 106.301 188.048 106.014 188.048 105.655C188.048 105.37 187.968 105.16 187.81 105.025C187.656 104.885 187.441 104.794 187.166 104.752C186.895 104.71 186.587 104.689 186.242 104.689H185.57V103.513H186.242C186.699 103.513 187.075 103.45 187.369 103.324C187.667 103.193 187.817 102.948 187.817 102.589C187.817 102.239 187.688 101.987 187.432 101.833C187.18 101.679 186.879 101.602 186.529 101.602C186.137 101.602 185.756 101.686 185.388 101.854C185.019 102.017 184.697 102.22 184.422 102.463L183.568 101.462C183.969 101.075 184.426 100.774 184.94 100.559C185.458 100.34 186.013 100.23 186.606 100.23C187.091 100.23 187.539 100.316 187.95 100.489C188.365 100.657 188.696 100.907 188.944 101.238C189.196 101.569 189.322 101.978 189.322 102.463C189.322 102.841 189.238 103.186 189.07 103.499C188.902 103.812 188.645 104.096 188.3 104.353L188.258 103.856C188.542 103.945 188.78 104.087 188.972 104.283C189.163 104.479 189.305 104.71 189.399 104.976C189.497 105.237 189.546 105.515 189.546 105.809C189.546 106.318 189.41 106.752 189.14 107.111C188.874 107.47 188.514 107.743 188.062 107.93C187.609 108.117 187.11 108.21 186.564 108.21ZM197.457 100.44V108H196.05V102.743L192.27 108H191.08V100.44H192.487V105.592L196.274 100.44H197.457ZM201.367 108V101.756H198.784V100.44H205.413V101.756H202.83V108H201.367ZM210.095 108.21C209.343 108.21 208.683 108.047 208.114 107.72C207.549 107.389 207.108 106.929 206.791 106.341C206.478 105.748 206.322 105.062 206.322 104.283C206.322 103.457 206.476 102.741 206.784 102.134C207.096 101.527 207.53 101.058 208.086 100.727C208.641 100.396 209.287 100.23 210.025 100.23C210.795 100.23 211.45 100.41 211.992 100.769C212.533 101.124 212.937 101.63 213.203 102.288C213.473 102.946 213.581 103.728 213.525 104.633H212.062V104.101C212.052 103.224 211.884 102.575 211.558 102.155C211.236 101.735 210.743 101.525 210.081 101.525C209.348 101.525 208.797 101.756 208.429 102.218C208.06 102.68 207.876 103.347 207.876 104.22C207.876 105.051 208.06 105.695 208.429 106.152C208.797 106.605 209.329 106.831 210.025 106.831C210.482 106.831 210.876 106.728 211.208 106.523C211.544 106.313 211.805 106.014 211.992 105.627L213.427 106.082C213.133 106.759 212.687 107.284 212.09 107.657C211.492 108.026 210.827 108.21 210.095 108.21ZM207.4 104.633V103.492H212.797V104.633H207.4ZM217.891 108V100.44H221.216C221.435 100.44 221.655 100.454 221.874 100.482C222.093 100.505 222.287 100.54 222.455 100.587C222.838 100.694 223.164 100.909 223.435 101.231C223.706 101.548 223.841 101.973 223.841 102.505C223.841 102.808 223.794 103.065 223.701 103.275C223.608 103.48 223.479 103.658 223.316 103.807C223.241 103.872 223.162 103.931 223.078 103.982C222.994 104.033 222.91 104.073 222.826 104.101C222.999 104.129 223.169 104.19 223.337 104.283C223.594 104.418 223.804 104.614 223.967 104.871C224.135 105.123 224.219 105.461 224.219 105.886C224.219 106.395 224.095 106.822 223.848 107.167C223.601 107.508 223.251 107.741 222.798 107.867C222.621 107.918 222.42 107.953 222.196 107.972C221.977 107.991 221.757 108 221.538 108H217.891ZM219.375 106.845H221.447C221.545 106.845 221.657 106.836 221.783 106.817C221.909 106.798 222.021 106.773 222.119 106.74C222.329 106.675 222.478 106.556 222.567 106.383C222.66 106.21 222.707 106.026 222.707 105.83C222.707 105.564 222.637 105.352 222.497 105.193C222.357 105.03 222.18 104.925 221.965 104.878C221.872 104.845 221.769 104.827 221.657 104.822C221.545 104.817 221.449 104.815 221.37 104.815H219.375V106.845ZM219.375 103.639H221.013C221.148 103.639 221.286 103.632 221.426 103.618C221.566 103.599 221.687 103.569 221.79 103.527C221.972 103.457 222.107 103.34 222.196 103.177C222.285 103.009 222.329 102.827 222.329 102.631C222.329 102.416 222.28 102.225 222.182 102.057C222.084 101.889 221.937 101.772 221.741 101.707C221.606 101.66 221.449 101.635 221.272 101.63C221.099 101.621 220.99 101.616 220.943 101.616H219.375V103.639ZM231.993 100.44V108H230.586V102.743L226.806 108H225.616V100.44H227.023V105.592L230.81 100.44H231.993ZM233.389 109.68V106.824C233.804 106.824 234.1 106.686 234.278 106.411C234.46 106.131 234.604 105.657 234.712 104.99C234.777 104.584 234.831 104.152 234.873 103.695C234.919 103.238 234.959 102.743 234.992 102.211C235.024 101.674 235.057 101.084 235.09 100.44H240.508V106.824H241.25V109.68H239.864V108H234.782V109.68H233.389ZM235.482 106.824H239.038V101.616H236.392C236.373 101.924 236.352 102.241 236.329 102.568C236.31 102.895 236.287 103.219 236.259 103.541C236.235 103.863 236.207 104.171 236.175 104.465C236.142 104.759 236.105 105.025 236.063 105.263C236.007 105.632 235.939 105.94 235.86 106.187C235.785 106.434 235.659 106.647 235.482 106.824ZM245.997 108.21C245.246 108.21 244.585 108.047 244.016 107.72C243.451 107.389 243.01 106.929 242.693 106.341C242.38 105.748 242.224 105.062 242.224 104.283C242.224 103.457 242.378 102.741 242.686 102.134C242.999 101.527 243.433 101.058 243.988 100.727C244.543 100.396 245.19 100.23 245.927 100.23C246.697 100.23 247.353 100.41 247.894 100.769C248.435 101.124 248.839 101.63 249.105 102.288C249.376 102.946 249.483 103.728 249.427 104.633H247.964V104.101C247.955 103.224 247.787 102.575 247.46 102.155C247.138 101.735 246.646 101.525 245.983 101.525C245.25 101.525 244.7 101.756 244.331 102.218C243.962 102.68 243.778 103.347 243.778 104.22C243.778 105.051 243.962 105.695 244.331 106.152C244.7 106.605 245.232 106.831 245.927 106.831C246.384 106.831 246.779 106.728 247.11 106.523C247.446 106.313 247.707 106.014 247.894 105.627L249.329 106.082C249.035 106.759 248.589 107.284 247.992 107.657C247.395 108.026 246.73 108.21 245.997 108.21ZM243.302 104.633V103.492H248.699V104.633H243.302ZM254.281 108.21C253.525 108.21 252.869 108.04 252.314 107.699C251.758 107.358 251.329 106.889 251.026 106.292C250.727 105.69 250.578 104.997 250.578 104.213C250.578 103.424 250.732 102.731 251.04 102.134C251.348 101.532 251.779 101.065 252.335 100.734C252.89 100.398 253.539 100.23 254.281 100.23C255.037 100.23 255.692 100.4 256.248 100.741C256.803 101.082 257.232 101.551 257.536 102.148C257.839 102.745 257.991 103.434 257.991 104.213C257.991 105.002 257.837 105.697 257.529 106.299C257.225 106.896 256.796 107.365 256.241 107.706C255.685 108.042 255.032 108.21 254.281 108.21ZM254.281 106.831C255.004 106.831 255.543 106.588 255.898 106.103C256.257 105.613 256.437 104.983 256.437 104.213C256.437 103.424 256.255 102.794 255.891 102.323C255.531 101.847 254.995 101.609 254.281 101.609C253.791 101.609 253.387 101.721 253.07 101.945C252.752 102.164 252.517 102.47 252.363 102.862C252.209 103.249 252.132 103.7 252.132 104.213C252.132 105.006 252.314 105.641 252.678 106.117C253.042 106.593 253.576 106.831 254.281 106.831Z" fill="#ADAFB7"/>
</svg>
