<svg width="14" height="14" viewBox="0 0 14 14" fill="none" xmlns="http://www.w3.org/2000/svg">
<path d="M13 3.66663H11M1 3.66663H7" stroke="#1B1C20" stroke-width="1.5" stroke-linecap="round"/>
<path d="M9 5.66663C10.1046 5.66663 11 4.7712 11 3.66663C11 2.56206 10.1046 1.66663 9 1.66663C7.89543 1.66663 7 2.56206 7 3.66663C7 4.7712 7.89543 5.66663 9 5.66663Z" stroke="#1B1C20" stroke-width="1.5"/>
<path d="M13 10.3333L7 10.3333M1 10.3333H3" stroke="#1B1C20" stroke-width="1.5" stroke-linecap="round"/>
<path d="M5 12.3333C6.10457 12.3333 7 11.4378 7 10.3333C7 9.22868 6.10457 8.33325 5 8.33325C3.89543 8.33325 3 9.22868 3 10.3333C3 11.4378 3.89543 12.3333 5 12.3333Z" stroke="#1B1C20" stroke-width="1.5"/>
</svg>
