<svg width="24" height="24" viewBox="0 0 24 24" fill="none" xmlns="http://www.w3.org/2000/svg">
<g clip-path="url(#clip0_3370_188237)">
<path d="M12.0001 22.4463C17.7696 22.4463 22.4466 17.7694 22.4466 11.9999C22.4466 6.23049 17.7696 1.55347 12.0001 1.55347C6.23074 1.55347 1.55371 6.23049 1.55371 11.9999C1.55371 17.7694 6.23074 22.4463 12.0001 22.4463Z" stroke="#4D8AEE" stroke-width="1.5" stroke-linecap="round" stroke-linejoin="round"/>
<path d="M6.69629 13.6069C7.49986 16.4998 10.7141 18.2676 13.607 17.4641C15.3749 16.8212 16.8213 15.3748 17.3035 13.6069" stroke="#4D8AEE" stroke-width="1.5" stroke-linecap="round" stroke-linejoin="round"/>
<path d="M8.38421 9.58922C8.16231 9.58922 7.98242 9.40933 7.98242 9.18743C7.98242 8.96553 8.16231 8.78564 8.38421 8.78564" stroke="#4D8AEE" stroke-width="1.5" stroke-linecap="round" stroke-linejoin="round"/>
<path d="M8.38428 9.58922C8.60618 9.58922 8.78606 9.40933 8.78606 9.18743C8.78606 8.96553 8.60618 8.78564 8.38428 8.78564" stroke="#4D8AEE" stroke-width="1.5" stroke-linecap="round" stroke-linejoin="round"/>
<path d="M15.6161 9.58922C15.3942 9.58922 15.2144 9.40933 15.2144 9.18743C15.2144 8.96553 15.3942 8.78564 15.6161 8.78564" stroke="#4D8AEE" stroke-width="1.5" stroke-linecap="round" stroke-linejoin="round"/>
<path d="M15.6162 9.58922C15.8381 9.58922 16.018 9.40933 16.018 9.18743C16.018 8.96553 15.8381 8.78564 15.6162 8.78564" stroke="#4D8AEE" stroke-width="1.5" stroke-linecap="round" stroke-linejoin="round"/>
</g>
<defs>
<clipPath id="clip0_3370_188237">
<rect width="24" height="24" fill="white"/>
</clipPath>
</defs>
</svg>
