<svg width="14" height="14" viewBox="0 0 14 14" fill="none" xmlns="http://www.w3.org/2000/svg">
<path d="M13 3.66675H11M1 3.66675H7" stroke="#1B1C20" stroke-width="1.5" stroke-linecap="round"/>
<path d="M9 5.66675C10.1046 5.66675 11 4.77132 11 3.66675C11 2.56218 10.1046 1.66675 9 1.66675C7.89543 1.66675 7 2.56218 7 3.66675C7 4.77132 7.89543 5.66675 9 5.66675Z" stroke="#1B1C20" stroke-width="1.5"/>
<path d="M13 10.3335L7 10.3335M1 10.3335H3" stroke="#1B1C20" stroke-width="1.5" stroke-linecap="round"/>
<path d="M5 12.3335C6.10457 12.3335 7 11.4381 7 10.3335C7 9.22893 6.10457 8.3335 5 8.3335C3.89543 8.3335 3 9.22893 3 10.3335C3 11.4381 3.89543 12.3335 5 12.3335Z" stroke="#1B1C20" stroke-width="1.5"/>
</svg>
