<svg width="16" height="16" viewBox="0 0 16 16" fill="none" xmlns="http://www.w3.org/2000/svg">
<path d="M2.49979 2.40002L2.49998 2.40002L13.4997 2.40002H13.5V2.50002L2.49979 2.40002ZM2.49979 2.40002C2.28689 2.40044 2.07869 2.46263 1.90044 2.57905C1.72219 2.69546 1.58156 2.86111 1.4956 3.05588C1.40964 3.25065 1.38205 3.46619 1.41618 3.67633C1.4503 3.88647 1.54467 4.0822 1.68785 4.23977L1.69212 4.24458L1.69209 4.2446M2.49979 2.40002L1.69209 4.2446M1.69209 4.2446L1.69387 4.2465M1.69209 4.2446L1.69387 4.2465M1.69387 4.2465L5.89998 8.73766V13.5C5.89998 13.5 5.89998 13.5 5.89998 13.5C5.89994 13.6991 5.95393 13.8944 6.05618 14.0653C6.15844 14.2361 6.30514 14.3759 6.48064 14.4699C6.65614 14.5639 6.85385 14.6085 7.05271 14.599C7.25157 14.5894 7.44411 14.5261 7.6098 14.4157L7.60984 14.4157M1.69387 4.2465L7.60984 14.4157M7.60984 14.4157L9.6098 13.082C9.76061 12.9815 9.88427 12.8454 9.96979 12.6856C10.0553 12.5259 10.1 12.3475 10.1 12.1663C10.1 12.1663 10.1 12.1663 10.1 12.1662V8.73766L14.3067 4.2465L14.3067 4.24653M7.60984 14.4157L14.3067 4.24653M14.3067 4.24653L14.3085 4.24458M14.3067 4.24653L14.3085 4.24458M14.3085 4.24458L14.3129 4.23964C14.4574 4.08272 14.5525 3.88678 14.5865 3.67617C14.6205 3.46553 14.5918 3.24956 14.5039 3.05513L14.3085 4.24458ZM2.73072 3.60002H13.2694L9.1985 7.94889C9.19847 7.94892 9.19845 7.94894 9.19843 7.94896C9.00732 8.15158 8.90059 8.4194 8.89998 8.69792V8.69814V12.1128L7.09998 13.3131V8.69837V8.69814H6.99998M2.73072 3.60002L6.80296 7.94602L6.72998 8.01439M2.73072 3.60002L6.80285 7.9459M2.73072 3.60002L6.80285 7.9459M6.99998 8.69814C7.00057 8.44411 6.90397 8.19948 6.72998 8.01439M6.99998 8.69814V13.3798V8.69814ZM6.72998 8.01439L6.80285 7.9459M6.72998 8.01439L6.80285 7.9459" fill="#1B1C20" stroke="#1B1C20" stroke-width="0.2"/>
</svg>
